<svg width="400" height="340" viewBox="0 0 400 340" fill="none" xmlns="http://www.w3.org/2000/svg">
<path d="M200 339.999C310.457 339.999 400 294.35 400 238.039C400 181.727 310.457 136.078 200 136.078C89.543 136.078 0 181.727 0 238.039C0 294.35 89.543 339.999 200 339.999Z" fill="#F0F0F0"/>
<path d="M162.482 325.172C160.348 325.199 158.243 324.738 156.37 323.836L58.9061 274.143C57.8511 273.737 56.9533 273.067 56.3229 272.216C55.6925 271.366 55.3567 270.371 55.3567 269.355C55.3567 268.338 55.6925 267.344 56.3229 266.493C56.9533 265.643 57.8511 264.973 58.9061 264.566L230.518 177.072C232.404 176.195 234.503 175.736 236.635 175.736C238.766 175.736 240.865 176.195 242.751 177.072L340.215 226.765C341.27 227.172 342.167 227.841 342.798 228.692C343.428 229.542 343.764 230.537 343.764 231.553C343.764 232.57 343.428 233.564 342.798 234.415C342.167 235.266 341.27 235.935 340.215 236.342L168.603 323.836C166.726 324.738 164.618 325.198 162.482 325.172Z" fill="#E0E0E0"/>
<path d="M336.233 221.079L326.722 216.6C326.722 216.6 325.995 203.761 327.128 193.587C328.726 179.284 340.764 162.683 353.234 166.714C365.703 170.745 347.519 185.316 343.469 197.438C339.42 209.561 336.233 221.079 336.233 221.079Z" fill="#280D01"/>
<path opacity="0.1" d="M336.233 221.079L326.722 216.6C326.722 216.6 325.995 203.761 327.128 193.587C328.726 179.284 340.764 162.683 353.234 166.714C365.703 170.745 347.519 185.316 343.469 197.438C339.42 209.561 336.233 221.079 336.233 221.079Z" fill="black"/>
<path d="M331.583 219.586C331.694 219.582 331.799 219.54 331.874 219.469C331.95 219.398 331.991 219.303 331.989 219.206C330.763 187.436 348.677 171.431 348.855 171.297C348.894 171.263 348.925 171.222 348.946 171.177C348.968 171.133 348.979 171.084 348.979 171.036C348.979 170.987 348.968 170.939 348.946 170.894C348.925 170.849 348.894 170.809 348.855 170.774C348.815 170.739 348.768 170.712 348.717 170.693C348.665 170.674 348.61 170.664 348.554 170.664C348.499 170.664 348.443 170.674 348.392 170.693C348.34 170.712 348.294 170.739 348.254 170.774C348.077 170.939 329.901 187.145 331.135 219.235C331.139 219.285 331.153 219.333 331.177 219.377C331.201 219.421 331.235 219.46 331.277 219.493C331.318 219.526 331.367 219.551 331.42 219.567C331.472 219.583 331.528 219.589 331.583 219.586Z" fill="white"/>
<path d="M341.111 223.617L336.165 221.094C335.404 213.916 336.455 206.678 339.243 199.902C343.825 188.921 355.66 182.934 361.104 184.569C367.757 186.57 367.8 192.191 365.382 195.886C362.524 200.245 344.704 211.27 341.111 223.617Z" fill="#280D01"/>
<path d="M338.507 222.655C338.619 222.655 338.727 222.615 338.806 222.545C338.885 222.475 338.93 222.38 338.93 222.281C338.828 202.194 360.191 188.623 360.402 188.489C360.488 188.43 360.545 188.345 360.561 188.25C360.578 188.156 360.552 188.059 360.491 187.981C360.429 187.902 360.335 187.847 360.229 187.828C360.123 187.809 360.013 187.826 359.921 187.876C359.701 188.018 337.941 201.821 338.084 222.289C338.084 222.337 338.095 222.386 338.117 222.431C338.138 222.475 338.169 222.516 338.209 222.55C338.248 222.584 338.295 222.611 338.346 222.629C338.397 222.647 338.452 222.656 338.507 222.655Z" fill="white"/>
<path d="M51.2216 229.79V212.292C51.2216 212.292 50.2071 202.417 42.3789 194.93C34.5507 187.442 27.5509 189.988 25.2599 193.541C22.969 197.094 28.1681 203.842 31.4904 207.642C35.489 212.21 51.2216 233.433 51.2216 242.935V229.79Z" fill="#280D01"/>
<g opacity="0.2">
<path d="M51.2216 229.79V212.292C51.2216 212.292 50.2071 202.417 42.3789 194.93C34.5507 187.442 27.5509 189.988 25.2599 193.541C22.969 197.094 28.1681 203.842 31.4904 207.642C35.489 212.21 51.2216 233.433 51.2216 242.935V229.79Z" fill="black"/>
</g>
<path d="M51.2216 227.026C51.1052 227.026 50.9928 226.989 50.9045 226.922C50.8162 226.855 50.7578 226.762 50.7397 226.661C47.1722 207.581 30.7211 194.488 30.5605 194.361C30.4641 194.285 30.4055 194.179 30.3976 194.066C30.3896 193.953 30.433 193.841 30.5182 193.756C30.6034 193.671 30.7234 193.619 30.8519 193.612C30.9803 193.605 31.1066 193.643 31.203 193.719C31.3721 193.853 48.1106 207.155 51.7035 226.526C51.723 226.639 51.6913 226.754 51.6153 226.846C51.5393 226.938 51.4252 227 51.2977 227.019L51.2216 227.026Z" fill="white"/>
<path d="M51.323 232.105C51.323 232.105 51.974 230.366 49.0828 229.925C46.1916 229.485 45.0757 227.365 44.8052 223.797C44.5346 220.228 43.3173 217.675 39.6822 217.153C36.047 216.63 33.1389 218.235 30.7803 216.63C28.4217 215.026 22.3265 211.151 17.2542 212.898C12.182 214.645 13.8727 218.497 16.4765 220.975C19.0803 223.453 19.858 224.297 17.8629 228.328C15.8678 232.359 17.3134 236.136 21.9799 237.076C26.6464 238.017 29.2671 237.539 29.3347 242.063C29.4023 246.586 30.1125 248.602 32.7162 250.378C35.32 252.155 43.3257 251.349 46.6735 252.036C47.6786 252.262 48.6173 252.675 49.4266 253.248C50.2358 253.821 50.8969 254.54 51.3653 255.357L51.323 232.105Z" fill="#280D01"/>
<path d="M51.323 250.721C51.2395 250.721 51.1581 250.698 51.09 250.655C51.0219 250.612 50.9704 250.552 50.9426 250.482C42.4465 228.193 23.2057 219.19 23.045 219.13C22.9509 219.087 22.8802 219.012 22.8484 218.922C22.8167 218.833 22.8266 218.736 22.876 218.653C22.9253 218.569 23.01 218.507 23.1115 218.479C23.2129 218.451 23.3228 218.46 23.417 218.503C23.6114 218.593 43.1313 227.715 51.7372 250.281C51.7544 250.325 51.7614 250.371 51.7579 250.418C51.7544 250.464 51.7405 250.51 51.7169 250.552C51.6933 250.593 51.6605 250.63 51.6204 250.661C51.5804 250.691 51.5339 250.714 51.4836 250.729L51.323 250.721Z" fill="white"/>
<path d="M39.1326 231.29H39.0396C33.4939 230.17 24.609 230.775 24.5245 230.782C24.4181 230.79 24.3123 230.761 24.23 230.701C24.1477 230.641 24.0956 230.555 24.0849 230.461C24.0777 230.366 24.1126 230.273 24.182 230.201C24.2514 230.128 24.3499 230.082 24.4568 230.073C24.8288 230.073 33.5531 229.453 39.2172 230.603C39.3136 230.621 39.3991 230.67 39.4571 230.74C39.515 230.81 39.5413 230.897 39.5307 230.984C39.5202 231.07 39.4736 231.15 39.4001 231.208C39.3265 231.266 39.2312 231.298 39.1326 231.297V231.29Z" fill="white"/>
<path d="M43.6554 242.001C41.1193 242.001 38.431 241.86 38.2619 241.852C38.155 241.844 38.0556 241.801 37.9847 241.73C37.9137 241.659 37.8767 241.566 37.8815 241.472C37.8847 241.425 37.8984 241.379 37.922 241.337C37.9455 241.295 37.9784 241.258 38.0185 241.227C38.0587 241.197 38.1055 241.174 38.156 241.159C38.2065 241.145 38.2597 241.14 38.3126 241.144C38.3718 241.144 44.5684 241.479 46.9862 241.144C47.0416 241.129 47.0998 241.125 47.157 241.132C47.2142 241.139 47.269 241.157 47.3179 241.184C47.3667 241.211 47.4084 241.247 47.4402 241.29C47.472 241.332 47.4932 241.38 47.5023 241.43C47.5114 241.481 47.5082 241.532 47.493 241.581C47.4778 241.63 47.4508 241.676 47.414 241.715C47.3771 241.754 47.3312 241.786 47.2793 241.809C47.2274 241.831 47.1707 241.843 47.113 241.845C45.966 241.967 44.8107 242.02 43.6554 242.001Z" fill="white"/>
<path d="M36.5289 228.677C36.4235 228.67 36.3254 228.627 36.2547 228.557C36.1839 228.488 36.1459 228.397 36.1484 228.304C36.3416 225.754 36.9421 223.241 37.9322 220.839C37.9718 220.751 38.0491 220.681 38.1472 220.643C38.2454 220.605 38.3565 220.603 38.4563 220.638C38.5538 220.673 38.6321 220.74 38.6747 220.825C38.7173 220.91 38.7208 221.006 38.6846 221.093C37.7427 223.428 37.1737 225.868 36.9938 228.341C36.9922 228.392 36.9784 228.441 36.9533 228.486C36.9282 228.531 36.8923 228.571 36.8482 228.603C36.8041 228.635 36.7528 228.658 36.6977 228.671C36.6426 228.684 36.585 228.686 36.5289 228.677Z" fill="white"/>
<path d="M56.0656 262.814C56.1755 264.142 56.6385 265.428 57.417 266.568C58.1955 267.708 59.2675 268.67 60.5461 269.376L158.01 319.076C159.397 319.698 160.931 320.022 162.486 320.022C164.042 320.022 165.576 319.698 166.963 319.076L338.575 231.582C339.915 230.942 341.034 229.993 341.814 228.838C342.594 227.682 343.005 226.362 343.005 225.017C343.005 223.671 342.594 222.351 341.814 221.195C341.034 220.04 339.915 219.092 338.575 218.451L241.102 168.751C239.715 168.129 238.182 167.805 236.626 167.805C235.07 167.805 233.537 168.129 232.15 168.751L60.5207 256.245C59.2472 256.955 58.1804 257.92 57.4066 259.061C56.6327 260.202 56.1734 261.488 56.0656 262.814Z" fill="#280D01"/>
<path opacity="0.5" d="M343.064 225.013C342.955 226.341 342.493 227.628 341.716 228.769C340.939 229.91 339.869 230.874 338.592 231.582L166.98 319.076C165.604 319.721 164.065 320.047 162.507 320.024V311.462C164.065 311.485 165.604 311.159 166.98 310.514L338.592 223.02C340.756 221.915 341.026 220.213 339.437 218.959C340.486 219.689 341.35 220.605 341.975 221.648C342.599 222.69 342.97 223.836 343.064 225.013Z" fill="black"/>
<path opacity="0.3" d="M60.5207 260.814L158.01 310.484C159.397 311.107 160.931 311.431 162.486 311.431C164.042 311.431 165.576 311.107 166.963 310.484L338.575 222.983C341.043 221.729 341.043 219.684 338.575 218.422L241.102 168.722C239.715 168.1 238.182 167.775 236.626 167.775C235.07 167.775 233.537 168.1 232.15 168.722L60.5207 256.246C58.0691 257.485 58.0691 259.553 60.5207 260.814Z" fill="black"/>
<path opacity="0.7" d="M162.491 311.461V320.016C160.93 320.047 159.387 319.723 158.01 319.075L60.5208 269.375C59.2104 268.764 58.1065 267.858 57.3217 266.749C56.5368 265.639 56.0988 264.365 56.0525 263.058C56.0061 261.75 56.3529 260.455 57.0576 259.304C57.7623 258.153 58.7997 257.188 60.0643 256.506C58.0607 257.775 58.2214 259.634 60.5208 260.813L158.01 310.483C159.385 311.14 160.927 311.477 162.491 311.461Z" fill="black"/>
<path d="M51.8641 256.388C49.5477 255.209 49.6745 253.215 49.6745 250.692V131.817C49.7588 130.446 50.2075 129.112 50.9845 127.922C51.7615 126.733 52.8447 125.722 54.1466 124.971L225.759 37.4774C227.09 36.8528 228.569 36.5144 230.076 36.4897C231.583 36.4651 233.076 36.7549 234.432 37.3356C236.757 38.515 236.63 40.5156 236.63 43.0312V161.937C236.546 163.309 236.097 164.644 235.318 165.833C234.54 167.023 233.454 168.033 232.15 168.782L60.5207 256.246C59.1918 256.868 57.7155 257.205 56.2116 257.23C54.7076 257.255 53.2182 256.966 51.8641 256.388Z" fill="#280D01"/>
<path opacity="0.3" d="M236.647 43.0312C236.647 40.5156 234.644 39.4929 232.167 40.747L60.5208 128.249C59.1926 128.986 58.1034 130.015 57.359 131.234L50.968 127.95C51.7205 126.733 52.8115 125.706 54.1381 124.964L225.75 37.4774C227.081 36.8528 228.561 36.5144 230.068 36.4897C231.575 36.4651 233.067 36.7549 234.424 37.3356C236.766 38.515 236.647 40.5156 236.647 43.0312Z" fill="black"/>
<path opacity="0.5" d="M56.0656 135.063V253.969C56.0656 256.485 58.0691 257.507 60.5376 256.208L232.133 168.752C233.437 168.003 234.523 166.992 235.301 165.803C236.08 164.613 236.53 163.278 236.613 161.906V43.0307C236.613 40.515 234.61 39.4924 232.133 40.7912L60.5207 128.248C59.2265 128.997 58.1492 130.004 57.3755 131.188C56.6018 132.372 56.1531 133.699 56.0656 135.063Z" fill="black"/>
<path opacity="0.7" d="M60.0135 256.481C58.7299 256.993 57.3347 257.249 55.9266 257.233C54.5184 257.216 53.1316 256.926 51.8641 256.384C49.5477 255.205 49.6745 253.212 49.6745 250.689V131.813C49.7264 130.439 50.1776 129.1 50.9849 127.924L57.3759 131.186C56.5783 132.36 56.1277 133.692 56.0656 135.06V253.966C56.0656 256.302 57.7902 257.355 60.0135 256.481Z" fill="black"/>
<path d="M62.947 132.823L228.422 48.4718C229.901 47.7253 231.102 48.33 231.102 49.8379V153.598C231.053 154.42 230.785 155.221 230.319 155.934C229.853 156.648 229.203 157.254 228.422 157.703L62.947 242.055C61.4676 242.801 60.2672 242.196 60.2672 240.681V136.921C60.3172 136.1 60.5859 135.301 61.0516 134.589C61.5172 133.877 62.1666 133.272 62.947 132.823Z" fill="#FAFAFA"/>
<path d="M97.5822 158.904L194.742 109.376C197.624 107.883 199.958 108.95 199.958 111.705C199.958 114.459 197.624 117.893 194.742 119.386L97.5822 168.877C94.7079 170.37 92.3747 169.302 92.3747 166.548C92.3747 163.793 94.7079 160.375 97.5822 158.904Z" fill="#455A64"/>
<path d="M198.318 111.704C198.318 113.943 196.297 116.929 193.905 118.116L174.064 128.238L96.7453 167.644C96.2575 167.931 95.6908 168.096 95.1053 168.122C94.336 168.122 93.9386 167.592 93.9386 166.547C93.9386 164.308 95.9591 161.322 98.3515 160.127L174.064 121.535L195.511 110.599C196.005 110.318 196.573 110.153 197.16 110.121C197.963 110.121 198.318 110.659 198.318 111.704Z" fill="#280D01"/>
<path d="M198.318 111.704C198.318 113.943 196.297 116.929 193.905 118.116L174.064 128.238L96.7453 167.644C96.2575 167.931 95.6908 168.096 95.1053 168.122C94.336 168.122 93.9386 167.592 93.9386 166.547C93.9386 164.308 95.9591 161.322 98.3515 160.127L174.064 121.535L195.511 110.599C196.005 110.318 196.573 110.153 197.16 110.121C197.963 110.121 198.318 110.659 198.318 111.704Z" fill="#280D01"/>
<path d="M198.318 111.707C198.318 113.946 196.297 116.932 193.905 118.119L174.064 128.241V121.523L195.511 110.587C196.005 110.306 196.573 110.141 197.16 110.109C197.963 110.124 198.318 110.662 198.318 111.707Z" fill="#263238"/>
<path opacity="0.6" d="M120.602 148.805L98.3853 160.129C95.9929 161.345 93.9724 164.287 93.9724 166.548C93.9724 167.593 94.3698 168.123 95.1391 168.123C95.7246 168.098 96.2913 167.933 96.7791 167.646L120.602 155.508V148.805Z" fill="white"/>
<path opacity="0.4" d="M120.61 155.502L147.536 141.781V135.078L120.61 148.806V155.502Z" fill="white"/>
<path d="M127.864 171.275C127.894 171.252 127.933 171.239 127.974 171.239C128.014 171.239 128.053 171.252 128.083 171.275C128.117 171.308 128.142 171.347 128.158 171.39C128.174 171.432 128.18 171.477 128.176 171.521V172.611C128.175 172.73 128.143 172.847 128.083 172.954C128.038 173.049 127.962 173.13 127.864 173.186L122.901 175.716C122.873 175.741 122.835 175.754 122.796 175.754C122.756 175.754 122.718 175.741 122.69 175.716C122.657 175.683 122.631 175.644 122.615 175.601C122.599 175.559 122.593 175.514 122.597 175.47V165.52C122.6 165.401 122.631 165.283 122.69 165.176C122.732 165.082 122.806 165.001 122.901 164.945L123.823 164.474C123.852 164.452 123.89 164.439 123.928 164.439C123.967 164.439 124.005 164.452 124.034 164.474C124.067 164.508 124.093 164.547 124.109 164.589C124.125 164.632 124.131 164.676 124.127 164.721V173.163L127.864 171.275Z" fill="#455A64"/>
<path d="M132.319 162.765C132.656 162.569 133.048 162.46 133.452 162.451C133.761 162.453 134.06 162.551 134.297 162.727C134.563 162.943 134.766 163.212 134.889 163.511C135.043 163.895 135.129 164.298 135.142 164.706C135.142 164.788 135.142 164.907 135.142 165.049V165.907C135.142 166.042 135.142 166.161 135.142 166.258C135.113 166.762 135.025 167.263 134.88 167.751C134.741 168.226 134.545 168.686 134.297 169.125C134.07 169.539 133.786 169.928 133.452 170.282C133.13 170.617 132.747 170.902 132.319 171.125C131.983 171.316 131.594 171.421 131.195 171.431C130.886 171.432 130.587 171.337 130.349 171.163C130.085 170.963 129.884 170.705 129.766 170.416C129.609 170.035 129.521 169.634 129.504 169.229C129.504 169.14 129.504 169.028 129.504 168.886C129.504 168.744 129.504 168.61 129.504 168.468C129.504 168.326 129.504 168.177 129.504 168.035C129.504 167.893 129.504 167.766 129.504 167.669C129.527 167.165 129.612 166.664 129.757 166.176C129.901 165.699 130.1 165.237 130.349 164.795C130.575 164.377 130.859 163.986 131.195 163.631C131.508 163.285 131.889 162.992 132.319 162.765ZM133.697 165.534C133.689 165.279 133.632 165.026 133.528 164.788C133.465 164.648 133.352 164.53 133.207 164.452C133.07 164.41 132.921 164.41 132.784 164.452C132.62 164.488 132.463 164.546 132.319 164.623C132.152 164.708 131.996 164.808 131.854 164.922C131.692 165.061 131.553 165.22 131.44 165.392C131.303 165.601 131.195 165.825 131.118 166.057C131.022 166.343 130.966 166.639 130.949 166.937C130.949 167.02 130.949 167.132 130.949 167.251C130.949 167.37 130.949 167.505 130.949 167.639C130.949 167.774 130.949 167.908 130.949 168.035C130.949 168.162 130.949 168.259 130.949 168.326C130.957 168.569 131.014 168.81 131.118 169.035C131.181 169.175 131.294 169.293 131.44 169.371C131.569 169.425 131.715 169.438 131.854 169.408C132.018 169.376 132.175 169.321 132.319 169.244C132.485 169.156 132.641 169.054 132.784 168.938C132.948 168.799 133.09 168.641 133.207 168.468C133.345 168.259 133.453 168.036 133.528 167.803C133.621 167.516 133.677 167.221 133.697 166.923C133.697 166.848 133.697 166.751 133.697 166.616V165.87C133.705 165.713 133.697 165.609 133.697 165.534Z" fill="#455A64"/>
<path d="M137.036 162.488C137.079 162.214 137.15 161.944 137.247 161.682C137.366 161.36 137.522 161.05 137.712 160.756C137.921 160.431 138.167 160.125 138.448 159.845C138.737 159.549 139.08 159.296 139.462 159.099C139.777 158.924 140.133 158.815 140.502 158.778C140.644 158.763 140.789 158.774 140.926 158.808C141.064 158.843 141.193 158.901 141.305 158.979C141.558 159.177 141.737 159.437 141.821 159.726C141.951 160.149 142.011 160.587 141.999 161.025V165.556C142 165.672 141.971 165.787 141.914 165.892C141.871 165.99 141.794 166.073 141.694 166.131L140.849 166.564C140.82 166.588 140.783 166.601 140.743 166.601C140.704 166.601 140.666 166.588 140.637 166.564C140.604 166.53 140.579 166.491 140.563 166.449C140.547 166.406 140.541 166.362 140.544 166.317V165.802C140.375 166.199 140.144 166.573 139.86 166.914C139.557 167.284 139.168 167.592 138.718 167.818C138.462 167.961 138.174 168.053 137.873 168.086C137.642 168.103 137.412 168.042 137.231 167.915C137.037 167.766 136.896 167.572 136.825 167.355C136.723 167.065 136.675 166.763 136.681 166.459C136.674 165.78 136.866 165.112 137.239 164.518C137.618 163.915 138.123 163.381 138.727 162.943L140.57 161.57C140.57 161.144 140.468 160.905 140.265 160.823C140.136 160.793 140 160.788 139.869 160.81C139.737 160.832 139.613 160.88 139.505 160.95C139.336 161.034 139.186 161.145 139.065 161.279C138.945 161.42 138.843 161.573 138.761 161.734C138.707 161.827 138.642 161.915 138.566 161.995C138.515 162.052 138.452 162.1 138.38 162.137L137.332 162.675C137.303 162.691 137.269 162.7 137.235 162.7C137.2 162.7 137.166 162.691 137.138 162.675C137.105 162.653 137.08 162.624 137.062 162.592C137.044 162.559 137.035 162.524 137.036 162.488ZM138.93 165.869C139.186 165.735 139.417 165.566 139.615 165.369C139.814 165.172 139.984 164.954 140.122 164.72C140.254 164.495 140.356 164.257 140.426 164.011C140.491 163.786 140.526 163.556 140.528 163.324V163.167L138.989 164.324C138.725 164.507 138.499 164.729 138.321 164.981C138.185 165.185 138.112 165.416 138.11 165.653C138.11 165.869 138.194 165.981 138.355 166.004C138.558 166.015 138.759 165.968 138.93 165.869Z" fill="#455A64"/>
<path d="M146.344 155.613C146.537 155.508 146.748 155.432 146.969 155.389C147.131 155.36 147.298 155.36 147.46 155.389C147.586 155.406 147.707 155.446 147.815 155.508C147.902 155.558 147.982 155.619 148.051 155.687V152.403C148.054 152.286 148.086 152.172 148.144 152.067C148.189 151.972 148.266 151.891 148.364 151.836L149.21 151.395C149.24 151.372 149.279 151.359 149.319 151.359C149.36 151.359 149.399 151.372 149.429 151.395C149.463 151.429 149.488 151.468 149.504 151.51C149.52 151.552 149.526 151.597 149.522 151.642V161.749C149.52 161.865 149.488 161.98 149.429 162.085C149.386 162.183 149.309 162.266 149.21 162.324L148.364 162.764C148.333 162.786 148.294 162.798 148.254 162.798C148.214 162.798 148.176 162.786 148.144 162.764C148.111 162.73 148.086 162.691 148.07 162.649C148.054 162.607 148.048 162.562 148.051 162.518V162.159C147.983 162.306 147.904 162.448 147.815 162.585C147.709 162.751 147.591 162.911 147.46 163.063C147.31 163.235 147.146 163.397 146.969 163.548C146.781 163.707 146.571 163.845 146.344 163.958C146.043 164.136 145.681 164.216 145.321 164.182C145.011 164.139 144.731 163.995 144.535 163.779C144.293 163.517 144.12 163.211 144.027 162.883C143.895 162.473 143.824 162.049 143.816 161.622C143.816 161.473 143.816 161.301 143.816 161.092C143.816 160.883 143.816 160.704 143.816 160.547C143.832 160.044 143.903 159.545 144.027 159.054C144.141 158.567 144.311 158.092 144.535 157.636C144.736 157.209 145 156.807 145.321 156.441C145.594 156.107 145.943 155.825 146.344 155.613ZM145.287 159.883C145.27 160.169 145.27 160.455 145.287 160.741C145.338 161.39 145.481 161.794 145.744 161.95C145.887 162.027 146.052 162.064 146.219 162.057C146.386 162.051 146.547 162 146.682 161.913C147.091 161.692 147.417 161.37 147.62 160.987C147.885 160.523 148.032 160.014 148.051 159.494C148.051 159.33 148.051 159.136 148.051 158.897C148.051 158.658 148.051 158.472 148.051 158.322C148.064 158.133 148.032 157.943 147.958 157.764C147.884 157.586 147.769 157.423 147.62 157.285C147.486 157.193 147.321 157.144 147.151 157.144C146.981 157.144 146.816 157.193 146.682 157.285C146.275 157.505 145.949 157.823 145.744 158.203C145.456 158.727 145.3 159.3 145.287 159.883Z" fill="#455A64"/>
<path d="M152.887 149.508C152.915 149.484 152.953 149.471 152.993 149.471C153.032 149.471 153.07 149.484 153.098 149.508C153.132 149.542 153.157 149.581 153.173 149.623C153.189 149.666 153.195 149.71 153.191 149.755V150.957C153.189 151.073 153.157 151.188 153.098 151.292C153.056 151.386 152.982 151.467 152.887 151.524L151.906 152.024C151.878 152.048 151.84 152.062 151.801 152.062C151.761 152.062 151.723 152.048 151.695 152.024C151.662 151.99 151.636 151.951 151.621 151.909C151.605 151.867 151.598 151.822 151.602 151.778V150.576C151.605 150.459 151.636 150.344 151.695 150.24C151.735 150.144 151.809 150.063 151.906 150.009L152.887 149.508ZM153.132 159.907C153.13 160.023 153.098 160.138 153.039 160.243C152.997 160.339 152.923 160.422 152.828 160.482L151.982 160.914C151.951 160.936 151.912 160.948 151.873 160.948C151.833 160.948 151.794 160.936 151.763 160.914C151.731 160.88 151.707 160.841 151.693 160.799C151.678 160.756 151.673 160.712 151.678 160.668V153.487C151.677 153.368 151.706 153.251 151.763 153.144C151.811 153.05 151.887 152.97 151.982 152.912L152.828 152.472C152.856 152.448 152.894 152.434 152.934 152.434C152.973 152.434 153.011 152.448 153.039 152.472C153.072 152.505 153.098 152.545 153.114 152.587C153.13 152.629 153.136 152.674 153.132 152.718V159.907Z" fill="#455A64"/>
<path d="M160.791 156.001C160.793 156.117 160.764 156.232 160.707 156.337C160.661 156.432 160.585 156.512 160.487 156.568L159.642 157.009C159.613 157.033 159.575 157.046 159.536 157.046C159.496 157.046 159.459 157.033 159.43 157.009C159.397 156.975 159.372 156.936 159.356 156.894C159.34 156.852 159.333 156.807 159.337 156.762V152.851C159.381 152.393 159.273 151.934 159.024 151.53C158.805 151.268 158.483 151.253 158.044 151.477C157.607 151.721 157.274 152.086 157.097 152.515C156.859 153.039 156.741 153.6 156.75 154.165V158.084C156.752 158.2 156.723 158.315 156.666 158.42C156.62 158.514 156.544 158.595 156.446 158.651L155.601 159.091C155.572 159.116 155.534 159.129 155.495 159.129C155.456 159.129 155.418 159.116 155.389 159.091C155.356 159.058 155.33 159.019 155.314 158.977C155.298 158.934 155.292 158.89 155.296 158.845V151.634C155.299 151.517 155.331 151.403 155.389 151.298C155.429 151.203 155.503 151.121 155.601 151.067L156.446 150.626C156.477 150.603 156.516 150.591 156.556 150.591C156.596 150.591 156.635 150.603 156.666 150.626C156.698 150.661 156.721 150.7 156.736 150.742C156.75 150.784 156.755 150.829 156.75 150.873V151.224C156.946 150.867 157.178 150.528 157.444 150.208C157.698 149.908 158.017 149.654 158.382 149.462C158.721 149.254 159.128 149.15 159.54 149.163C159.691 149.18 159.835 149.225 159.965 149.294C160.094 149.364 160.206 149.456 160.293 149.566C160.501 149.853 160.637 150.177 160.69 150.514C160.775 150.948 160.815 151.388 160.808 151.828L160.791 156.001Z" fill="#455A64"/>
<path d="M165.441 155.585C165.622 155.492 165.788 155.376 165.931 155.241C166.104 155.073 166.255 154.888 166.379 154.689C166.528 154.454 166.641 154.203 166.717 153.942C166.804 153.668 166.846 153.384 166.844 153.099V152.532C166.774 152.675 166.695 152.814 166.607 152.95C166.499 153.117 166.381 153.279 166.252 153.435C166.103 153.605 165.939 153.765 165.762 153.913C165.574 154.074 165.364 154.214 165.137 154.331C164.833 154.503 164.473 154.58 164.114 154.547C163.804 154.504 163.524 154.36 163.327 154.144C163.086 153.882 162.912 153.576 162.82 153.248C162.689 152.84 162.618 152.419 162.609 151.994C162.609 151.845 162.609 151.666 162.609 151.464C162.609 151.263 162.609 151.076 162.609 150.919C162.624 150.417 162.695 149.917 162.82 149.426C162.932 148.939 163.102 148.464 163.327 148.008C163.528 147.579 163.793 147.174 164.114 146.806C164.387 146.473 164.735 146.194 165.137 145.985C165.331 145.881 165.542 145.803 165.762 145.754C165.924 145.728 166.09 145.728 166.252 145.754C166.379 145.772 166.5 145.812 166.607 145.873C166.697 145.921 166.777 145.982 166.844 146.052V145.694C166.847 145.577 166.879 145.463 166.937 145.358C166.98 145.262 167.057 145.181 167.157 145.127L168.002 144.686C168.033 144.663 168.072 144.65 168.112 144.65C168.153 144.65 168.192 144.663 168.222 144.686C168.255 144.72 168.281 144.759 168.297 144.801C168.313 144.843 168.319 144.888 168.315 144.933V152.233C168.345 153.339 168.082 154.436 167.546 155.435C167.084 156.28 166.349 156.984 165.432 157.458C165.106 157.637 164.74 157.752 164.359 157.794C164.071 157.827 163.778 157.788 163.513 157.682C163.273 157.569 163.074 157.398 162.939 157.19C162.786 156.95 162.705 156.681 162.702 156.406C162.695 156.289 162.724 156.173 162.786 156.07C162.829 155.974 162.906 155.893 163.006 155.839L163.775 155.443C163.813 155.415 163.861 155.4 163.911 155.4C163.96 155.4 164.008 155.415 164.046 155.443L164.24 155.615C164.285 155.676 164.345 155.728 164.415 155.766C164.485 155.805 164.564 155.83 164.646 155.839C164.935 155.832 165.214 155.743 165.441 155.585ZM164.08 150.3C164.054 150.588 164.054 150.877 164.08 151.166C164.131 151.808 164.274 152.211 164.536 152.375C164.679 152.451 164.845 152.489 165.012 152.482C165.179 152.475 165.34 152.425 165.475 152.338C165.88 152.113 166.205 151.792 166.413 151.412C166.677 150.948 166.825 150.438 166.844 149.919C166.844 149.755 166.844 149.553 166.844 149.322C166.844 149.09 166.844 148.889 166.844 148.747C166.857 148.556 166.825 148.365 166.751 148.185C166.677 148.005 166.562 147.841 166.413 147.702C166.277 147.613 166.113 147.565 165.944 147.565C165.775 147.565 165.61 147.613 165.475 147.702C165.07 147.924 164.745 148.242 164.536 148.62C164.25 149.145 164.094 149.717 164.08 150.3Z" fill="#455A64"/>
<path d="M171.68 148.5C171.71 148.478 171.747 148.467 171.785 148.467C171.824 148.467 171.861 148.478 171.891 148.5C171.924 148.533 171.95 148.572 171.966 148.614C171.982 148.657 171.988 148.701 171.984 148.746V150.239C171.982 150.355 171.95 150.47 171.891 150.575C171.848 150.669 171.775 150.749 171.68 150.806L170.623 151.344C170.592 151.367 170.553 151.379 170.513 151.379C170.473 151.379 170.434 151.367 170.403 151.344C170.371 151.31 170.347 151.27 170.332 151.228C170.318 151.186 170.313 151.141 170.319 151.097V149.604C170.317 149.488 170.346 149.373 170.403 149.268C170.451 149.173 170.527 149.091 170.623 149.03L171.68 148.5Z" fill="#455A64"/>
<path d="M175.197 146.731C175.227 146.708 175.266 146.695 175.306 146.695C175.347 146.695 175.386 146.708 175.416 146.731C175.451 146.764 175.477 146.803 175.493 146.845C175.509 146.888 175.515 146.933 175.509 146.977V148.47C175.507 148.587 175.475 148.702 175.416 148.806C175.373 148.902 175.296 148.984 175.197 149.038L174.148 149.575C174.118 149.598 174.079 149.611 174.038 149.611C173.998 149.611 173.959 149.598 173.929 149.575C173.897 149.541 173.873 149.502 173.858 149.459C173.844 149.417 173.839 149.373 173.844 149.329V147.836C173.842 147.72 173.871 147.605 173.929 147.5C173.972 147.404 174.049 147.323 174.148 147.269L175.197 146.731Z" fill="#455A64"/>
<path d="M178.722 144.932C178.752 144.909 178.791 144.896 178.832 144.896C178.872 144.896 178.911 144.909 178.942 144.932C178.975 144.966 179 145.005 179.016 145.047C179.032 145.09 179.038 145.134 179.035 145.179V146.672C179.031 146.791 178.999 146.908 178.942 147.015C178.897 147.11 178.82 147.191 178.722 147.246L177.674 147.784C177.642 147.806 177.603 147.818 177.564 147.818C177.524 147.818 177.485 147.806 177.454 147.784C177.422 147.75 177.398 147.71 177.384 147.668C177.369 147.626 177.364 147.581 177.369 147.538V146.045C177.369 145.926 177.398 145.809 177.454 145.701C177.499 145.606 177.575 145.525 177.674 145.47L178.722 144.932Z" fill="#455A64"/>
<path opacity="0.3" d="M72.9309 256.483L232.234 175.267C232.929 174.958 233.696 174.797 234.475 174.797C235.253 174.797 236.02 174.958 236.715 175.267L239.369 176.551C240.604 177.185 240.604 178.208 239.369 178.835L80.0321 260.036C79.3399 260.349 78.5736 260.512 77.7961 260.512C77.0186 260.512 76.2523 260.349 75.5601 260.036L72.9309 258.76C71.6967 258.133 71.6967 257.11 72.9309 256.483Z" fill="black"/>
<path opacity="0.3" d="M85.4257 263.046L244.729 181.829C245.346 181.517 246.038 181.336 246.748 181.301C247.458 181.266 248.168 181.378 248.821 181.628L290.287 202.768C291.31 203.29 291.132 204.223 289.898 204.858L130.78 285.962C130.161 286.272 129.468 286.452 128.757 286.487C128.046 286.522 127.335 286.411 126.68 286.164L85.0368 265.121C84.0139 264.606 84.1914 263.673 85.4257 263.046Z" fill="#263238"/>
<path d="M223.468 215.943L228.455 213.398C228.667 213.286 228.684 213.122 228.498 213.024L223.721 210.591C223.609 210.544 223.486 210.52 223.362 210.52C223.238 210.52 223.115 210.544 223.003 210.591L218.015 213.136C217.795 213.248 217.778 213.413 217.973 213.51L222.741 215.936C222.854 215.985 222.978 216.011 223.103 216.012C223.229 216.013 223.354 215.99 223.468 215.943ZM216.181 207.142L211.193 209.68C210.981 209.792 210.965 209.956 211.151 210.053L215.927 212.487C216.039 212.534 216.162 212.558 216.286 212.558C216.41 212.558 216.533 212.534 216.646 212.487L221.633 209.942C221.845 209.837 221.87 209.673 221.676 209.576L216.916 207.12C216.801 207.071 216.673 207.047 216.545 207.051C216.417 207.055 216.292 207.086 216.181 207.142ZM200.068 215.353L191.614 219.661C191.394 219.765 191.377 219.937 191.563 220.026L196.34 222.46C196.452 222.511 196.577 222.538 196.703 222.538C196.829 222.538 196.954 222.511 197.067 222.46L205.52 218.16C205.732 218.048 205.749 217.884 205.52 217.787L200.752 215.353C200.645 215.311 200.528 215.289 200.41 215.289C200.292 215.289 200.175 215.311 200.068 215.353ZM208.893 210.875L203.906 213.413C203.694 213.525 203.677 213.689 203.863 213.786L208.631 216.219C208.745 216.267 208.869 216.292 208.995 216.292C209.121 216.292 209.245 216.267 209.358 216.219L214.346 213.674C214.557 213.569 214.574 213.405 214.388 213.308L209.62 210.875C209.509 210.821 209.385 210.792 209.259 210.789C209.133 210.787 209.007 210.811 208.893 210.86V210.875ZM189.323 220.833L184.335 223.378C184.124 223.483 184.107 223.647 184.293 223.744L189.069 226.177C189.18 226.228 189.303 226.255 189.429 226.255C189.554 226.255 189.677 226.228 189.788 226.177L194.776 223.639C194.987 223.527 195.012 223.363 194.818 223.266L190.05 220.833C189.936 220.785 189.812 220.76 189.686 220.76C189.561 220.76 189.436 220.785 189.323 220.833ZM182.036 224.565L177.048 227.11C176.837 227.215 176.82 227.379 177.006 227.476L181.774 229.91C181.886 229.961 182.011 229.987 182.137 229.987C182.264 229.987 182.388 229.961 182.501 229.91L187.488 227.364C187.7 227.26 187.717 227.095 187.531 226.998L182.763 224.565C182.652 224.512 182.528 224.482 182.401 224.48C182.275 224.477 182.149 224.501 182.036 224.55V224.565ZM200.735 234.493L205.723 231.948C205.935 231.843 205.96 231.671 205.765 231.582L200.998 229.118C200.885 229.067 200.76 229.041 200.634 229.041C200.508 229.041 200.383 229.067 200.271 229.118L195.283 231.656C195.071 231.768 195.055 231.933 195.283 232.03L200.059 234.463C200.165 234.507 200.279 234.53 200.396 234.533C200.512 234.536 200.628 234.517 200.735 234.478V234.493ZM193.448 238.225L198.436 235.68C198.647 235.568 198.664 235.404 198.478 235.307L193.71 232.851C193.597 232.803 193.473 232.778 193.347 232.778C193.221 232.778 193.097 232.803 192.983 232.851L187.996 235.396C187.784 235.508 187.767 235.672 187.996 235.769L192.764 238.203C192.872 238.244 192.989 238.265 193.107 238.263C193.225 238.262 193.341 238.239 193.448 238.196V238.225ZM186.161 241.958L191.149 239.412C191.36 239.3 191.377 239.136 191.149 239.039L186.415 236.583C186.302 236.537 186.18 236.512 186.055 236.512C185.931 236.512 185.809 236.537 185.696 236.583L180.708 239.129C180.489 239.241 180.472 239.405 180.708 239.494L185.476 241.928C185.585 241.968 185.703 241.987 185.821 241.984C185.938 241.982 186.054 241.957 186.161 241.913V241.958ZM178.866 245.69L183.853 243.152C184.065 243.04 184.09 242.876 183.896 242.779L179.128 240.315C179.014 240.268 178.89 240.243 178.764 240.243C178.638 240.243 178.514 240.268 178.401 240.315L173.413 242.861C173.201 242.965 173.185 243.137 173.413 243.227L178.189 245.66C178.299 245.701 178.418 245.718 178.536 245.712C178.655 245.705 178.771 245.675 178.874 245.623L178.866 245.69ZM216.172 219.72L221.16 217.182C221.371 217.07 221.397 216.906 221.202 216.809L216.434 214.376C216.321 214.328 216.196 214.303 216.071 214.303C215.945 214.303 215.821 214.328 215.707 214.376L210.719 216.921C210.508 217.026 210.491 217.197 210.677 217.287L215.454 219.72C215.571 219.761 215.697 219.777 215.822 219.765C215.947 219.753 216.067 219.715 216.172 219.653V219.72ZM208.031 230.828L219.156 225.155C219.368 225.043 219.385 224.878 219.199 224.781L207.617 218.81C207.503 218.762 207.379 218.737 207.253 218.737C207.128 218.737 207.003 218.762 206.89 218.81L201.141 221.743C200.93 221.855 200.905 222.019 201.099 222.116L207.228 225.244C207.422 225.334 207.397 225.505 207.186 225.61L202.545 227.976C202.333 228.088 202.308 228.252 202.545 228.35L207.313 230.783C207.427 230.826 207.55 230.847 207.675 230.843C207.799 230.839 207.921 230.811 208.031 230.761V230.828ZM174.749 228.335L169.761 230.873C169.541 230.985 169.524 231.149 169.71 231.246L174.486 233.679C174.6 233.727 174.724 233.752 174.85 233.752C174.976 233.752 175.1 233.727 175.213 233.679L180.201 231.134C180.413 231.029 180.429 230.865 180.243 230.768L175.492 228.245C175.376 228.194 175.247 228.169 175.117 228.173C174.987 228.176 174.86 228.209 174.749 228.267V228.335ZM167.453 232.067L162.465 234.605C162.254 234.717 162.237 234.881 162.423 234.978L167.199 237.412C167.312 237.458 167.434 237.482 167.559 237.482C167.683 237.482 167.805 237.458 167.918 237.412L172.906 234.866C173.117 234.762 173.142 234.59 172.948 234.5L168.18 232.067C168.075 232.003 167.954 231.962 167.828 231.947C167.701 231.933 167.573 231.946 167.453 231.985V232.067ZM127.111 271.667C127.224 271.718 127.348 271.745 127.475 271.745C127.601 271.745 127.726 271.718 127.838 271.667L132.826 269.129C133.037 269.017 133.054 268.853 132.868 268.756L128.1 266.323C127.987 266.275 127.863 266.25 127.737 266.25C127.611 266.25 127.487 266.275 127.373 266.323L122.386 268.868C122.174 268.973 122.157 269.144 122.343 269.234L127.111 271.667ZM109.139 261.724L104.151 264.262C103.931 264.374 103.914 264.539 104.109 264.636L108.876 267.069C108.99 267.117 109.114 267.142 109.24 267.142C109.366 267.142 109.49 267.117 109.604 267.069L114.591 264.524C114.803 264.419 114.82 264.247 114.591 264.158L109.815 261.724C109.71 261.678 109.595 261.654 109.478 261.652C109.361 261.651 109.245 261.673 109.139 261.717V261.724ZM118.379 269.189C118.492 269.237 118.616 269.262 118.742 269.262C118.868 269.262 118.992 269.237 119.106 269.189L124.093 266.644C124.305 266.539 124.322 266.375 124.136 266.278L119.359 263.844C119.248 263.793 119.125 263.767 119 263.767C118.875 263.767 118.752 263.793 118.641 263.844L113.653 266.382C113.442 266.494 113.416 266.659 113.653 266.756L118.379 269.189ZM138.49 273.16L143.478 270.615C143.689 270.51 143.715 270.346 143.52 270.249L138.752 267.816C138.64 267.764 138.515 267.738 138.389 267.738C138.262 267.738 138.138 267.764 138.025 267.816L133.037 270.354C132.826 270.466 132.809 270.63 132.995 270.727L137.772 273.16C137.884 273.207 138.007 273.231 138.131 273.231C138.255 273.231 138.378 273.207 138.49 273.16ZM130.476 276.893C130.59 276.94 130.714 276.965 130.839 276.965C130.965 276.965 131.089 276.94 131.203 276.893L136.191 274.347C136.402 274.243 136.419 274.078 136.233 273.981L131.465 271.548C131.353 271.497 131.228 271.47 131.102 271.47C130.975 271.47 130.85 271.497 130.738 271.548L125.75 274.086C125.539 274.198 125.522 274.362 125.75 274.459L130.476 276.893ZM116.426 257.992L111.438 260.53C111.227 260.642 111.21 260.806 111.438 260.903L116.206 263.337C116.319 263.384 116.444 263.409 116.569 263.409C116.695 263.409 116.819 263.384 116.933 263.337L121.921 260.791C122.132 260.687 122.149 260.523 121.921 260.425L117.161 257.977C117.046 257.928 116.918 257.905 116.79 257.909C116.662 257.912 116.537 257.944 116.426 257.999V257.992ZM152.879 239.405L147.891 241.95C147.671 242.062 147.654 242.226 147.84 242.324L152.616 244.75C152.73 244.797 152.854 244.822 152.98 244.822C153.106 244.822 153.23 244.797 153.343 244.75L158.331 242.204C158.543 242.092 158.559 241.928 158.373 241.831L153.597 239.405C153.485 239.356 153.362 239.331 153.237 239.333C153.112 239.334 152.989 239.361 152.879 239.412V239.405ZM123.713 254.275L118.725 256.82C118.514 256.924 118.497 257.089 118.725 257.186L123.502 259.619C123.614 259.666 123.737 259.69 123.861 259.69C123.985 259.69 124.108 259.666 124.22 259.619L129.208 257.074C129.419 256.969 129.445 256.805 129.25 256.708L124.482 254.275C124.364 254.218 124.231 254.189 124.096 254.191C123.962 254.192 123.83 254.223 123.713 254.282V254.275ZM160.166 235.695L155.178 238.233C154.967 238.345 154.95 238.509 155.136 238.606L159.904 241.04C160.017 241.087 160.141 241.112 160.267 241.112C160.393 241.112 160.517 241.087 160.631 241.04L165.618 238.494C165.83 238.39 165.847 238.218 165.661 238.128L160.893 235.695C160.78 235.645 160.655 235.62 160.528 235.621C160.402 235.622 160.277 235.65 160.166 235.702V235.695ZM145.583 243.122L140.595 245.668C140.384 245.772 140.367 245.944 140.553 246.033L145.329 248.467C145.44 248.518 145.563 248.545 145.689 248.545C145.814 248.545 145.937 248.518 146.048 248.467L151.036 245.929C151.247 245.817 151.272 245.653 151.078 245.556L146.31 243.122C146.196 243.076 146.071 243.052 145.945 243.053C145.82 243.055 145.696 243.081 145.583 243.13V243.122ZM138.296 246.855L133.308 249.4C133.097 249.505 133.08 249.669 133.308 249.766L138.076 252.199C138.188 252.25 138.313 252.277 138.439 252.277C138.566 252.277 138.691 252.25 138.803 252.199L143.791 249.661C144.002 249.549 144.019 249.385 143.833 249.288L139.065 246.855C138.947 246.8 138.815 246.77 138.681 246.769C138.548 246.768 138.415 246.795 138.296 246.847V246.855ZM131.009 250.587L126.021 253.132C125.801 253.237 125.784 253.401 125.97 253.498L130.746 255.932C130.859 255.983 130.984 256.009 131.11 256.009C131.236 256.009 131.361 255.983 131.473 255.932L136.461 253.386C136.673 253.282 136.689 253.117 136.461 253.02L131.685 250.587C131.58 250.542 131.466 250.517 131.349 250.513C131.233 250.51 131.117 250.527 131.009 250.565V250.587ZM164.291 253.08L169.279 250.535C169.49 250.43 169.507 250.266 169.279 250.169L164.503 247.735C164.39 247.689 164.267 247.665 164.143 247.665C164.019 247.665 163.896 247.689 163.784 247.735L158.796 250.281C158.576 250.385 158.559 250.55 158.754 250.647L163.522 253.08C163.642 253.134 163.775 253.161 163.91 253.157C164.044 253.153 164.176 253.119 164.291 253.058V253.08ZM232.294 198.946L227.306 201.491C227.094 201.596 227.078 201.768 227.264 201.857L232.04 204.291C232.152 204.342 232.277 204.368 232.403 204.368C232.53 204.368 232.654 204.342 232.767 204.291L237.755 201.753C237.966 201.641 237.983 201.477 237.797 201.379L233.021 198.946C232.909 198.895 232.786 198.866 232.66 198.862C232.534 198.858 232.409 198.879 232.294 198.924V198.946ZM223.476 203.425L218.488 205.97C218.269 206.075 218.252 206.239 218.438 206.336L223.214 208.77C223.327 208.821 223.451 208.847 223.578 208.847C223.704 208.847 223.829 208.821 223.941 208.77L228.929 206.224C229.14 206.12 229.157 205.955 228.971 205.858L224.195 203.425C224.082 203.378 223.96 203.354 223.835 203.354C223.711 203.354 223.589 203.378 223.476 203.425ZM239.589 195.214L234.601 197.759C234.39 197.871 234.365 198.035 234.559 198.132L239.327 200.558C239.441 200.606 239.565 200.631 239.691 200.631C239.816 200.631 239.941 200.606 240.054 200.558L245.042 198.013C245.253 197.901 245.27 197.737 245.084 197.64L240.308 195.206C240.195 195.16 240.073 195.135 239.948 195.135C239.824 195.135 239.702 195.16 239.589 195.206V195.214ZM199.29 228.267L204.278 225.729C204.489 225.617 204.514 225.453 204.278 225.356L199.51 222.923C199.396 222.875 199.272 222.85 199.146 222.85C199.02 222.85 198.896 222.875 198.783 222.923L193.795 225.468C193.584 225.573 193.567 225.737 193.795 225.834L198.571 228.267C198.683 228.317 198.807 228.343 198.932 228.341C199.057 228.34 199.18 228.312 199.29 228.26V228.267ZM247.603 191.481C247.491 191.43 247.366 191.404 247.24 191.404C247.113 191.404 246.989 191.43 246.876 191.481L241.889 194.019C241.677 194.131 241.66 194.295 241.846 194.393L246.614 196.826C246.728 196.874 246.852 196.899 246.978 196.899C247.104 196.899 247.228 196.874 247.341 196.826L252.329 194.281C252.54 194.176 252.566 194.004 252.371 193.915L247.603 191.481ZM171.578 249.348L176.566 246.81C176.777 246.698 176.794 246.534 176.566 246.437L171.798 244.003C171.685 243.955 171.56 243.931 171.435 243.931C171.309 243.931 171.185 243.955 171.071 244.003L166.083 246.549C165.872 246.653 165.855 246.817 166.083 246.914L170.851 249.348C170.964 249.398 171.089 249.423 171.216 249.422C171.342 249.421 171.467 249.393 171.578 249.34V249.348ZM260.977 203.813L265.965 201.268C266.176 201.163 266.193 200.991 266.007 200.902L261.239 198.468C261.127 198.417 261.002 198.391 260.876 198.391C260.749 198.391 260.625 198.417 260.512 198.468L255.525 201.006C255.313 201.118 255.288 201.282 255.482 201.379L260.25 203.813C260.37 203.849 260.498 203.862 260.623 203.849C260.749 203.836 260.87 203.798 260.977 203.738V203.813ZM246.868 204.052L251.856 201.506C252.067 201.402 252.092 201.238 251.898 201.141L247.13 198.707C247.016 198.659 246.892 198.635 246.766 198.635C246.641 198.635 246.516 198.659 246.403 198.707L241.415 201.253C241.204 201.357 241.187 201.521 241.373 201.618L246.149 204.052C246.264 204.096 246.39 204.115 246.515 204.107C246.64 204.1 246.761 204.065 246.868 204.007V204.052ZM254.417 194.99C254.304 194.942 254.179 194.917 254.054 194.917C253.928 194.917 253.804 194.942 253.69 194.99L248.702 197.535C248.491 197.64 248.474 197.804 248.66 197.901L253.436 200.334C253.549 200.385 253.674 200.412 253.8 200.412C253.926 200.412 254.051 200.385 254.163 200.334L259.185 197.767C259.396 197.655 259.413 197.49 259.227 197.393L254.417 194.99ZM255.956 194.206L267.546 200.118C267.658 200.165 267.781 200.189 267.905 200.189C268.029 200.189 268.152 200.165 268.264 200.118L273.252 197.572C273.464 197.468 273.489 197.304 273.294 197.207L261.721 191.227C261.609 191.181 261.486 191.157 261.362 191.157C261.238 191.157 261.115 191.181 261.003 191.227L256.015 193.773C255.804 193.9 255.804 194.072 255.956 194.161V194.206ZM239.116 202.417L234.128 204.963C233.917 205.067 233.891 205.231 234.086 205.328L238.854 207.762C238.967 207.81 239.091 207.834 239.217 207.834C239.343 207.834 239.467 207.81 239.581 207.762L244.568 205.216C244.78 205.112 244.797 204.948 244.611 204.851L239.843 202.417C239.732 202.364 239.608 202.334 239.481 202.332C239.355 202.329 239.23 202.353 239.116 202.402V202.417ZM184.251 230.387L179.263 232.933C179.051 233.037 179.026 233.202 179.221 233.299L183.989 235.732C184.101 235.783 184.226 235.81 184.352 235.81C184.478 235.81 184.603 235.783 184.716 235.732L189.703 233.187C189.915 233.082 189.932 232.918 189.746 232.821L184.969 230.387C184.86 230.334 184.737 230.305 184.612 230.302C184.487 230.3 184.363 230.324 184.251 230.372V230.387ZM252.963 207.523C253.077 207.571 253.201 207.595 253.327 207.595C253.452 207.595 253.577 207.571 253.69 207.523L258.678 204.977C258.889 204.873 258.906 204.701 258.72 204.612L253.944 202.178C253.833 202.127 253.71 202.101 253.584 202.101C253.459 202.101 253.336 202.127 253.225 202.178L248.237 204.716C248.018 204.828 248.001 204.992 248.187 205.089L252.963 207.523ZM191.555 226.655L186.567 229.201C186.356 229.305 186.339 229.469 186.525 229.566L191.293 232C191.405 232.051 191.53 232.078 191.656 232.078C191.783 232.078 191.907 232.051 192.02 232L197.007 229.462C197.219 229.35 197.236 229.186 197.007 229.089L192.239 226.655C192.132 226.613 192.015 226.591 191.897 226.591C191.779 226.591 191.662 226.613 191.555 226.655ZM134.407 267.935C134.518 267.985 134.641 268.011 134.766 268.011C134.891 268.011 135.014 267.985 135.126 267.935L140.113 265.39C140.325 265.278 140.35 265.113 140.113 265.016L135.345 262.59C135.232 262.542 135.108 262.518 134.982 262.518C134.856 262.518 134.732 262.542 134.618 262.59L129.631 265.136C129.419 265.248 129.402 265.412 129.588 265.509L134.407 267.935ZM125.953 260.097L120.965 262.642C120.754 262.747 120.737 262.911 120.923 263.008L125.691 265.442C125.805 265.49 125.929 265.514 126.055 265.514C126.18 265.514 126.305 265.49 126.418 265.442L131.406 262.896C131.617 262.792 131.634 262.628 131.448 262.531L126.68 260.097C126.564 260.043 126.434 260.016 126.303 260.017C126.172 260.018 126.043 260.048 125.928 260.104L125.953 260.097ZM142.447 264.203L147.434 261.657C147.646 261.553 147.663 261.381 147.477 261.291L142.7 258.858C142.589 258.807 142.466 258.78 142.341 258.78C142.216 258.78 142.093 258.807 141.982 258.858L136.994 261.396C136.782 261.508 136.757 261.672 136.952 261.769L141.677 264.203C141.793 264.253 141.92 264.279 142.049 264.279C142.178 264.279 142.305 264.253 142.421 264.203H142.447ZM149.734 260.47L154.721 257.925C154.933 257.82 154.95 257.656 154.721 257.559L149.954 255.126C149.841 255.074 149.716 255.048 149.59 255.048C149.464 255.048 149.339 255.074 149.226 255.126L144.239 257.664C144.027 257.775 144.01 257.94 144.196 258.037L148.964 260.47C149.08 260.52 149.207 260.546 149.336 260.546C149.465 260.546 149.593 260.52 149.708 260.47H149.734ZM157.021 256.738L162.009 254.192C162.22 254.088 162.245 253.924 162.009 253.827L157.241 251.393C157.128 251.342 157.004 251.315 156.877 251.315C156.751 251.315 156.626 251.342 156.514 251.393L151.526 253.931C151.315 254.043 151.298 254.207 151.526 254.304L156.302 256.738C156.408 256.787 156.525 256.816 156.644 256.822C156.764 256.829 156.884 256.813 156.996 256.775L157.021 256.738ZM133.223 256.387L128.236 258.933C128.024 259.037 128.007 259.201 128.193 259.298L132.97 261.732C133.081 261.783 133.204 261.809 133.329 261.809C133.454 261.809 133.577 261.783 133.688 261.732L138.676 259.186C138.887 259.082 138.913 258.918 138.718 258.821L133.95 256.387C133.837 256.339 133.713 256.315 133.587 256.315C133.461 256.315 133.337 256.339 133.223 256.387ZM140.519 252.655L135.531 255.2C135.32 255.305 135.295 255.469 135.489 255.566L140.257 257.999C140.369 258.051 140.494 258.077 140.621 258.077C140.747 258.077 140.872 258.051 140.984 257.999L145.972 255.461C146.183 255.349 146.2 255.185 146.014 255.088L141.238 252.655C141.123 252.609 140.998 252.587 140.872 252.59C140.746 252.592 140.623 252.62 140.511 252.67L140.519 252.655ZM169.676 237.792L164.688 240.33C164.477 240.442 164.46 240.607 164.646 240.704L169.414 243.137C169.528 243.185 169.652 243.21 169.778 243.21C169.903 243.21 170.028 243.185 170.141 243.137L175.129 240.592C175.34 240.487 175.357 240.316 175.171 240.226L170.42 237.785C170.302 237.733 170.172 237.709 170.041 237.712C169.909 237.716 169.781 237.749 169.668 237.807L169.676 237.792ZM162.389 241.525L157.401 244.063C157.19 244.175 157.165 244.339 157.359 244.436L162.127 246.87C162.241 246.917 162.365 246.942 162.49 246.942C162.616 246.942 162.74 246.917 162.854 246.87L167.842 244.324C168.053 244.22 168.07 244.048 167.884 243.958L163.108 241.525C162.996 241.472 162.871 241.445 162.744 241.445C162.617 241.445 162.493 241.472 162.381 241.525H162.389ZM176.963 234.06L171.976 236.598C171.764 236.71 171.747 236.874 171.933 236.971L176.71 239.405C176.822 239.451 176.945 239.476 177.069 239.476C177.193 239.476 177.316 239.451 177.428 239.405L182.416 236.859C182.627 236.755 182.653 236.591 182.416 236.494L177.648 234.06C177.538 234.018 177.418 233.999 177.298 234.005C177.178 234.01 177.06 234.039 176.955 234.09L176.963 234.06ZM147.806 248.922L142.819 251.468C142.607 251.572 142.59 251.744 142.776 251.834L147.544 254.267C147.657 254.318 147.781 254.345 147.908 254.345C148.034 254.345 148.159 254.318 148.271 254.267L153.259 251.729C153.47 251.617 153.487 251.453 153.301 251.356L148.533 248.922C148.416 248.878 148.289 248.858 148.162 248.863C148.034 248.868 147.91 248.899 147.798 248.952L147.806 248.922ZM155.093 245.19L150.131 247.78C149.92 247.892 149.903 248.056 150.089 248.153L154.865 250.579C154.977 250.629 155.1 250.655 155.224 250.655C155.349 250.655 155.472 250.629 155.584 250.579L160.571 248.034C160.783 247.922 160.808 247.758 160.614 247.661L155.846 245.235C155.728 245.182 155.598 245.155 155.465 245.155C155.333 245.155 155.203 245.182 155.085 245.235L155.093 245.19ZM145.794 269.398L150.782 266.853C150.993 266.748 151.01 266.584 150.824 266.487L146.048 264.053C145.937 264.002 145.814 263.976 145.689 263.976C145.563 263.976 145.44 264.002 145.329 264.053L140.342 266.599C140.122 266.703 140.105 266.868 140.291 266.965L145.067 269.398C145.176 269.453 145.298 269.484 145.422 269.489C145.547 269.494 145.672 269.473 145.786 269.428L145.794 269.398ZM107.346 267.793L102.578 265.367C102.465 265.319 102.341 265.295 102.215 265.295C102.089 265.295 101.965 265.319 101.851 265.367L96.8636 267.913C96.6523 268.025 96.6354 268.189 96.8636 268.286L101.64 270.719C101.752 270.766 101.875 270.79 101.999 270.79C102.124 270.79 102.246 270.766 102.359 270.719L107.346 268.174C107.507 268.099 107.532 267.935 107.338 267.838L107.346 267.793ZM116.848 269.906L112.089 267.517C111.976 267.466 111.852 267.439 111.725 267.439C111.599 267.439 111.474 267.466 111.362 267.517L103.694 271.428C103.483 271.533 103.458 271.697 103.652 271.794L108.42 274.228C108.532 274.279 108.657 274.305 108.783 274.305C108.91 274.305 109.035 274.279 109.147 274.228L116.815 270.316C117.009 270.212 117.034 270.04 116.84 269.95L116.848 269.906ZM100.254 263.038L95.4772 260.605C95.3663 260.554 95.243 260.527 95.1179 260.527C94.9928 260.527 94.8696 260.554 94.7586 260.605L88.6212 263.732C88.4098 263.844 88.3845 264.009 88.5705 264.106L93.3469 266.532C93.4604 266.579 93.5846 266.604 93.7104 266.604C93.8362 266.604 93.9603 266.579 94.0739 266.532L100.211 263.396C100.389 263.299 100.406 263.135 100.254 263.038ZM104.962 260.634C105.073 260.686 105.197 260.712 105.322 260.712C105.447 260.712 105.57 260.686 105.681 260.634L110.669 258.096C110.88 257.985 110.905 257.82 110.711 257.723L105.909 255.245C105.796 255.197 105.671 255.172 105.546 255.172C105.42 255.172 105.296 255.197 105.182 255.245L100.194 257.79C99.9831 257.895 99.9662 258.067 100.152 258.156L104.962 260.634ZM125.615 272.414L120.839 269.98C120.726 269.934 120.604 269.91 120.479 269.91C120.355 269.91 120.232 269.934 120.12 269.98L110.525 274.87C110.314 274.982 110.297 275.146 110.483 275.243L115.251 277.676C115.364 277.724 115.488 277.749 115.614 277.749C115.74 277.749 115.864 277.724 115.978 277.676L125.573 272.787C125.75 272.705 125.767 272.541 125.615 272.414ZM128.997 277.639L124.22 275.206C124.109 275.155 123.986 275.128 123.861 275.128C123.736 275.128 123.613 275.155 123.502 275.206L117.305 278.386C117.094 278.49 117.077 278.654 117.305 278.751L122.081 281.185C122.192 281.236 122.316 281.263 122.441 281.263C122.566 281.263 122.689 281.236 122.8 281.185L128.946 278.057C129.115 277.945 129.132 277.773 128.946 277.684L128.997 277.639ZM159.177 232.963C159.29 233.01 159.414 233.035 159.54 233.035C159.666 233.035 159.79 233.01 159.904 232.963L164.891 230.417C165.103 230.313 165.12 230.149 164.891 230.051L160.107 227.625C159.996 227.574 159.872 227.548 159.747 227.548C159.622 227.548 159.499 227.574 159.388 227.625L154.4 230.163C154.189 230.275 154.164 230.44 154.358 230.537L159.177 232.963ZM144.594 240.427C144.707 240.475 144.832 240.5 144.957 240.5C145.083 240.5 145.207 240.475 145.321 240.427L150.309 237.882C150.52 237.77 150.545 237.606 150.309 237.509L145.532 235.09C145.419 235.042 145.294 235.018 145.169 235.018C145.043 235.018 144.919 235.042 144.805 235.09L139.817 237.636C139.606 237.748 139.589 237.912 139.775 238.009L144.594 240.427ZM112.266 256.91C112.38 256.957 112.504 256.982 112.63 256.982C112.756 256.982 112.88 256.957 112.993 256.91L117.981 254.364C118.193 254.252 118.209 254.088 118.024 253.991L113.247 251.565C113.136 251.514 113.013 251.487 112.888 251.487C112.763 251.487 112.639 251.514 112.529 251.565L107.541 254.103C107.329 254.215 107.304 254.379 107.49 254.476L112.266 256.91ZM151.822 236.725C151.935 236.773 152.06 236.798 152.185 236.798C152.311 236.798 152.435 236.773 152.549 236.725L157.537 234.179C157.748 234.075 157.765 233.903 157.579 233.814L152.819 231.358C152.707 231.307 152.582 231.28 152.456 231.28C152.329 231.28 152.205 231.307 152.092 231.358L147.105 233.896C146.893 234.008 146.876 234.172 147.105 234.269L151.822 236.725ZM137.239 244.152C137.351 244.203 137.476 244.23 137.603 244.23C137.729 244.23 137.854 244.203 137.966 244.152L142.954 241.614C143.165 241.502 143.182 241.338 142.996 241.241L138.237 238.823C138.124 238.776 138.001 238.752 137.877 238.752C137.753 238.752 137.63 238.776 137.518 238.823L132.53 241.368C132.319 241.473 132.294 241.644 132.488 241.734L137.239 244.152ZM132.505 277.938C132.391 277.89 132.267 277.865 132.141 277.865C132.016 277.865 131.891 277.89 131.778 277.938L124.11 281.849C123.899 281.961 123.874 282.125 124.068 282.222L128.836 284.656C128.949 284.704 129.074 284.729 129.199 284.729C129.325 284.729 129.449 284.704 129.563 284.656L137.239 280.744C137.45 280.632 137.467 280.468 137.239 280.371L132.505 277.938ZM126.782 249.49C126.894 249.536 127.017 249.56 127.141 249.56C127.265 249.56 127.388 249.536 127.5 249.49L132.488 246.944C132.699 246.84 132.725 246.675 132.488 246.578L127.72 244.145C127.608 244.094 127.483 244.067 127.356 244.067C127.23 244.067 127.105 244.094 126.993 244.145L122.005 246.683C121.794 246.795 121.777 246.959 121.963 247.056L126.782 249.49ZM119.486 253.222C119.6 253.27 119.724 253.295 119.85 253.295C119.975 253.295 120.099 253.27 120.213 253.222L125.201 250.677C125.412 250.572 125.429 250.4 125.243 250.311L120.475 247.877C120.363 247.826 120.238 247.8 120.112 247.8C119.985 247.8 119.861 247.826 119.748 247.877L114.76 250.415C114.549 250.527 114.532 250.691 114.718 250.789L119.486 253.222ZM267.563 209.105C267.45 209.054 267.326 209.028 267.199 209.028C267.073 209.028 266.948 209.054 266.836 209.105L254.561 215.361C254.349 215.473 254.333 215.637 254.519 215.734L259.286 218.168C259.4 218.215 259.524 218.24 259.65 218.24C259.776 218.24 259.9 218.215 260.014 218.168L272.288 211.905C272.5 211.8 272.525 211.636 272.331 211.539L267.563 209.105ZM251.45 217.317C251.336 217.269 251.212 217.244 251.086 217.244C250.961 217.244 250.836 217.269 250.723 217.317L245.735 219.862C245.524 219.967 245.507 220.138 245.693 220.228L250.461 222.661C250.573 222.712 250.698 222.739 250.824 222.739C250.951 222.739 251.075 222.712 251.188 222.661L256.176 220.123C256.387 220.011 256.404 219.847 256.218 219.75L251.45 217.317ZM153.073 265.696L158.061 263.158C158.272 263.046 158.289 262.881 158.103 262.784L153.335 260.351C153.221 260.303 153.097 260.278 152.972 260.278C152.846 260.278 152.722 260.303 152.608 260.351L147.62 262.896C147.409 263.001 147.392 263.165 147.578 263.262L152.346 265.696C152.458 265.747 152.583 265.773 152.709 265.773C152.836 265.773 152.961 265.747 153.073 265.696ZM236.884 224.707C236.77 224.659 236.646 224.634 236.52 224.634C236.395 224.634 236.27 224.659 236.157 224.707L231.169 227.252C230.958 227.357 230.941 227.521 231.127 227.618L235.903 230.051C236.014 230.103 236.137 230.129 236.263 230.129C236.388 230.129 236.511 230.103 236.622 230.051L241.61 227.506C241.829 227.402 241.846 227.237 241.66 227.14L236.884 224.707ZM274.867 205.343C274.756 205.292 274.633 205.266 274.508 205.266C274.382 205.266 274.259 205.292 274.148 205.343L269.161 207.881C268.949 207.993 268.924 208.157 269.118 208.254L273.886 210.688C274 210.736 274.124 210.761 274.25 210.761C274.376 210.761 274.5 210.736 274.613 210.688L279.601 208.143C279.812 208.038 279.829 207.874 279.643 207.777L274.867 205.343ZM286.93 204.059L275.34 198.147C275.228 198.101 275.105 198.076 274.981 198.076C274.857 198.076 274.734 198.101 274.622 198.147L269.634 200.693C269.414 200.805 269.397 200.969 269.583 201.059L281.165 207.023C281.277 207.074 281.402 207.101 281.528 207.101C281.655 207.101 281.78 207.074 281.892 207.023L286.88 204.477C287.083 204.35 287.083 204.186 286.93 204.089V204.059ZM209.646 238.621C209.532 238.573 209.408 238.548 209.282 238.548C209.157 238.548 209.032 238.573 208.919 238.621L202.781 241.756C202.57 241.861 202.545 242.025 202.739 242.122L207.507 244.555C207.619 244.607 207.744 244.633 207.87 244.633C207.997 244.633 208.122 244.607 208.234 244.555L214.371 241.428C214.583 241.316 214.6 241.152 214.414 241.054L209.646 238.621ZM228.058 229.238C227.947 229.187 227.824 229.16 227.699 229.16C227.574 229.16 227.451 229.187 227.34 229.238L219.664 233.149C219.452 233.254 219.435 233.418 219.621 233.515L224.389 235.949C224.502 236 224.626 236.026 224.753 236.026C224.879 236.026 225.004 236 225.116 235.949L232.792 232.037C233.004 231.933 233.021 231.768 232.835 231.671L228.058 229.238ZM192.764 247.228C192.65 247.18 192.526 247.155 192.4 247.155C192.274 247.155 192.15 247.18 192.037 247.228L150.985 268.129C150.774 268.241 150.748 268.405 150.985 268.502L155.753 270.936C155.866 270.984 155.991 271.008 156.116 271.008C156.242 271.008 156.366 270.984 156.48 270.936L197.472 250.02C197.684 249.908 197.701 249.743 197.472 249.646L192.764 247.228ZM149.404 269.331C149.29 269.283 149.166 269.258 149.041 269.258C148.915 269.258 148.791 269.283 148.677 269.331L142.523 272.488C142.311 272.593 142.294 272.757 142.48 272.854L147.257 275.288C147.368 275.339 147.491 275.365 147.616 275.365C147.741 275.365 147.864 275.339 147.975 275.288L154.121 272.16C154.333 272.048 154.349 271.884 154.121 271.787L149.404 269.331ZM201.2 242.928C201.09 242.877 200.966 242.85 200.841 242.85C200.716 242.85 200.593 242.877 200.482 242.928L194.336 246.056C194.125 246.168 194.108 246.332 194.336 246.429L199.112 248.855C199.224 248.905 199.347 248.931 199.472 248.931C199.596 248.931 199.72 248.905 199.831 248.855L205.977 245.72C206.188 245.615 206.205 245.451 206.019 245.354L201.2 242.928ZM140.967 273.638C140.855 273.587 140.73 273.56 140.604 273.56C140.477 273.56 140.353 273.587 140.24 273.638L134.069 276.788C133.857 276.9 133.832 277.064 134.069 277.161L138.837 279.587C138.95 279.635 139.075 279.66 139.2 279.66C139.326 279.66 139.45 279.635 139.564 279.587L145.701 276.452C145.913 276.348 145.93 276.184 145.744 276.086L140.967 273.638ZM218.083 234.344C217.97 234.293 217.846 234.266 217.719 234.266C217.593 234.266 217.468 234.293 217.356 234.344L211.218 237.471C211.007 237.583 210.99 237.748 211.176 237.845L215.952 240.278C216.065 240.325 216.187 240.349 216.312 240.349C216.436 240.349 216.558 240.325 216.671 240.278L222.817 237.143C223.028 237.038 223.045 236.874 222.817 236.777L218.083 234.344ZM244.171 221.042C244.059 220.995 243.936 220.971 243.812 220.971C243.688 220.971 243.565 220.995 243.453 221.042L238.465 223.587C238.253 223.692 238.228 223.856 238.423 223.953L243.19 226.386C243.303 226.437 243.428 226.464 243.554 226.464C243.68 226.464 243.805 226.437 243.917 226.386L248.905 223.848C249.117 223.736 249.133 223.572 248.948 223.475L244.171 221.042ZM260.504 210.979L265.492 208.441C265.703 208.329 265.72 208.165 265.534 208.068L260.766 205.634C260.652 205.587 260.528 205.562 260.402 205.562C260.277 205.562 260.152 205.587 260.039 205.634L255.051 208.18C254.84 208.284 254.823 208.449 255.009 208.546L259.777 210.979C259.891 211.027 260.017 211.05 260.143 211.046C260.27 211.042 260.393 211.011 260.504 210.957V210.979ZM230.755 212.248L235.743 209.703C235.954 209.598 235.971 209.426 235.785 209.329L231.017 206.903C230.905 206.852 230.78 206.826 230.653 206.826C230.527 206.826 230.402 206.852 230.29 206.903L225.302 209.441C225.091 209.553 225.074 209.718 225.26 209.815L230.028 212.248C230.143 212.292 230.269 212.313 230.394 212.31C230.52 212.306 230.643 212.277 230.755 212.226V212.248ZM211.396 236.016L225.97 228.588C226.181 228.476 226.207 228.312 226.012 228.215L221.244 225.782C221.131 225.734 221.007 225.709 220.881 225.709C220.755 225.709 220.631 225.734 220.517 225.782L205.935 233.246C205.723 233.351 205.706 233.515 205.935 233.612L210.711 236.046C210.822 236.083 210.942 236.097 211.06 236.088C211.179 236.079 211.293 236.047 211.396 235.993V236.016ZM252.49 214.719C252.602 214.77 252.727 214.797 252.853 214.797C252.98 214.797 253.104 214.77 253.217 214.719L258.204 212.173C258.416 212.069 258.433 211.905 258.247 211.808L253.47 209.374C253.358 209.328 253.235 209.303 253.111 209.303C252.987 209.303 252.864 209.328 252.752 209.374L247.764 211.92C247.544 212.024 247.527 212.188 247.713 212.285L252.49 214.719ZM246.394 211.203L251.382 208.658C251.594 208.546 251.619 208.381 251.424 208.284L246.657 205.858C246.543 205.811 246.419 205.786 246.293 205.786C246.167 205.786 246.043 205.811 245.93 205.858L240.942 208.404C240.73 208.516 240.714 208.68 240.899 208.777L245.659 211.203C245.773 211.255 245.899 211.283 246.027 211.283C246.155 211.283 246.281 211.255 246.394 211.203ZM204.125 239.711L209.113 237.165C209.325 237.061 209.35 236.897 209.113 236.8L204.362 234.344C204.249 234.296 204.124 234.271 203.999 234.271C203.873 234.271 203.749 234.296 203.635 234.344L198.647 236.889C198.436 236.994 198.419 237.158 198.647 237.255L203.424 239.688C203.527 239.737 203.642 239.764 203.759 239.768C203.876 239.772 203.993 239.752 204.1 239.711H204.125ZM236.36 222.915C236.472 222.962 236.595 222.986 236.719 222.986C236.843 222.986 236.966 222.962 237.078 222.915L242.066 220.37C242.286 220.265 242.303 220.094 242.117 220.004L237.34 217.57C237.228 217.519 237.103 217.493 236.977 217.493C236.85 217.493 236.726 217.519 236.613 217.57L231.626 220.108C231.414 220.22 231.397 220.385 231.583 220.482L236.36 222.915ZM167.639 258.291L172.627 255.753C172.838 255.641 172.855 255.476 172.669 255.379L167.884 252.946C167.772 252.899 167.649 252.875 167.525 252.875C167.401 252.875 167.278 252.899 167.165 252.946L162.178 255.491C161.958 255.603 161.941 255.767 162.127 255.857L166.903 258.291C167.019 258.345 167.148 258.374 167.28 258.374C167.411 258.374 167.54 258.345 167.656 258.291H167.639ZM174.926 254.558L179.914 252.013C180.125 251.901 180.142 251.737 179.956 251.639L175.205 249.273C175.093 249.222 174.968 249.195 174.841 249.195C174.715 249.195 174.59 249.222 174.478 249.273L169.49 251.811C169.279 251.923 169.262 252.087 169.448 252.184L174.216 254.618C174.333 254.66 174.458 254.678 174.584 254.672C174.71 254.665 174.833 254.634 174.943 254.581L174.926 254.558ZM160.343 261.986L165.331 259.448C165.542 259.336 165.568 259.171 165.373 259.074L160.605 256.641C160.492 256.593 160.368 256.568 160.242 256.568C160.116 256.568 159.992 256.593 159.878 256.641L154.891 259.186C154.679 259.291 154.662 259.463 154.848 259.552L159.625 261.986C159.736 262.043 159.861 262.075 159.989 262.078C160.118 262.082 160.245 262.058 160.36 262.008L160.343 261.986ZM189.509 247.123L194.497 244.578C194.708 244.473 194.725 244.309 194.539 244.212L189.779 241.808C189.667 241.757 189.542 241.731 189.416 241.731C189.289 241.731 189.165 241.757 189.052 241.808L184.065 244.346C183.853 244.458 183.836 244.623 184.065 244.72L188.841 247.153C188.949 247.194 189.066 247.215 189.184 247.213C189.302 247.212 189.419 247.189 189.526 247.146L189.509 247.123ZM182.213 250.856L187.201 248.31C187.412 248.206 187.438 248.034 187.201 247.944L182.492 245.541C182.38 245.49 182.255 245.463 182.129 245.463C182.002 245.463 181.878 245.49 181.765 245.541L176.777 248.079C176.566 248.191 176.549 248.355 176.735 248.452L181.512 250.886C181.629 250.932 181.757 250.954 181.886 250.951C182.015 250.947 182.142 250.917 182.255 250.863L182.213 250.856ZM196.796 243.391L201.784 240.845C201.995 240.741 202.012 240.577 201.784 240.48L197.075 238.076C196.963 238.025 196.838 237.998 196.711 237.998C196.585 237.998 196.46 238.025 196.348 238.076L191.36 240.622C191.149 240.726 191.124 240.89 191.318 240.987L196.086 243.421C196.199 243.47 196.323 243.496 196.448 243.497C196.574 243.498 196.699 243.475 196.813 243.428L196.796 243.391ZM236.58 191.69C236.691 191.741 236.814 191.768 236.939 191.768C237.064 191.768 237.187 191.741 237.298 191.69L242.286 189.145C242.497 189.04 242.523 188.876 242.328 188.779L241.06 188.13C240.947 188.082 240.822 188.057 240.697 188.057C240.571 188.057 240.447 188.082 240.333 188.13L235.345 190.675C235.134 190.78 235.117 190.944 235.303 191.041L236.58 191.69ZM200.347 211.95C200.459 211.996 200.582 212.02 200.706 212.02C200.83 212.02 200.953 211.996 201.065 211.95L206.053 209.404C206.264 209.3 206.29 209.128 206.095 209.038L201.327 206.605C201.215 206.554 201.09 206.527 200.964 206.527C200.837 206.527 200.713 206.554 200.6 206.605L195.612 209.143C195.401 209.255 195.384 209.419 195.612 209.516L200.347 211.95ZM214.921 204.485C215.035 204.533 215.159 204.557 215.284 204.557C215.41 204.557 215.534 204.533 215.648 204.485L220.636 201.939C220.847 201.835 220.864 201.671 220.678 201.574L215.91 199.14C215.798 199.089 215.673 199.062 215.547 199.062C215.42 199.062 215.295 199.089 215.183 199.14L210.195 201.686C209.984 201.79 209.967 201.954 210.153 202.051L214.921 204.485ZM191.445 216.428C191.557 216.475 191.68 216.499 191.804 216.499C191.928 216.499 192.051 216.475 192.163 216.428L197.151 213.883C197.362 213.778 197.388 213.607 197.193 213.517L192.425 211.084C192.313 211.033 192.188 211.006 192.062 211.006C191.935 211.006 191.811 211.033 191.698 211.084L186.711 213.622C186.499 213.734 186.482 213.898 186.711 213.995L191.445 216.428ZM207.617 208.269C207.73 208.317 207.855 208.342 207.98 208.342C208.106 208.342 208.23 208.317 208.344 208.269L213.332 205.724C213.543 205.619 213.56 205.455 213.374 205.358L208.598 202.925C208.487 202.874 208.363 202.847 208.238 202.847C208.113 202.847 207.99 202.874 207.879 202.925L202.891 205.463C202.671 205.575 202.655 205.739 202.84 205.836L207.617 208.269ZM176.845 223.945C176.957 223.996 177.082 224.023 177.209 224.023C177.335 224.023 177.46 223.996 177.572 223.945L182.56 221.407C182.771 221.295 182.788 221.131 182.56 221.034L177.783 218.601C177.671 218.554 177.548 218.53 177.424 218.53C177.3 218.53 177.177 218.554 177.065 218.601L172.077 221.146C171.857 221.258 171.84 221.422 172.035 221.512L176.845 223.945ZM184.132 220.213C184.246 220.261 184.37 220.286 184.496 220.286C184.622 220.286 184.746 220.261 184.859 220.213L189.847 217.668C190.058 217.556 190.075 217.391 189.847 217.294L185.079 214.868C184.965 214.82 184.841 214.796 184.716 214.796C184.59 214.796 184.466 214.82 184.352 214.868L179.364 217.414C179.153 217.526 179.136 217.69 179.364 217.787L184.132 220.213ZM221.988 199.162C222.102 199.21 222.226 199.235 222.352 199.235C222.478 199.235 222.602 199.21 222.715 199.162L227.703 196.617C227.914 196.512 227.931 196.348 227.703 196.251L226.435 195.602C226.323 195.551 226.198 195.524 226.072 195.524C225.945 195.524 225.82 195.551 225.708 195.602L220.72 198.147C220.509 198.252 220.484 198.416 220.678 198.513L221.988 199.162ZM243.858 188.01C243.971 188.061 244.095 188.088 244.222 188.088C244.348 188.088 244.473 188.061 244.585 188.01L249.573 185.472C249.784 185.36 249.801 185.196 249.573 185.099L248.305 184.449C248.191 184.402 248.067 184.377 247.942 184.377C247.816 184.377 247.692 184.402 247.578 184.449L242.59 186.995C242.379 187.099 242.354 187.271 242.548 187.361L243.858 188.01ZM253.885 193.123C253.997 193.17 254.12 193.194 254.244 193.194C254.368 193.194 254.491 193.17 254.603 193.123L259.591 190.578C259.811 190.474 259.828 190.309 259.642 190.212L254.865 187.779C254.753 187.728 254.628 187.701 254.502 187.701C254.375 187.701 254.251 187.728 254.138 187.779L249.15 190.317C248.939 190.429 248.922 190.593 249.108 190.69L253.885 193.123ZM267.766 207.239L272.753 204.701C272.965 204.589 272.99 204.425 272.796 204.328L268.028 201.895C267.914 201.847 267.79 201.822 267.664 201.822C267.538 201.822 267.414 201.847 267.301 201.895L262.313 204.44C262.102 204.545 262.085 204.716 262.271 204.806L267.047 207.239C267.161 207.294 267.289 207.323 267.419 207.323C267.549 207.323 267.677 207.294 267.791 207.239H267.766ZM229.276 195.445C229.389 195.493 229.513 195.518 229.639 195.518C229.765 195.518 229.889 195.493 230.003 195.445L234.99 192.9C235.202 192.795 235.219 192.631 234.99 192.534L233.722 191.884C233.61 191.833 233.485 191.807 233.359 191.807C233.232 191.807 233.108 191.833 232.995 191.884L228.007 194.43C227.796 194.534 227.779 194.699 227.965 194.796L229.276 195.445ZM169.575 227.67C169.686 227.721 169.809 227.748 169.934 227.748C170.059 227.748 170.182 227.721 170.293 227.67L175.281 225.132C175.492 225.02 175.518 224.856 175.281 224.759L170.513 222.326C170.4 222.278 170.275 222.253 170.15 222.253C170.024 222.253 169.9 222.278 169.786 222.326L164.798 224.871C164.587 224.975 164.57 225.14 164.798 225.237L169.575 227.67Z" fill="#263238"/>
<path opacity="0.4" d="M191.166 260.876L192.189 261.391L219.351 275.238L267.656 250.612L268.662 250.104L240.477 235.742L191.166 260.876Z" fill="black"/>
<path d="M192.189 261.388L219.351 275.235L267.656 250.609L240.477 236.762L192.189 261.388Z" fill="#280D01"/>
<path opacity="0.45" d="M192.189 261.388L219.351 275.235L267.656 250.609L240.477 236.762L192.189 261.388Z" fill="black"/>
<path d="M51.8641 256.378C52.2983 256.599 52.7609 256.774 53.242 256.9C52.7615 256.779 52.299 256.609 51.8641 256.393C51.7181 256.318 51.577 256.235 51.4414 256.146C51.5772 256.231 51.7183 256.308 51.8641 256.378Z" fill="#280D01"/>
<path d="M59.6754 256.735C59.6754 256.735 59.6754 256.735 59.7515 256.676L59.6923 256.721L59.6754 256.735Z" fill="#280D01"/>
<path d="M371.282 0.368443L263.919 55.1073C263.412 55.3975 262.99 55.7895 262.687 56.2514C262.384 56.7133 262.21 57.2319 262.178 57.7647V163.913C262.211 164.445 262.388 164.961 262.692 165.421C262.996 165.88 263.42 166.269 263.928 166.556L267.098 168.138C267.64 168.376 268.238 168.499 268.843 168.499C269.449 168.499 270.047 168.376 270.589 168.138L377.952 113.399C378.458 113.108 378.878 112.715 379.179 112.254C379.48 111.792 379.654 111.274 379.685 110.742V4.57855C379.653 4.0477 379.479 3.53121 379.176 3.07174C378.873 2.61227 378.451 2.22299 377.944 1.93604L374.765 0.353515C374.223 0.118435 373.626 -0.0025494 373.022 4.07281e-05C372.418 0.00263086 371.822 0.128724 371.282 0.368443Z" fill="#FAFAFA"/>
<path d="M268.848 167.236V61.0875C268.881 60.5548 269.055 60.0364 269.358 59.5746C269.661 59.1129 270.083 58.7207 270.589 58.43L377.952 3.68374C378.908 3.19853 379.685 3.59416 379.685 4.57204V110.728C379.654 111.26 379.48 111.778 379.179 112.24C378.878 112.701 378.458 113.094 377.952 113.385L270.589 168.124C269.625 168.609 268.848 168.214 268.848 167.236Z" fill="#37474F"/>
<path d="M270.589 168.123C270.045 168.355 269.448 168.476 268.843 168.476C268.239 168.476 267.642 168.355 267.098 168.123L263.928 166.533C263.418 166.25 262.994 165.863 262.689 165.404C262.385 164.945 262.209 164.429 262.178 163.898V57.7649C262.203 57.2078 262.395 56.6667 262.736 56.1973L269.363 59.5788C269.048 60.0284 268.87 60.543 268.848 61.0717V167.235C268.848 168.131 269.566 168.653 270.589 168.123Z" fill="#263238"/>
<path d="M379.669 4.303C379.533 3.55653 378.823 3.25048 377.978 3.6909L270.615 58.4297C270.1 58.713 269.678 59.1091 269.389 59.5793L262.753 56.1978C263.037 55.75 263.448 55.3747 263.945 55.1079L371.308 0.369091C371.848 0.127724 372.444 0.00195313 373.049 0.00195312C373.654 0.00195312 374.251 0.127724 374.791 0.369091L377.961 1.95161C378.418 2.2146 378.806 2.56018 379.101 2.96551C379.395 3.37084 379.589 3.82671 379.669 4.303Z" fill="#455A64"/>
<path d="M249.1 121.239C248.009 120.664 242.945 118.119 242.683 117.985C242.479 117.875 242.304 117.726 242.173 117.55C242.041 117.373 241.956 117.173 241.922 116.964C241.889 116.754 241.909 116.541 241.981 116.339C242.052 116.138 242.174 115.952 242.337 115.797L262.33 96.8594L268.848 100.166L248.863 119.104C248.705 119.252 248.586 119.428 248.512 119.621C248.437 119.813 248.411 120.017 248.433 120.219C248.455 120.421 248.527 120.617 248.641 120.793C248.756 120.969 248.913 121.121 249.1 121.239Z" fill="#FAFAFA"/>
<path d="M249.1 121.239C248.009 120.664 242.945 118.119 242.683 117.985C242.479 117.875 242.304 117.726 242.173 117.55C242.041 117.373 241.956 117.173 241.922 116.964C241.889 116.754 241.909 116.541 241.981 116.339C242.052 116.138 242.174 115.952 242.337 115.797L262.33 96.8594L268.848 100.166L248.863 119.104C248.705 119.252 248.586 119.428 248.512 119.621C248.437 119.813 248.411 120.017 248.433 120.219C248.455 120.421 248.527 120.617 248.641 120.793C248.756 120.969 248.913 121.121 249.1 121.239Z" fill="#455A64"/>
<path d="M268.848 100.166L248.863 119.104C248.642 119.313 248.498 119.576 248.449 119.859C248.401 120.142 248.45 120.431 248.591 120.688C248.732 120.946 248.957 121.159 249.238 121.302C249.519 121.444 249.842 121.508 250.165 121.485L268.848 120.127V100.166Z" fill="#FAFAFA"/>
<path d="M268.848 100.166L248.863 119.104C248.642 119.313 248.498 119.576 248.449 119.859C248.401 120.142 248.45 120.431 248.591 120.688C248.732 120.946 248.957 121.159 249.238 121.302C249.519 121.444 249.842 121.508 250.165 121.485L268.848 120.127V100.166Z" fill="#37474F"/>
<path d="M330.096 91.5808C328.565 90.7672 326.427 90.8344 324.06 92.0735C319.376 94.4622 315.606 100.285 315.606 105.047C315.606 107.421 316.544 109.086 318.066 109.877C319.063 110.392 322.868 112.318 323.848 112.863C325.387 113.661 327.509 113.557 329.867 112.355C334.551 109.966 338.321 104.144 338.321 99.3815C338.321 97.0226 337.383 95.3505 335.87 94.5667C334.872 94.0069 331.042 92.0884 330.096 91.5808Z" fill="#EBEBEB"/>
<path d="M332.885 110.183L316.155 101.65C315.791 102.754 315.597 103.897 315.58 105.047C315.58 107.421 316.519 109.085 318.04 109.877C319.038 110.392 322.842 112.317 323.823 112.862C325.361 113.661 327.483 113.557 329.842 112.355C330.963 111.756 331.987 111.025 332.885 110.183Z" fill="#E0E0E0"/>
<path d="M329.833 95.023C325.15 97.4118 321.38 103.234 321.38 107.997C321.38 112.759 325.184 114.715 329.833 112.319C334.483 109.923 338.287 104.108 338.287 99.3451C338.287 94.5826 334.517 92.6343 329.833 95.023Z" fill="#FAFAFA"/>
<path d="M329.833 98.0803C328.239 99 326.913 100.238 325.961 101.694C325.009 103.151 324.459 104.784 324.355 106.463C324.355 109.546 326.815 110.8 329.842 109.255C331.436 108.335 332.763 107.097 333.714 105.641C334.666 104.185 335.216 102.551 335.32 100.872C335.311 97.7892 332.86 96.5426 329.833 98.0803Z" fill="#37474F"/>
<path d="M366.548 84.8858C366.548 85.58 366.548 86.1772 366.506 86.8789L356.928 91.7683L351.162 88.8272C351.162 88.2599 351.162 87.4313 351.162 86.8714C351.162 81.0937 349.607 76.4731 346.936 73.211L354.713 63.4023L360.487 66.3434C364.325 70.6655 366.548 76.9434 366.548 84.8858Z" fill="#280D01"/>
<path d="M366.548 84.8843C366.548 85.586 366.548 86.1757 366.506 86.8774L356.928 91.7668C356.928 91.1995 356.97 90.3784 356.97 89.811C356.97 84.0408 355.415 79.4127 352.743 76.158L360.478 66.3867C364.325 70.664 366.548 76.9493 366.548 84.8843Z" fill="#280D01"/>
<path opacity="0.1" d="M352.718 76.1521L346.944 73.211L354.705 63.4023L360.478 66.3509L352.718 76.1521Z" fill="black"/>
<path opacity="0.2" d="M356.962 89.8027C356.962 90.37 356.962 91.1912 356.962 91.7585L351.196 88.8174C351.196 88.2501 351.196 87.4215 351.196 86.8616C351.196 81.0839 349.641 76.4633 346.969 73.2012L352.743 76.1871C355.415 79.4044 356.962 84.0325 356.962 89.8027Z" fill="black"/>
<path d="M358.754 63.9388L351.027 73.7027L345.253 70.7168L344.932 70.463C342.46 69.838 339.865 69.6903 337.323 70.03L331.524 67.1337L334.424 56.2277C339.978 55.4813 344.957 56.2277 349.057 58.3104L354.705 61.1768C354.958 61.3038 355.212 61.4381 355.457 61.5799L355.956 61.8711C356.125 61.9681 356.294 62.0652 356.454 62.1771C356.615 62.2891 356.691 62.3264 356.801 62.4085C357.252 62.7184 357.684 63.0498 358.094 63.4013C358.348 63.5805 358.551 63.7522 358.754 63.9388Z" fill="#280D01"/>
<path opacity="0.2" d="M351.027 73.7029L345.253 70.717L344.94 70.4707C347.24 71.0878 349.332 72.1983 351.027 73.7029Z" fill="black"/>
<path opacity="0.2" d="M358.762 63.9369L351.027 73.7008C347.578 70.7149 342.827 69.3862 337.298 70.0655L340.147 59.1744C347.646 58.1741 354.113 59.8537 358.762 63.9369Z" fill="white"/>
<path opacity="0.1" d="M334.373 56.2285L340.147 59.1771L337.298 70.0681L331.524 67.127L334.373 56.2285Z" fill="black"/>
<path opacity="0.5" d="M349.015 58.3091L354.662 61.1756C350.587 59.1302 345.65 58.4136 340.147 59.1676L334.424 56.2265C339.936 55.4651 344.915 56.2115 349.015 58.3091Z" fill="white"/>
<path d="M337.366 59.6688L334.517 70.5449C331.701 71.2195 329 72.2237 326.486 73.5308C323.6 75.0248 320.895 76.7757 318.412 78.7561L312.647 75.7702L309.849 67.7158C313.16 65.0526 316.778 62.7033 320.644 60.7064C324.065 58.9202 327.749 57.5612 331.592 56.668L337.366 59.6688Z" fill="#280D01"/>
<path opacity="0.05" d="M309.849 67.7832L315.623 70.7318L318.412 78.7862L312.647 75.8451L309.849 67.7832Z" fill="black"/>
<path opacity="0.6" d="M337.366 59.6673C333.507 60.5511 329.808 61.908 326.376 63.6983C322.514 65.7002 318.896 68.0492 315.58 70.7076L309.806 67.7665C313.118 65.1034 316.736 62.7541 320.602 60.7572C324.022 58.971 327.707 57.612 331.55 56.7188L337.366 59.6673Z" fill="white"/>
<path opacity="0.4" d="M337.366 59.6699L334.525 70.546C331.709 71.2184 329.007 72.2228 326.494 73.5319C323.607 75.0243 320.902 76.7753 318.421 78.7572L315.623 70.7028C318.934 68.0396 322.552 65.6903 326.418 63.6934C329.838 61.9093 333.522 60.5551 337.366 59.6699Z" fill="white"/>
<path d="M315.699 81.0707C310.444 85.8427 306.071 91.3138 302.739 97.2841L295.198 94.873L289.424 91.9244C293.948 83.8393 299.923 76.4534 307.118 70.0527L312.892 73.0386L315.699 81.0707Z" fill="#280D01"/>
<path opacity="0.7" d="M312.892 73.0013C305.694 79.3992 299.718 86.7856 295.198 94.8729L289.424 91.9244C293.948 83.8393 299.923 76.4534 307.118 70.0527L312.892 73.0013Z" fill="white"/>
<path opacity="0.6" d="M315.699 81.0694C310.444 85.8441 306.071 91.3177 302.739 97.2902L295.198 94.8717C299.718 86.7843 305.694 79.3979 312.892 73L315.699 81.0694Z" fill="white"/>
<path d="M300.997 100.592C297.963 106.87 296.153 113.043 296.044 119.15L286.313 124.114L280.539 121.128C280.725 112.752 283.329 103.75 287.657 95.1953L295.266 97.6139L300.997 100.592Z" fill="#280D01"/>
<path opacity="0.6" d="M293.431 98.1716L287.657 95.2305L295.232 97.649L301.006 100.59L293.431 98.1716Z" fill="white"/>
<path opacity="0.9" d="M293.431 98.1737C289.095 106.736 286.499 115.731 286.313 124.114L280.539 121.128C280.725 112.752 283.329 103.75 287.657 95.1953L293.431 98.1737Z" fill="white"/>
<path opacity="0.75" d="M301.006 100.59C297.963 106.86 296.154 113.041 296.035 119.147L286.313 124.104C286.499 115.729 289.095 106.726 293.431 98.1641L301.006 100.59Z" fill="white"/>
<path d="M362.009 80.8903L360.478 80.1289L318.81 108.681L318.936 114.146L320.467 114.907L362.009 80.8903Z" fill="#E0E0E0"/>
<path d="M320.467 114.907L320.348 109.443L362.009 80.8906L320.467 114.907Z" fill="#EBEBEB"/>
<path d="M318.81 108.681L320.348 109.443L362.009 80.8903L360.478 80.1289L318.81 108.681Z" fill="white"/>
</svg>
