<svg width="48" height="48" viewBox="0 0 48 48" fill="none" xmlns="http://www.w3.org/2000/svg">
<path d="M24 44C35.0457 44 44 35.0457 44 24C44 12.9543 35.0457 4 24 4C12.9543 4 4 12.9543 4 24C4 35.0457 12.9543 44 24 44Z" stroke="#393838" stroke-width="3"/>
<path d="M15.8734 32.1268C14.8387 31.0922 15.0107 26.6966 15.0107 26.6966M15.8734 32.1268C16.908 33.1616 21.3034 32.9892 21.3034 32.9892M15.8734 32.1268L22 26M32.1268 15.8732C31.0922 14.8386 26.6968 15.0107 26.6968 15.0107M32.1268 15.8732C33.1616 16.9079 32.9892 21.3032 32.9892 21.3032M32.1268 15.8732L26 22" stroke="#393838" stroke-width="3" stroke-linecap="round" stroke-linejoin="round"/>
</svg>
