<svg width="65" height="65" viewBox="0 0 65 65" fill="none" xmlns="http://www.w3.org/2000/svg">
<path fill-rule="evenodd" clip-rule="evenodd" d="M18.8856 28.7945C17.7268 31.1646 17.1572 33.8621 17.3545 36.6832C17.9525 45.2354 25.3702 51.6835 33.9223 51.0854L33.548 45.7321L35.5019 45.5955C36.8159 45.5036 37.8158 44.3533 37.7239 43.0392C37.632 41.7251 36.4818 40.7252 35.1677 40.8171L33.2139 40.9537L32.8395 35.6004L28.0162 33.2479L27.1576 35.0083C26.5853 36.1817 25.2112 36.6777 23.955 36.111C22.7711 35.5336 22.2749 34.0924 22.8523 32.9086L23.7109 31.1482L18.8856 28.7945Z" fill="#FFBF31"/>
<path fill-rule="evenodd" clip-rule="evenodd" d="M40.7893 51.6781C43.4213 51.4966 46.0422 50.6411 48.3867 49.0598C55.494 44.2658 57.3694 34.6179 52.5754 27.5106L48.1266 30.5115L47.0313 28.8877C46.2948 27.7957 44.7986 27.5048 43.7065 28.2415C42.6143 28.9781 42.3236 30.4742 43.0602 31.5662L44.1555 33.19L39.7065 36.1908L40.0808 41.5441L42.0347 41.4075C43.337 41.3164 44.4536 42.2585 44.5909 43.6297C44.6828 44.9437 43.6828 46.094 42.3687 46.1859L40.4148 46.3225L40.7893 51.6781Z" fill="#88C8FE"/>
<path fill-rule="evenodd" clip-rule="evenodd" d="M49.6564 21.2667C48.1833 19.0782 46.1319 17.2362 43.5902 15.9965C35.8849 12.2383 26.5918 15.4381 22.8336 23.1436L27.6568 25.496L26.7982 27.2564C26.2208 28.4403 26.7169 29.8815 27.901 30.459C29.085 31.0365 30.526 30.5402 31.1034 29.3563L31.962 27.5959L36.7853 29.9484L41.2342 26.9475L40.139 25.3238C39.4089 24.2414 39.6665 22.8035 40.7854 21.9989C41.8774 21.2624 43.3736 21.5532 44.1101 22.6453L45.2054 24.269L49.6564 21.2667Z" fill="#FA6E85"/>
<path fill-rule="evenodd" clip-rule="evenodd" d="M17.3824 34.1496C16.6152 42.4349 22.4701 49.7294 30.4981 50.9466C32.2878 48.0792 24.2635 49.96 20.2274 41.9349L21.6698 42.6384C23.0749 43.3238 24.7836 42.7352 25.469 41.3302C26.1531 39.9273 25.5677 38.2216 24.1674 37.5343L17.3824 34.1496Z" fill="#E3A829"/>
<path fill-rule="evenodd" clip-rule="evenodd" d="M46.1798 50.3024C46.9478 49.9488 47.6858 49.5334 48.3866 49.0604C54.5237 44.9208 56.7588 37.1624 54.1685 30.5454C50.7921 30.4289 56.4269 36.4416 51.4995 43.946L51.3876 42.3451C51.2784 40.7835 49.9167 39.5998 48.3551 39.709C46.796 39.818 45.6135 41.1757 45.7184 42.7341L46.1798 50.3024Z" fill="#60B7FE"/>
<path fill-rule="evenodd" clip-rule="evenodd" d="M45.7693 17.2873C45.0791 16.7991 44.3503 16.3676 43.5903 15.9972C36.9369 12.752 29.1002 14.6955 24.6648 20.2474C26.2529 23.2309 28.6377 15.3417 37.6046 15.8585L36.2741 16.756C34.9781 17.6301 34.6334 19.4042 35.5075 20.7002C36.3802 21.9942 38.1501 22.3399 39.4456 21.471L45.7693 17.2873Z" fill="#E33F65"/>
<path fill-rule="evenodd" clip-rule="evenodd" d="M28.605 51.3377C28.213 52.0187 26.2706 52.2259 25.5643 51.8814C20.1359 49.2338 18.0964 47.7695 14.2284 43.0714C13.9102 42.685 13.566 42.4132 13.116 42.1938L9.50108 40.4307L12.8879 33.4869L23.5416 38.8015C24.2478 39.1459 24.5437 40.0055 24.1993 40.7118C23.8548 41.4181 22.9952 41.7141 22.2889 41.3696L20.0979 40.301C19.8755 40.1925 19.63 40.211 19.4265 40.3517C19.2296 40.4877 18.6942 40.5958 18.6652 41.9383C20.5949 46.2526 24.4225 49.4829 29.0192 50.6487C28.8771 50.8759 28.739 51.1056 28.605 51.3377ZM55.4533 31.9898C56.239 31.9888 57.3897 33.5674 57.4445 34.3512C57.8658 40.3762 57.6174 42.8746 55.4827 48.5735C55.3071 49.0422 55.2439 49.4762 55.2788 49.9756L55.5593 53.9878L47.8524 54.5268L47.128 42.6431C47.0763 41.8531 47.6714 41.1731 48.4535 41.1184C49.2373 41.0636 49.9235 41.66 49.9783 42.4438L50.1483 44.8756C50.1656 45.1225 50.3043 45.3258 50.528 45.4317C50.7442 45.5343 51.1056 45.9438 52.2827 45.2977C55.0542 41.4693 55.9378 36.5393 54.6492 31.9755C54.9186 31.9847 55.1876 31.9901 55.4533 31.9898ZM25.2731 18.4124C24.8794 17.7325 25.6712 15.9467 26.3226 15.5074C31.3298 12.13 33.6176 11.0959 39.6203 10.0953C40.114 10.013 40.5214 9.85072 40.9364 9.57077L44.2708 7.32173L48.5909 13.7266L38.6615 20.2958C38.01 20.7352 37.1176 20.5617 36.6782 19.9103C36.2388 19.2589 36.4123 18.3665 37.0637 17.9271L39.0845 16.5639C39.2897 16.4256 39.3964 16.2038 39.3764 15.9571C39.3571 15.7186 39.531 15.201 38.383 14.5045C33.6817 14.0185 28.9705 15.7182 25.6624 19.1161C25.5371 18.8791 25.4073 18.6445 25.2731 18.4124Z" fill="#FCD4A9"/>
<path fill-rule="evenodd" clip-rule="evenodd" d="M48.1382 14.0256L38.6617 20.2951C37.9979 20.7385 37.1033 20.5564 36.669 19.8951C37.2547 19.8908 37.8569 19.7801 38.5009 19.3999L46.5322 13.7997L47.7118 13.4057L48.1382 14.0256ZM13.3736 33.729L23.5415 38.8012C24.2574 39.1544 24.547 40.0202 24.1915 40.727C23.8949 40.2219 23.498 39.7558 22.8467 39.3882L13.981 35.233L13.0502 34.4084L13.3736 33.729ZM47.8147 53.9845L47.1234 42.6427C47.0713 41.8462 47.6764 41.1625 48.4662 41.117C48.177 41.6263 47.9719 42.2031 47.9793 42.951L48.8136 52.7065L48.5649 53.925L47.8147 53.9845Z" fill="#F0B16E"/>
<path fill-rule="evenodd" clip-rule="evenodd" d="M47.4132 15.1062L42.5091 7.83554C42.3126 7.54422 42.3902 7.14508 42.6815 6.94848L44.7804 5.53274C45.0717 5.33626 45.4709 5.41383 45.6674 5.70516L50.5716 12.9758C50.7681 13.2671 50.6905 13.6663 50.3992 13.8629L48.3003 15.2786C48.0088 15.4751 47.6097 15.3975 47.4132 15.1062Z" fill="#E33F65"/>
<path fill-rule="evenodd" clip-rule="evenodd" d="M14.6718 33.8171L10.8273 41.6995C10.6733 42.0153 10.2888 42.1478 9.97285 41.9937L7.69737 40.8839C7.38154 40.7298 7.24916 40.3454 7.40317 40.0294L11.2477 32.147C11.4018 31.8312 11.7862 31.6988 12.1022 31.8528L14.3776 32.9627C14.6935 33.1168 14.8259 33.5013 14.6718 33.8171Z" fill="#FFBF31"/>
<path fill-rule="evenodd" clip-rule="evenodd" d="M47.2463 52.8168L55.995 52.205C56.3457 52.1805 56.6525 52.4472 56.6771 52.7979L56.8537 55.3234C56.8782 55.674 56.6114 55.9809 56.2608 56.0055L47.5121 56.6172C47.1615 56.6417 46.8546 56.375 46.8301 56.0244L46.6535 53.4988C46.6289 53.1481 46.8957 52.8413 47.2463 52.8168Z" fill="#60B7FE"/>
</svg>
