<svg width="65" height="65" viewBox="0 0 65 65" fill="none" xmlns="http://www.w3.org/2000/svg">
<g clip-path="url(#clip0_23133_199)">
<path d="M40.2666 15.7182C40.2666 15.7182 40.7837 24.2833 33.9554 31.2142L28.3441 30.8218C30.975 28.3969 32.2591 24.9462 32.5056 21.4318C32.6288 19.6694 32.4885 17.8956 32.2071 16.1529C31.8395 13.8759 30.7723 11.2169 30.7723 11.2169L39.6715 10.5077C39.6715 10.5077 40.3545 13.0617 40.2666 15.7182Z" fill="#96B268"/>
<path d="M36.5161 22.9623L34.6953 22.5141C35.5345 19.1006 35.2195 16.9012 35.2162 16.8794L37.0689 16.5914C37.0855 16.6946 37.4532 19.1508 36.5161 22.9623Z" fill="#88A35A"/>
<path d="M26.8745 31.0415L25.1628 30.2757C28.6729 22.4255 27.4959 17.2197 25.8903 14.235L27.5416 13.3468C29.3463 16.7024 30.6956 22.4957 26.8745 31.0415ZM23.7797 8.36045C23.383 7.37695 22.9286 6.41772 22.419 5.48775L24.0597 4.58046C24.6057 5.57591 25.0924 6.60272 25.5173 7.65553L23.7797 8.36045Z" fill="#FFB431"/>
<path d="M15.2513 29.9061L14.5973 39.2582L11.7917 39.062C11.0476 39.01 10.3133 39.2557 9.75031 39.7451C9.18736 40.2344 8.84186 40.9274 8.78983 41.6715C8.73779 42.4156 8.98349 43.1499 9.47286 43.7128C9.96222 44.2758 10.6552 44.6213 11.3993 44.6733L14.2049 44.8695L13.9433 48.6104C13.8393 50.0986 14.3307 51.5672 15.3094 52.6931C16.2881 53.819 17.6741 54.51 19.1623 54.6141L23.8383 54.941L23.5768 58.6819L44.1515 60.1206L44.4399 55.9964C44.6803 52.5584 45.7179 49.2235 47.4705 46.2559C49.2231 43.2883 50.2607 39.9534 50.5011 36.5153L50.7895 32.3911L15.2513 29.9061Z" fill="#FDC8A2"/>
<path d="M43.4342 43.8718C42.8844 44.8038 42.3916 45.7682 41.9584 46.7598L43.6765 47.5103C44.0793 46.5884 44.5375 45.6918 45.0486 44.8253C46.0308 43.1602 46.7587 41.3578 47.2082 39.4777L45.3849 39.0403C44.9788 40.7389 44.3213 42.3674 43.4342 43.8718ZM45.8517 35.8046L45.8249 36.1879C45.7922 36.6555 45.7395 37.1291 45.6678 37.5944L47.5213 37.8778C47.6002 37.3621 47.6586 36.8376 47.6949 36.3187L47.7217 35.9353L45.8517 35.8046ZM18.3218 45.3183C17.7429 45.8243 17.0694 46.2104 16.3403 46.4544C15.6111 46.6983 14.8409 46.7952 14.074 46.7395L13.9432 48.6099C14.9558 48.6835 15.9729 48.5555 16.9356 48.2334C17.8984 47.9113 18.7877 47.4014 19.552 46.7333L20.4312 45.969L19.2011 44.5539L18.3218 45.3183ZM23.8382 54.9406L31.32 55.4638L31.1892 57.3342L23.7075 56.811L23.8382 54.9406Z" fill="#FDB683"/>
<path d="M11.2093 7.0698L13.3413 3.45973L14.9501 7.33139L19.5608 8.59359L16.559 11.203L17.2326 15.0093L12.6873 12.8119L7.88044 14.3553L9.07724 10.6799L6.46779 7.67803L11.2093 7.0698Z" fill="#FFB431"/>
<path d="M25.5388 30.6262C23.3871 21.0778 17.2329 15.0088 17.2329 15.0088L12.6876 12.8114L7.88077 14.3548C7.88077 14.3548 19.6462 20.8163 21.7979 30.3646L25.5388 30.6262Z" fill="#DE5540"/>
<path d="M29.2793 30.8874C28.2591 18.5988 19.5609 8.59267 19.5609 8.59267L16.559 11.2021L17.2327 15.0084C17.2327 15.0084 23.3868 21.0775 25.5385 30.6258L29.2793 30.8874Z" fill="#D64A34"/>
<path d="M54.2556 20.0871L48.4387 15.3528L53.4853 9.15198C54.2806 8.17487 55.3322 7.43853 56.5224 7.02545C57.7126 6.61237 58.9943 6.53888 60.2239 6.81321C60.7422 7.96148 60.9305 9.23141 60.7678 10.4807C60.605 11.73 60.0975 12.9092 59.3023 13.8863L54.2556 20.0871Z" fill="#DE5540"/>
<path d="M57.8566 9.7219C57.4707 9.40857 56.9763 9.26111 56.4818 9.31184C55.9873 9.36258 55.5331 9.60738 55.2188 9.99254C54.9848 10.2802 54.8413 10.6307 54.8064 10.9999C54.7716 11.3691 54.847 11.7404 55.0232 12.0667C55.1994 12.393 55.4683 12.6598 55.7961 12.8332C56.1239 13.0067 56.4957 13.0791 56.8646 13.0412C57.2335 13.0033 57.5829 12.8569 57.8686 12.6205C58.1543 12.3841 58.3634 12.0683 58.4696 11.713C58.5758 11.3577 58.5743 10.9788 58.4652 10.6244C58.3561 10.27 58.1443 9.95587 57.8567 9.72179L57.8566 9.7219Z" fill="#FFB431"/>
<path d="M51.3974 11.7168L47.3054 10.804L43.7547 15.1666L46.9842 14.1689L48.4385 15.3525L51.3974 11.7168ZM57.2144 16.4512L58.9393 20.2725L55.3885 24.6353L55.7096 21.2703L54.2554 20.0868L57.2144 16.4512ZM51.1612 22.4035L46.7985 18.8527L49.8928 16.536L52.8012 18.9031L51.1612 22.4035Z" fill="#348ED8"/>
<path d="M45.0275 20.7117C45.0275 20.7117 40.0244 25.0608 39.5666 31.6074L44.2427 31.9343C48.1798 29.3903 49.5074 23.8444 49.5074 23.8444L45.0275 20.7117Z" fill="#FFB431"/>
<path d="M42.7697 27.5973L45.8996 23.1198L47.4353 24.1934L44.3056 28.6708L42.7697 27.5973Z" fill="#F9A614"/>
<path d="M35.1328 14.3803C37.7153 14.5609 39.9553 12.6137 40.1359 10.0312C40.3165 7.44869 38.3693 5.20874 35.7868 5.02816C33.2042 4.84757 30.9643 6.79472 30.7837 9.37725C30.6031 11.9598 32.5503 14.1997 35.1328 14.3803Z" fill="#348ED8"/>
<path d="M28.628 13.2489C27.9993 13.2033 27.4042 12.9479 26.938 12.5238C26.4717 12.0997 26.1613 11.5314 26.0565 10.9098C26.0198 10.6905 26.0089 10.4676 26.0239 10.2457C26.0669 9.61557 26.3212 9.01838 26.7458 8.55079C27.1704 8.0832 27.7404 7.77259 28.3635 7.66923L41.3068 5.49275C42.0423 5.36992 42.7964 5.54388 43.4038 5.97645C44.0111 6.40903 44.4221 7.06488 44.5464 7.8001C44.5831 8.01945 44.594 8.24233 44.5789 8.46421C44.536 9.09408 44.2818 9.69104 43.8574 10.1585C43.4331 10.6259 42.8634 10.9364 42.2406 11.0398L29.2962 13.216C29.0756 13.2534 28.8512 13.2644 28.628 13.2489ZM31.1842 9.09549L28.6751 9.51797C28.4673 9.55229 28.2772 9.65573 28.1355 9.81153C27.9938 9.96734 27.9088 10.1664 27.8943 10.3765C27.8894 10.4517 27.8933 10.5273 27.906 10.6016C27.9478 10.8461 28.085 11.064 28.2873 11.2075C28.4896 11.351 28.7406 11.4084 28.9852 11.3671L41.9291 9.19087C42.1366 9.15651 42.3264 9.05318 42.4678 8.89757C42.6092 8.74197 42.694 8.5432 42.7085 8.33342C42.7134 8.25825 42.7095 8.18275 42.697 8.10848C42.6552 7.86385 42.5181 7.64578 42.3158 7.50206C42.1135 7.35834 41.8624 7.30071 41.6177 7.34179L31.1842 9.09549Z" fill="#4DB6E4"/>
<path d="M30.8127 10.3257C30.6526 9.13013 30.9595 7.91889 31.6694 6.94376C32.3794 5.96864 33.4379 5.30464 34.6248 5.08982C35.8117 4.875 37.0357 5.12588 38.0425 5.79031C39.0492 6.45473 39.7611 7.48159 40.0302 8.65738" fill="#348ED8"/>
<path d="M35.6561 6.89844L37.5265 7.02923L37.3957 8.89966L35.5253 8.76887L35.6561 6.89844Z" fill="#2B83CC"/>
<path d="M7.83493 28.4488L8.09651 24.7079L10.7714 26.7745L13.7078 25.1003L13.3808 29.7764L15.9903 32.7782L11.3142 32.4512L9.18218 36.0613L7.92677 32.1752L4.83309 31.0582L7.83493 28.4488Z" fill="#FFB431"/>
<path d="M17.2294 30.5434C16.7007 29.5521 16.083 28.6108 15.384 27.7313L16.8525 26.5652C17.6224 27.534 18.3027 28.5709 18.8848 29.6629L17.2294 30.5434ZM10.5466 23.3249C7.76886 21.4699 5.37414 20.7411 5.35021 20.7339L5.88469 18.9367C5.99253 18.9686 8.55965 19.7435 11.5879 21.7655L10.5466 23.3249Z" fill="#96B268"/>
<path d="M48.2454 8.10395L46.5363 7.33316C46.7337 6.89434 46.9881 6.11225 47.0744 4.87706L48.9449 5.00785C48.86 6.22141 48.6247 7.26316 48.2454 8.10395Z" fill="#DE5540"/>
<path d="M49.7472 32.8557L48.4962 31.4591C48.5228 31.4352 51.1641 29.0448 51.9651 26.6398L53.7445 27.2324C52.7842 30.114 49.8709 32.7451 49.7472 32.8557Z" fill="#96B268"/>
<path d="M56.4241 29.9801L55.2257 28.5381C55.3178 28.4616 57.5157 26.669 60.3159 27.2314L59.947 29.0698C58.0462 28.6879 56.4398 29.9671 56.4241 29.9801Z" fill="#DE5540"/>
<path d="M59.8802 36.7865L58.0097 36.6557L58.1405 34.7853L56.2701 34.6545L56.1393 36.5249L54.2689 36.3941L54.1381 38.2645L56.0085 38.3953L55.8777 40.2658L57.7481 40.3966L57.8789 38.5261L59.7494 38.6569L59.8802 36.7865ZM10.2026 48.3493L8.33213 48.2185L8.46292 46.3481L6.59249 46.2173L6.46169 48.0877L4.59126 47.9569L4.46047 49.8274L6.3309 49.9582L6.20011 51.8286L8.07054 51.9594L8.20133 50.089L10.0718 50.2198L10.2026 48.3493Z" fill="#FFB431"/>
<path d="M51.8753 43.7441L53.7458 43.8749L53.615 45.7454L51.7445 45.6146L51.8753 43.7441Z" fill="#DE5540"/>
<path d="M54.4193 47.6816L56.2897 47.8124L56.1589 49.6829L54.2885 49.5521L54.4193 47.6816Z" fill="#96B268"/>
<path d="M3.1784 41.2799L5.04883 41.4107L4.91804 43.2811L3.04761 43.1503L3.1784 41.2799ZM36.5649 34.2166L38.4354 34.3474L38.3046 36.2178L36.4341 36.0871L36.5649 34.2166Z" fill="#DE5540"/>
<path d="M32.432 39.5664L34.3024 39.6972L34.1716 41.5676L32.3012 41.4368L32.432 39.5664Z" fill="#96B268"/>
<path d="M17.1478 2.78516L19.0182 2.91595L18.8874 4.78638L17.017 4.65559L17.1478 2.78516Z" fill="#DE5540"/>
<path d="M42.4183 17.709L44.2887 17.8398L44.1579 19.7102L42.2875 19.5794L42.4183 17.709Z" fill="#96B268"/>
</g>
<defs>
<clipPath id="clip0_23133_199">
<rect width="60" height="60" fill="white" transform="translate(4.18539) rotate(4)"/>
</clipPath>
</defs>
</svg>
