<svg width="65" height="65" viewBox="0 0 65 65" fill="none" xmlns="http://www.w3.org/2000/svg">
<path d="M16.2065 37.6817C16.0251 37.6521 15.8393 37.6629 15.6625 37.7134C15.4857 37.7638 15.3222 37.8527 15.1837 37.9735L9.04161 43.3081C8.87074 43.4566 8.7434 43.6487 8.6732 43.8639C8.60299 44.0791 8.59255 44.3094 8.64298 44.5301C8.69342 44.7508 8.80285 44.9536 8.95958 45.117C9.1163 45.2803 9.31445 45.3981 9.53287 45.4576L14.8736 46.9237L15.5822 52.4165C15.6107 52.6411 15.6997 52.8537 15.8397 53.0316C15.9796 53.2096 16.1653 53.3462 16.3768 53.4268C16.5883 53.5075 16.8178 53.5292 17.0407 53.4896C17.2636 53.45 17.4716 53.3507 17.6424 53.2021L24.5721 47.1759C24.7271 47.0414 24.8466 46.8708 24.9201 46.6791C24.9935 46.4875 25.0187 46.2808 24.9933 46.0771C24.9679 45.8735 24.8927 45.6792 24.7745 45.5115C24.6562 45.3438 24.4985 45.2077 24.3153 45.1154C21.295 43.5866 18.7831 41.2146 17.084 38.2869C16.9914 38.1276 16.8647 37.9907 16.713 37.8861C16.5613 37.7814 16.3884 37.7116 16.2065 37.6817Z" fill="#EF5350"/>
<path d="M16.2062 37.6822C16.0247 37.6527 15.839 37.6635 15.6622 37.7139C15.4854 37.7644 15.3219 37.8532 15.1833 37.9741L14.5885 38.4889C16.2794 41.2377 18.698 43.4651 21.5766 44.9245C21.7598 45.0168 21.9176 45.1529 22.0358 45.3206C22.1541 45.4883 22.2292 45.6826 22.2546 45.8862C22.28 46.0898 22.2548 46.2966 22.1814 46.4882C22.1079 46.6799 21.9885 46.8504 21.8335 46.9849L15.5818 52.4171L15.5815 52.4221C15.6107 52.6463 15.7003 52.8584 15.8406 53.0357C15.9809 53.2131 16.1666 53.349 16.3781 53.4291C16.5895 53.5092 16.8188 53.5305 17.0413 53.4906C17.2639 53.4508 17.4715 53.3512 17.642 53.2027L24.5718 47.1764C24.7268 47.0419 24.8463 46.8713 24.9197 46.6797C24.9932 46.4881 25.0183 46.2813 24.9929 46.0777C24.9675 45.874 24.8924 45.6798 24.7741 45.5121C24.6559 45.3443 24.4981 45.2083 24.3149 45.116C21.2947 43.5872 18.7827 41.2152 17.0836 38.2874C16.991 38.1281 16.8643 37.9913 16.7126 37.8866C16.5609 37.782 16.388 37.7122 16.2062 37.6822Z" fill="#F44336"/>
<path d="M46.8912 39.8291C46.707 39.8335 46.526 39.8785 46.3612 39.961C46.1965 40.0435 46.052 40.1614 45.9381 40.3063C43.848 42.969 41.0304 44.9684 37.8268 46.062C37.6325 46.1279 37.4574 46.2406 37.3169 46.3903C37.1765 46.5399 37.0751 46.7218 37.0216 46.9199C36.9681 47.1181 36.9642 47.3263 37.0103 47.5263C37.0563 47.7263 37.1509 47.9118 37.2857 48.0666L43.3093 54.9987C43.4578 55.1695 43.6499 55.2969 43.8651 55.3671C44.0804 55.4373 44.3106 55.4477 44.5313 55.3973C44.752 55.3469 44.9548 55.2374 45.1182 55.0807C45.2816 54.924 45.3993 54.7258 45.4588 54.5074L46.9249 49.1667L52.4177 48.4581C52.6423 48.4296 52.8549 48.3406 53.0329 48.2006C53.2108 48.0607 53.3474 47.875 53.4281 47.6635C53.5087 47.452 53.5304 47.2225 53.4908 46.9996C53.4513 46.7767 53.3519 46.5687 53.2034 46.3979L47.866 40.2606C47.7456 40.1217 47.5961 40.0109 47.428 39.9364C47.26 39.8618 47.075 39.8251 46.8912 39.8291Z" fill="#EF5350"/>
<path d="M46.8913 39.8283C46.7071 39.8327 46.5261 39.8778 46.3614 39.9603C46.1966 40.0428 46.0521 40.1607 45.9382 40.3055C45.8803 40.3817 45.8177 40.4525 45.7572 40.5284L50.7096 46.2228C50.8581 46.3936 50.9575 46.6016 50.997 46.8245C51.0366 47.0474 51.0149 47.2768 50.9343 47.4884C50.8536 47.6999 50.717 47.8855 50.5391 48.0255C50.3611 48.1654 50.1485 48.2544 49.9239 48.283L44.4311 48.9916L42.965 54.3323C42.9404 54.3909 42.9113 54.4475 42.878 54.5016L43.3094 54.9979C43.4579 55.1688 43.65 55.2961 43.8653 55.3664C44.0805 55.4366 44.3107 55.447 44.5314 55.3966C44.7521 55.3461 44.955 55.2367 45.1183 55.08C45.2817 54.9233 45.3994 54.7251 45.4589 54.5067L46.925 49.1659L52.4179 48.4574C52.6424 48.4288 52.855 48.3398 53.033 48.1999C53.2109 48.0599 53.3475 47.8743 53.4282 47.6627C53.5088 47.4512 53.5305 47.2218 53.491 46.9989C53.4514 46.776 53.352 46.568 53.2035 46.3972L47.8661 40.2599C47.7457 40.1209 47.5962 40.0102 47.4281 39.9356C47.2601 39.8611 47.0751 39.8243 46.8913 39.8283Z" fill="#F44336"/>
<path d="M33.5895 9.57482C22.5863 8.8054 13.0125 17.1278 12.2431 28.131C11.4736 39.1341 19.7961 48.708 30.7992 49.4774C41.8023 50.2468 51.3762 41.9244 52.1456 30.9212C52.915 19.9181 44.5926 10.3442 33.5895 9.57482Z" fill="#FFCA28"/>
<path d="M33.5897 9.57352C33.1708 9.54423 32.7534 9.52757 32.34 9.52623C42.7195 10.8986 50.3921 20.1614 49.652 30.7455C48.9117 41.3322 40.0248 49.4345 29.5553 49.349C29.9651 49.4027 30.3805 49.4468 30.7995 49.4761C41.8026 50.2455 51.3765 41.9231 52.1459 30.9199C52.9153 19.9168 44.5929 10.3429 33.5897 9.57352Z" fill="#FFC107"/>
<path d="M33.0663 17.0552C32.7173 17.0279 32.3706 17.1314 32.0937 17.3456C31.9379 17.4587 31.7979 17.5922 31.6775 17.7425C31.4588 18.0029 31.2766 18.2783 31.089 18.596C30.6758 19.3196 30.2897 20.0583 29.9317 20.8107C29.543 21.603 29.1616 22.3983 28.8517 22.9957C28.7153 23.2618 28.6032 23.467 28.5096 23.6233C28.2711 23.6436 28.032 23.6561 27.7927 23.6609C27.12 23.6765 26.2383 23.67 25.3536 23.6708C24.4712 23.6743 23.5884 23.6827 22.8525 23.7415C22.508 23.762 22.1657 23.8118 21.8296 23.8905C21.6421 23.9341 21.4612 24.0024 21.2917 24.0935C20.977 24.2488 20.7314 24.5158 20.6028 24.8423C20.4693 25.1665 20.4618 25.5289 20.5818 25.8583C20.6407 26.0414 20.7237 26.2157 20.8288 26.3768C21.0091 26.665 21.2168 26.9202 21.4605 27.1978C21.948 27.7532 22.5714 28.3707 23.2052 28.9839C23.8388 29.5996 24.4807 30.2033 24.9533 30.685C25.1642 30.8952 25.327 31.0745 25.4428 31.2104C25.3889 31.4419 25.3277 31.6716 25.2593 31.8993C25.064 32.5422 24.7849 33.3798 24.5131 34.2204C24.2438 35.0611 23.9797 35.8998 23.8092 36.6171C23.722 36.9525 23.6637 37.2947 23.6349 37.64C23.6231 37.8095 23.6208 37.9848 23.6625 38.2133C23.7042 38.4417 23.7877 38.7884 24.1594 39.1001C24.531 39.4118 24.8853 39.4341 25.1183 39.4353C25.3104 39.4363 25.5017 39.4118 25.6873 39.3623C26.0186 39.2827 26.3279 39.1615 26.6639 39.0146C27.3434 38.7238 28.1211 38.317 28.9017 37.9055C29.6825 37.4915 30.4613 37.0698 31.0613 36.7684C31.3288 36.6342 31.5412 36.5363 31.709 36.4653C31.8654 36.5589 32.062 36.6855 32.3083 36.8556C32.8605 37.2375 33.573 37.7635 34.2886 38.2822C35.0043 38.7984 35.7204 39.3096 36.3478 39.6918C36.6651 39.8844 36.952 40.0473 37.269 40.1722C37.4275 40.2359 37.5912 40.295 37.8223 40.3237C38.1675 40.3838 38.5228 40.313 38.8186 40.1252C39.1178 39.9421 39.3375 39.6534 39.434 39.3161C39.4943 39.1337 39.5303 38.9441 39.5411 38.7522C39.5675 38.4107 39.5453 38.0834 39.5134 37.7153C39.4417 36.9835 39.2995 36.1139 39.1474 35.2437C38.9952 34.3735 38.8329 33.505 38.7314 32.8413C38.6946 32.6064 38.6651 32.3703 38.6431 32.1335C38.7817 32.0153 38.9655 31.8603 39.2037 31.679C39.7385 31.2703 40.4557 30.7616 41.1713 30.2402C41.8843 29.7212 42.5876 29.1965 43.1476 28.7143C43.4276 28.4733 43.6688 28.2496 43.8875 27.9892C44.0139 27.8443 44.1204 27.6832 44.2042 27.5101C44.3689 27.2006 44.4119 26.8407 44.3248 26.5011C44.2429 26.1598 44.0368 25.8613 43.7469 25.6637C43.5916 25.5499 43.422 25.4571 43.2424 25.3879C42.9205 25.2631 42.5886 25.1661 42.2502 25.0979C41.4334 24.9279 40.6105 24.7884 39.7833 24.6798C38.9073 24.5559 38.0333 24.4397 37.3693 24.3306C37.133 24.2925 36.898 24.2468 36.6646 24.1936C36.5733 23.9731 36.4887 23.7499 36.4107 23.5243C36.1894 22.8898 35.9224 22.0491 35.6478 21.2104C35.398 20.4155 35.1185 19.6302 34.8099 18.8562C34.6829 18.5338 34.5286 18.2229 34.3487 17.9268C34.2504 17.7612 34.1303 17.6095 33.9917 17.4758C33.7463 17.2254 33.4164 17.0755 33.0663 17.0552Z" fill="#FFF8E1"/>
<path d="M33.0663 17.056C32.7173 17.0287 32.3706 17.1322 32.0937 17.3464C31.9759 17.4307 31.8681 17.5283 31.7726 17.6372L31.852 17.7555C32.0324 18.0438 32.1744 18.3419 32.316 18.6826C32.5991 19.3641 32.8816 20.1983 33.1538 21.0368C33.4285 21.8755 33.6955 22.7162 33.9193 23.3509C34.0173 23.6334 34.0997 23.8522 34.1707 24.02C34.3483 24.06 34.578 24.1086 34.8754 24.157C35.5394 24.2661 36.4134 24.3823 37.2894 24.5063C38.1627 24.6325 39.0357 24.7637 39.7562 24.9243C40.1165 25.0047 40.4317 25.0844 40.7484 25.2143C40.9069 25.278 41.0646 25.3517 41.2529 25.4901C41.4412 25.6286 41.7133 25.8581 41.8309 26.3275C41.9484 26.7968 41.8125 27.1282 41.7102 27.3365C41.6265 27.5096 41.52 27.6708 41.3935 27.8156C41.1748 28.076 40.9336 28.2997 40.6536 28.5408C40.0936 29.0229 39.3903 29.5476 38.6774 30.0666C37.9643 30.5881 37.2445 31.0967 36.7096 31.5079C36.4715 31.6867 36.2852 31.8416 36.1517 31.96C36.164 32.1414 36.1931 32.3714 36.2375 32.6678C36.3414 33.3316 36.5013 34.1999 36.6534 35.0701C36.8031 35.9402 36.948 36.8074 37.0169 37.5415C37.0513 37.9098 37.0735 38.2371 37.0471 38.5786C37.0363 38.7705 37.0002 38.9601 36.94 39.1425C36.8654 39.3953 36.723 39.6229 36.5282 39.8004C36.7738 39.9429 37.0154 40.0726 37.269 40.173C37.4274 40.2367 37.5912 40.2958 37.8222 40.3245C38.1675 40.3846 38.5227 40.3138 38.8185 40.126C39.1178 39.9429 39.3374 39.6542 39.434 39.3169C39.4942 39.1345 39.5302 38.9449 39.5411 38.753C39.5614 38.4072 39.5521 38.0603 39.5133 37.7161C39.4417 36.9843 39.2995 36.1148 39.1473 35.2445C38.9952 34.3743 38.8329 33.5058 38.7314 32.8422C38.6945 32.6072 38.6651 32.3711 38.6431 32.1343C38.7816 32.0161 38.9654 31.8611 39.2036 31.6798C39.7384 31.2711 40.4557 30.7624 41.1713 30.241C41.8842 29.722 42.5875 29.1973 43.1475 28.7152C43.4275 28.4741 43.6687 28.2504 43.8874 27.99C44.0139 27.8451 44.1204 27.684 44.2041 27.5109C44.3688 27.2014 44.4119 26.8415 44.3248 26.5019C44.2428 26.1607 44.0368 25.8621 43.7468 25.6645C43.5916 25.5507 43.4219 25.4579 43.2423 25.3887C42.9204 25.2639 42.5885 25.1669 42.2501 25.0987C41.4333 24.9287 40.6105 24.7892 39.7833 24.6806C38.9073 24.5567 38.0333 24.4405 37.3693 24.3314C37.133 24.2933 36.898 24.2476 36.6646 24.1944C36.5733 23.9739 36.4886 23.7507 36.4107 23.5251C36.1894 22.8906 35.9224 22.0499 35.6477 21.2112C35.3979 20.4163 35.1185 19.631 34.8099 18.857C34.6827 18.5355 34.5283 18.2254 34.3484 17.9301C34.2502 17.7645 34.1301 17.6128 33.9915 17.4791C33.7465 17.2278 33.4166 17.077 33.0663 17.056Z" fill="#FFECB3"/>
</svg>
