<svg width="39" height="39" viewBox="0 0 39 39" fill="none" xmlns="http://www.w3.org/2000/svg">
<path d="M19.25 13.26V0.75M19.25 0.75C18.724 0.75 18.198 0.952 17.796 1.352L13.25 5.898M19.25 0.75C19.776 0.75 20.304 0.952 20.704 1.352L25.25 5.898M25.24 19.25H37.75M37.75 19.25C37.75 18.724 37.548 18.198 37.148 17.796L32.602 13.25M37.75 19.25C37.75 19.776 37.548 20.304 37.148 20.704L32.602 25.25M19.25 25.24V37.75M19.25 37.75C18.724 37.75 18.198 37.548 17.796 37.148L13.25 32.602M19.25 37.75C19.776 37.75 20.304 37.548 20.704 37.148L25.25 32.602M13.26 19.25H0.75M0.75 19.25C0.75 18.724 0.952 18.198 1.352 17.796L5.898 13.25M0.75 19.25C0.75 19.776 0.952 20.304 1.352 20.704L5.898 25.25" stroke="white" stroke-opacity="0.8" stroke-width="1.5" stroke-linecap="round" stroke-linejoin="round"/>
</svg>
