<svg width="48" height="48" viewBox="0 0 48 48" fill="none" xmlns="http://www.w3.org/2000/svg">
<rect width="48" height="48" rx="24" fill="#E3EF56"/>
<path d="M31.0417 18.5827C31.0417 16.0292 31.0417 14.7525 30.2484 13.9593C29.4551 13.166 28.1784 13.166 25.625 13.166H22.375C19.8216 13.166 18.5448 13.166 17.7516 13.9593C16.9583 14.7525 16.9583 16.0292 16.9583 18.5827M31.0417 29.416C31.0417 31.9694 31.0417 33.2461 30.2484 34.0395C29.4551 34.8327 28.1784 34.8327 25.625 34.8327H22.375C19.8216 34.8327 18.5448 34.8327 17.7516 34.0395C16.9583 33.2461 16.9583 31.9694 16.9583 29.416" stroke="#033120" stroke-width="1.625" stroke-linecap="round" stroke-linejoin="round"/>
<path d="M26.1667 13.166H21.8333L22.375 14.2493H25.625L26.1667 13.166Z" stroke="#033120" stroke-width="1.625" stroke-linecap="round" stroke-linejoin="round"/>
<path d="M27.7917 27.7923C27.7917 27.7923 31.5832 24.9998 31.5832 24.0006C31.5832 23.0015 27.7916 20.209 27.7916 20.209" stroke="#033120" stroke-width="1.625" stroke-linecap="round" stroke-linejoin="round"/>
<path d="M20.2083 27.7923C20.2083 27.7923 16.4167 24.9998 16.4167 24.0007C16.4167 23.0015 20.2084 20.209 20.2084 20.209" stroke="#033120" stroke-width="1.625" stroke-linecap="round" stroke-linejoin="round"/>
</svg>
