<svg width="65" height="65" viewBox="0 0 65 65" fill="none" xmlns="http://www.w3.org/2000/svg">
<g clip-path="url(#clip0_23133_321)">
<path d="M51.5538 29.8601C51.1761 35.261 48.6886 40.0914 44.5059 43.4641C41.1757 46.2268 40.3476 48.4949 39.4386 51.9203C39.4386 51.9203 37.605 53.9534 36.4494 55.353L24.771 54.5363L21.9033 50.6941C21.1663 47.1184 20.7118 44.5489 17.9295 41.4997C13.6118 36.7223 11.9613 30.0871 13.5321 23.7474C15.3643 16.1929 21.7604 10.4026 29.4462 9.35418C30.8334 9.16889 32.246 9.12682 33.6138 9.22247C38.0327 9.53147 42.2434 11.3058 45.4814 14.3869C49.7483 18.3857 51.9609 24.0384 51.5538 29.8601Z" fill="#FFE470"/>
<path d="M51.5537 29.8603C51.176 35.2612 48.6885 40.0916 44.5057 43.4643C41.1755 46.227 40.3475 48.4951 39.4384 51.9205C39.4384 51.9205 37.6049 53.9536 36.4493 55.3531L30.4174 54.9314L33.6136 9.22266C38.0325 9.53166 42.2432 11.306 45.4813 14.3871C49.7481 18.3859 51.9608 24.0386 51.5537 29.8603Z" fill="#FFD400"/>
<path d="M7.47629 28.5409L3.96923 28.2957C3.00011 28.2279 2.27053 27.389 2.33832 26.4195C2.40609 25.4504 3.24535 24.7209 4.21447 24.7886L7.72153 25.0339C8.69065 25.1016 9.42021 25.9409 9.35244 26.91C9.28465 27.8795 8.44541 28.6087 7.47629 28.5409Z" fill="#FDBF00"/>
<path d="M60.3155 32.2362L56.8085 31.991C55.8393 31.9232 55.1098 31.0843 55.1776 30.1149C55.2453 29.1457 56.0846 28.4162 57.0537 28.4839L60.5608 28.7292C61.5299 28.797 62.2594 29.6362 62.1917 30.6053C62.1239 31.5748 61.2846 32.304 60.3155 32.2362Z" fill="#FF9F00"/>
<path d="M11.7392 16.5047C11.4411 16.4838 11.1449 16.3873 10.8807 16.2087L7.9652 14.2428C7.1603 13.6997 6.94755 12.6078 7.49069 11.8023C8.03441 10.9969 9.12803 10.7844 9.93114 11.3278L12.8467 13.2938C13.6516 13.8369 13.8643 14.9287 13.3212 15.7342C13.1484 15.9902 12.9112 16.1962 12.6335 16.3314C12.3558 16.4667 12.0473 16.5264 11.7392 16.5047Z" fill="#FDBF00"/>
<path d="M55.4577 45.9922C55.1596 45.9713 54.8633 45.8748 54.5992 45.6962L51.6836 43.7303C50.8787 43.1872 50.666 42.0953 51.2091 41.2898C51.751 40.4842 52.8446 40.2735 53.6496 40.8153L56.5651 42.7813C57.37 43.3244 57.5828 44.4162 57.0396 45.2217C56.8668 45.4777 56.6296 45.6837 56.3519 45.8189C56.0742 45.9542 55.7658 46.0139 55.4577 45.9922Z" fill="#FF9F00"/>
<path d="M21.3819 7.77776C21.0737 7.75644 20.7766 7.65435 20.5204 7.48178C20.2643 7.3092 20.058 7.07222 19.9225 6.79466L18.3814 3.63399C17.9551 2.76119 18.3177 1.70908 19.191 1.28333C20.0604 0.858608 21.1138 1.22185 21.5416 2.09287L23.0827 5.25354C23.5091 6.12635 23.1464 7.17845 22.2732 7.60432C21.9965 7.73966 21.6891 7.7995 21.3819 7.77776ZM6.86534 42.594C6.5572 42.5727 6.2601 42.4706 6.00392 42.298C5.74775 42.1255 5.54152 41.8885 5.40599 41.6109C4.98024 40.7377 5.34288 39.686 6.21553 39.2603L9.37632 37.7192C10.2438 37.2943 11.2975 37.6552 11.727 38.5287C12.1527 39.4019 11.7901 40.4536 10.9174 40.8794L7.75665 42.4205C7.48007 42.556 7.17256 42.6158 6.86534 42.594Z" fill="#FDBF00"/>
<path d="M54.262 19.477C53.9539 19.4557 53.6568 19.3536 53.4006 19.1811C53.1444 19.0085 52.9382 18.7715 52.8027 18.4939C52.3769 17.6207 52.7396 16.5691 53.6122 16.1433L56.773 14.6022C57.6407 14.1755 58.6978 14.5385 59.1237 15.4117C59.5494 16.285 59.1868 17.3366 58.3141 17.7624L55.1533 19.3035C54.8768 19.439 54.5692 19.4989 54.262 19.477ZM45.9261 9.5127C45.6285 9.49188 45.3323 9.39552 45.0676 9.2169C44.2622 8.67364 44.0496 7.58131 44.5931 6.77644L46.5591 3.8609C47.104 3.05788 48.1926 2.84502 48.9996 3.38638C49.805 3.9301 50.0176 5.02197 49.4741 5.82684L47.5081 8.74238C47.3353 8.99838 47.0981 9.20435 46.8204 9.3396C46.5427 9.47484 46.2343 9.53446 45.9261 9.5127Z" fill="#FF9F00"/>
<path d="M44.0993 28.1063C43.482 27.3583 42.3597 27.2798 41.6443 27.9347L39.2078 30.0198L37.0851 27.6159C36.4678 26.8678 35.3456 26.7894 34.6302 27.4442L32.1936 29.5293L30.071 27.1254C29.4537 26.3774 28.3315 26.2989 27.6161 26.9537L25.1795 29.0388L23.0569 26.6349C22.4396 25.8869 21.3173 25.8084 20.6019 26.4632C19.8539 27.0805 19.7755 28.2028 20.4303 28.9182L23.5592 32.5557L29.4935 42.9439L28.7946 52.9391C28.7259 53.9208 29.4351 54.8634 30.4173 54.9321C31.3995 55.0008 32.233 54.166 32.3016 53.1843L33.0006 43.1892L40.3229 33.7279L43.9276 30.5613C44.6756 29.944 44.7541 28.8217 44.0993 28.1063ZM31.5045 39.3841L27.2352 31.8962L28.5836 30.757L30.7062 33.161C30.9973 33.5337 31.4412 33.741 31.8969 33.7728C32.3526 33.8047 32.821 33.6613 33.1612 33.3326L35.5977 31.2475L36.7744 32.5633L31.5045 39.3841Z" fill="#FDBF00"/>
<path d="M43.9278 30.5604L40.3231 33.727L33.0007 43.1883L32.3018 53.1834C32.2332 54.1651 31.3997 54.9999 30.4175 54.9312L31.5047 39.3832L36.7746 32.5623L35.5979 31.2466L33.1614 33.3317C32.8212 33.6603 32.3528 33.8038 31.8971 33.7719L32.1938 29.5284L34.6304 27.4433C35.3458 26.7885 36.468 26.8669 37.0853 27.6149L39.208 30.0189L41.645 27.9338C42.3604 27.279 43.4823 27.3574 44.0994 28.1054C44.7543 28.8208 44.6758 29.9431 43.9278 30.5604Z" fill="#FF9F00"/>
<path d="M21.9032 50.6953L21.5272 56.0728C21.3236 58.9834 23.5088 61.4977 26.4199 61.7013L33.434 62.1917C36.3451 62.3953 38.8589 60.2096 39.0625 57.299L39.4385 51.9215L21.9032 50.6953Z" fill="#DEECF1"/>
<path d="M39.4386 51.9217L39.0625 57.2992C38.859 60.2098 36.3452 62.3955 33.4341 62.1919L29.927 61.9467L30.6709 51.3086L39.4386 51.9217Z" fill="#A8D3D8"/>
</g>
<defs>
<clipPath id="clip0_23133_321">
<rect width="60" height="60" fill="white" transform="translate(4.18542) rotate(4)"/>
</clipPath>
</defs>
</svg>
