<svg width="20" height="20" viewBox="0 0 20 20" fill="none" xmlns="http://www.w3.org/2000/svg">
<g clip-path="url(#clip0_18653_5889)">
<path fill-rule="evenodd" clip-rule="evenodd" d="M9.99683 0.0078125C7.28187 0.0078125 6.94142 0.0193204 5.87516 0.0679712C4.81111 0.116503 4.08441 0.285511 3.44853 0.532654C2.79115 0.78809 2.23365 1.12992 1.67786 1.68567C1.1221 2.24146 0.780277 2.79896 0.524841 3.45634C0.277698 4.09222 0.108691 4.81893 0.0601587 5.88297C0.0115079 6.94924 0 7.28968 0 10.0047C0 12.7196 0.0115079 13.0601 0.0601587 14.1264C0.108691 15.1904 0.277698 15.9171 0.524841 16.553C0.780277 17.2104 1.1221 17.7679 1.67786 18.3236C2.23365 18.8794 2.79115 19.2212 3.44853 19.4767C4.08441 19.7238 4.81111 19.8928 5.87516 19.9414C6.94142 19.99 7.28187 20.0015 9.99683 20.0015C12.7118 20.0015 13.0522 19.99 14.1185 19.9414C15.1826 19.8928 15.9092 19.7238 16.5452 19.4767C17.2025 19.2212 17.76 18.8794 18.3158 18.3236C18.8716 17.7679 19.2134 17.2104 19.4689 16.553C19.716 15.9171 19.885 15.1904 19.9335 14.1264C19.9822 13.0601 19.9937 12.7196 19.9937 10.0047C19.9937 7.28968 19.9822 6.94924 19.9335 5.88297C19.885 4.81893 19.716 4.09222 19.4689 3.45634C19.2134 2.79896 18.8716 2.24146 18.3158 1.68567C17.76 1.12992 17.2025 0.78809 16.5452 0.532654C15.9092 0.285511 15.1826 0.116503 14.1185 0.0679712C13.0522 0.0193204 12.7118 0.0078125 9.99683 0.0078125ZM6.66457 10.0047C6.66457 11.8451 8.15647 13.337 9.99683 13.337C11.8372 13.337 13.3292 11.8451 13.3292 10.0047C13.3292 8.16428 11.8372 6.67238 9.99683 6.67238C8.15647 6.67238 6.66457 8.16428 6.66457 10.0047ZM4.86333 10.0047C4.86333 7.16948 7.16167 4.87114 9.99683 4.87114C12.832 4.87114 15.1303 7.16948 15.1303 10.0047C15.1303 12.8398 12.832 15.1381 9.99683 15.1381C7.16167 15.1381 4.86333 12.8398 4.86333 10.0047ZM15.3332 5.86793C15.9957 5.86793 16.5328 5.33087 16.5328 4.66833C16.5328 4.00578 15.9957 3.46869 15.3332 3.46869C14.6707 3.46869 14.1336 4.00578 14.1336 4.66833C14.1336 5.33087 14.6707 5.86793 15.3332 5.86793Z" fill="white" fill-opacity="0.7"/>
</g>
<defs>
<clipPath id="clip0_18653_5889">
<rect width="20" height="20" fill="white"/>
</clipPath>
</defs>
</svg>
