<svg width="65" height="65" viewBox="0 0 65 65" fill="none" xmlns="http://www.w3.org/2000/svg">
<path fill-rule="evenodd" clip-rule="evenodd" d="M31.7072 27.5556C31.6676 27.5583 31.6284 27.5575 31.5894 27.5519C29.2051 27.2371 26.7668 25.9674 24.9013 24.0703C22.9744 22.1116 21.8189 19.7007 21.6499 17.2833L21.0261 8.36247C21.0169 8.22847 21.054 8.09537 21.1311 7.98541C21.2082 7.87545 21.3207 7.79527 21.4499 7.75827L30.0311 5.314C30.1094 5.29231 30.1912 5.28659 30.2718 5.29717L39.1097 6.52338C39.2427 6.54207 39.3652 6.60581 39.4569 6.70396C39.5486 6.80212 39.6038 6.92875 39.6134 7.06272L40.2372 15.9835C40.4062 18.4009 39.5977 20.9491 37.962 23.157C36.3787 25.2953 34.1408 26.892 31.8236 27.5356C31.7856 27.5466 31.7457 27.5529 31.7072 27.5556Z" fill="#00E499"/>
<path fill-rule="evenodd" clip-rule="evenodd" d="M31.7071 27.5551L30.1504 5.29297C30.1907 5.29015 30.2312 5.29143 30.2716 5.29671L39.1095 6.52292C39.2425 6.54161 39.3651 6.60535 39.4568 6.7035C39.5485 6.80166 39.6037 6.92829 39.6133 7.06226L40.2371 15.9831C40.4061 18.4005 39.5975 20.9486 37.9618 23.1565C36.3785 25.2948 34.1407 26.8915 31.8234 27.5351C31.7854 27.5461 31.7456 27.5524 31.7071 27.5551Z" fill="#00CD8A"/>
<path fill-rule="evenodd" clip-rule="evenodd" d="M29.5004 19.1763C29.3449 19.1872 29.1919 19.1368 29.0744 19.0346L25.6235 16.0336C25.3796 15.8216 25.3537 15.4511 25.5657 15.2072C25.7777 14.9633 26.1483 14.9374 26.3922 15.1494L29.4017 17.7653L35.0181 11.304C35.1211 11.1904 35.2644 11.1218 35.4174 11.1127C35.5704 11.1036 35.7209 11.1548 35.8366 11.2553C35.9522 11.3559 36.0239 11.4978 36.0362 11.6505C36.0485 11.8033 36.0005 11.9548 35.9024 12.0726L29.9019 18.9766C29.8514 19.0347 29.79 19.0822 29.7211 19.1165C29.6522 19.1507 29.5772 19.1711 29.5004 19.1763Z" fill="#ECEFF1"/>
<path fill-rule="evenodd" clip-rule="evenodd" d="M46.9296 42.5682C49.4181 43.7894 47.6964 47.639 45.046 46.4451L46.0565 46.9425C48.5957 48.1924 46.7084 52.0678 44.1527 50.8095L42.8826 50.1842C45.429 51.4439 43.5247 55.3045 40.9744 54.0491L39.9624 53.5508C42.4951 54.8038 40.6076 58.6727 38.0541 57.4156C34.342 55.5881 19.7123 48.3668 18.7785 47.3584L14.8175 43.064C14.7334 42.9777 14.6781 42.8674 14.6591 42.7484C14.6401 42.6294 14.6583 42.5074 14.7113 42.3991L20.0702 31.4118C20.1249 31.2793 20.2263 31.1715 20.3552 31.1088C20.484 31.046 20.6314 31.0327 20.7695 31.0714L26.207 32.5955C30.5493 33.807 42.1734 40.2419 46.9296 42.5682Z" fill="#DBB598"/>
<path fill-rule="evenodd" clip-rule="evenodd" d="M41.5638 53.6841L36.9749 51.4292C36.8362 51.3651 36.6779 51.3578 36.5339 51.409C36.3899 51.4601 36.2717 51.5656 36.2045 51.7028C36.1373 51.8401 36.1265 51.9982 36.1745 52.1433C36.2224 52.2884 36.3253 52.4089 36.461 52.4792L39.9411 54.1893C41.0081 55.4626 39.6642 56.9838 37.8997 56.5023C33.3904 54.2794 20.1184 47.4919 19.2316 46.5343L15.2706 42.2399C15.1865 42.1535 15.1312 42.0432 15.1122 41.9242C15.0932 41.8052 15.1114 41.6832 15.1644 41.5749L20.07 31.4122C20.1247 31.2797 20.2261 31.1719 20.3549 31.1092C20.4838 31.0464 20.6312 31.0331 20.7692 31.0718L26.2068 32.5959C27.0632 32.8349 28.2035 33.2775 29.5179 33.8512C34.8419 36.2813 42.2711 40.3364 45.838 42.081C47.7326 43.0108 47.1866 45.4636 45.6485 46.0548C45.5834 46.0798 41.7945 44.1898 41.3502 43.9747C41.2115 43.9106 41.0532 43.9033 40.9092 43.9545C40.7652 44.0056 40.647 44.1111 40.5798 44.2484C40.5126 44.3856 40.5018 44.5437 40.5498 44.6888C40.5977 44.8339 40.7005 44.9545 40.8363 45.0247L45.9995 47.5233C46.5192 48.6759 46.0123 50.1827 44.3816 50.3284L39.1624 47.7018C39.0237 47.6377 38.8654 47.6305 38.7214 47.6816C38.5774 47.7328 38.4592 47.8383 38.392 47.9755C38.3248 48.1128 38.3141 48.2709 38.362 48.416C38.4099 48.561 38.5128 48.6816 38.6485 48.7518L42.8874 50.885C43.7115 52.9948 42.0959 53.502 41.5638 53.6841Z" fill="#F3C9A9"/>
<path fill-rule="evenodd" clip-rule="evenodd" d="M24.8883 44.9797C25.015 45.1472 25.1221 45.3286 25.2076 45.5205C25.8531 44.8629 26.6823 44.6658 27.4665 44.7932C27.8369 44.8532 28.1957 44.9882 28.5174 45.1824C28.8399 45.3766 29.1223 45.6305 29.3495 45.9307C29.7228 46.4266 29.9342 47.0386 29.8754 47.7005C30.1638 47.6533 30.4572 47.6564 30.7447 47.7032C31.1153 47.7634 31.4742 47.8984 31.7958 48.0926C32.1183 48.2869 32.4007 48.541 32.6279 48.8413C33.2084 49.6129 33.3967 50.6651 32.7862 51.7489C32.9631 51.7435 33.1403 51.7558 33.3153 51.7842C33.6858 51.8443 34.0445 51.9792 34.3662 52.1734C34.6887 52.3676 34.9711 52.6216 35.1983 52.9217C35.7954 53.7147 35.9782 54.8045 35.3044 55.9207L34.3346 57.527C33.6603 58.6439 32.6113 58.9901 31.6325 58.8312C31.262 58.7711 30.9033 58.6362 30.5816 58.4419C30.2591 58.2477 29.9767 57.9937 29.7495 57.6936C29.6048 57.5024 29.4858 57.2931 29.3956 57.0709C28.7823 57.5858 28.0372 57.7356 27.3286 57.6206C26.9582 57.5605 26.5994 57.4257 26.2776 57.2313C25.9551 57.0372 25.6727 56.7832 25.4454 56.4831C25.2209 56.185 25.055 55.845 24.9712 55.4773C24.4935 55.6958 23.9745 55.7467 23.4739 55.6654C23.1034 55.6052 22.7447 55.4704 22.423 55.2762C22.1005 55.082 21.8181 54.828 21.5909 54.5279C21.1707 53.9698 20.9557 53.2648 21.1001 52.507C20.853 52.5349 20.6033 52.5267 20.358 52.4869C19.9875 52.4267 19.6287 52.2919 19.3071 52.0975C18.9846 51.9033 18.7022 51.6493 18.475 51.3491C17.878 50.5561 17.6955 49.4663 18.3693 48.3503L20.3035 45.1466C20.9775 44.0303 22.0257 43.6838 23.0043 43.8422C23.3747 43.9021 23.7335 44.0369 24.0556 44.2312C24.3783 44.4253 24.661 44.6794 24.8883 44.9797Z" fill="#D9B7A9"/>
<path fill-rule="evenodd" clip-rule="evenodd" d="M25.1863 45.472C25.1937 45.4879 25.2008 45.5037 25.2079 45.5196C25.2368 45.4902 25.2659 45.4619 25.2955 45.4343C25.6943 45.3071 26.1127 45.2859 26.5192 45.3519C26.8895 45.412 27.2483 45.5469 27.5701 45.7412C27.8925 45.9353 28.175 46.1893 28.4022 46.4895C28.7755 46.9854 28.9869 47.5973 28.928 48.2593C29.2164 48.2121 29.5099 48.2152 29.7974 48.2619C30.168 48.3221 30.5268 48.4572 30.8484 48.6514C31.1709 48.8457 31.4534 49.0998 31.6806 49.4C32.261 50.1717 32.4494 51.2239 31.8389 52.3077C32.0158 52.3023 32.193 52.3146 32.368 52.343C32.7385 52.4032 33.0972 52.538 33.4189 52.7322C33.7414 52.9264 34.0238 53.1803 34.251 53.4805C34.8481 54.2736 35.0309 55.3633 34.3571 56.4794L33.3873 58.0858C33.2291 58.3477 33.0504 58.5672 32.8569 58.7477C32.458 58.875 32.0393 58.8963 31.6328 58.8303C31.2623 58.7702 30.9036 58.6353 30.5819 58.441C30.2595 58.2468 29.977 57.9929 29.7498 57.6928C29.6051 57.5016 29.4861 57.2922 29.3959 57.07C28.7826 57.5849 28.0375 57.7347 27.329 57.6197C26.9585 57.5596 26.5997 57.4248 26.278 57.2305C25.9555 57.0363 25.673 56.7823 25.4457 56.4822C25.2212 56.1841 25.0553 55.8441 24.9715 55.4764C24.4938 55.695 23.9748 55.7458 23.4742 55.6645C23.1037 55.6043 22.745 55.4695 22.4233 55.2753C22.1008 55.0811 21.8184 54.8272 21.5912 54.527C21.171 53.9689 20.9561 53.264 21.1004 52.5062C20.8533 52.534 20.6036 52.5259 20.3583 52.486C19.9878 52.4258 19.6291 52.291 19.3074 52.0967C18.985 51.9025 18.7025 51.6485 18.4753 51.3483C17.8783 50.5553 17.6958 49.4654 18.3696 48.3494L20.3038 45.1457C20.4619 44.8839 20.6406 44.6644 20.8342 44.4838C21.2326 44.3567 21.6508 44.3353 22.0569 44.401C22.4273 44.4609 22.7862 44.5957 23.1084 44.79C23.431 44.9841 23.7136 45.2381 23.941 45.5383C24.0677 45.7058 24.1748 45.8873 24.2603 46.0792C24.5406 45.7937 24.8555 45.5951 25.1863 45.472Z" fill="#F1CBBC"/>
<path fill-rule="evenodd" clip-rule="evenodd" d="M24.9197 45.0217C25.033 45.1774 25.1297 45.3446 25.208 45.5206C25.5685 45.1532 25.9865 44.9296 26.422 44.8259L21.0843 53.3507C21.0413 53.0706 21.0467 52.7853 21.1003 52.5071C20.8533 52.535 20.6035 52.5268 20.3583 52.487C20.3243 52.4815 20.2904 52.4754 20.2567 52.4686L24.9197 45.0217ZM29.6304 46.3881L23.9656 55.7016C24.3074 55.6961 24.6489 55.625 24.9715 55.4774C25.0128 55.659 25.0743 55.8338 25.1529 56.0002L30.2209 47.6677C30.1053 47.6709 29.9899 47.6819 29.8757 47.7005C29.9177 47.2299 29.823 46.7845 29.6304 46.3881ZM33.0275 49.5857C33.2506 50.2323 33.2183 50.9826 32.7867 51.7489C32.8752 51.7462 32.9638 51.7479 33.0521 51.7539L29.5414 57.3743C29.4866 57.2764 29.438 57.175 29.3959 57.0709C28.9999 57.406 28.5086 57.608 27.9914 57.6484L33.0275 49.5857ZM47.8655 43.3849C47.6095 43.5516 47.3147 43.6491 47.0097 43.6677C46.7048 43.6864 46.4002 43.6256 46.1258 43.4914L34.3755 37.7442C33.246 37.1918 31.9525 38.0337 30.9855 38.5805L30.8449 38.6599L30.5617 39.3614C30.0548 40.6634 29.4778 42.2336 28.2456 43.0144C28.0839 43.1169 27.9179 43.2124 27.7479 43.3005C26.7732 43.8055 25.5126 44.1397 24.4896 43.5712C23.6229 43.0897 23.2908 42.1765 23.2697 41.2308L23.1579 36.232C23.148 35.7858 23.3073 35.3525 23.6038 35.0189C25.0816 33.3535 26.8083 31.0829 28.7034 29.9327C30.3467 28.9353 31.9916 28.8653 33.8614 29.1418C36.9032 29.5917 39.7294 29.4794 42.6301 28.3842C43.3938 28.0958 44.2591 28.3708 44.7165 29.049L51.4716 39.064L51.4794 39.0762C52.0193 39.9206 51.771 41.0336 50.9104 41.5518L47.8655 43.3849Z" fill="#D9B7A9"/>
<path fill-rule="evenodd" clip-rule="evenodd" d="M23.2787 41.4313C23.274 41.3647 23.2709 41.298 23.2694 41.2312L23.1576 36.2324C23.1477 35.7862 23.307 35.3528 23.6035 35.0193C25.0813 33.3539 26.808 31.0833 28.7031 29.9331C30.3464 28.9357 31.9913 28.8657 33.861 29.1422C36.9029 29.592 39.7291 29.4797 42.6298 28.3845C43.3935 28.0962 44.2588 28.3712 44.7162 29.0493L51.1454 38.5811C51.1171 38.8519 51.0262 39.1124 50.8797 39.3419C50.7332 39.5714 50.5352 39.7635 50.3014 39.9031L47.2564 41.7364C47.0004 41.903 46.7055 42.0005 46.4006 42.0191C46.0957 42.0378 45.7911 41.9771 45.5167 41.8429L33.7664 36.0956C32.6369 35.5432 31.3434 36.3851 30.3764 36.9319L30.2358 37.0113L29.9525 37.7128C29.4457 39.0148 28.8687 40.585 27.6365 41.3658C27.4748 41.4684 27.3088 41.5638 27.1388 41.6519C26.1641 42.1569 24.9034 42.4911 23.8804 41.9226C23.6519 41.7964 23.448 41.63 23.2787 41.4313Z" fill="#F1CBBC"/>
<path fill-rule="evenodd" clip-rule="evenodd" d="M43.4904 26.0156L47.4591 23.3387C48.0182 22.9615 48.6793 22.8472 49.2936 22.9666C49.9158 23.0868 50.4668 23.4444 50.8301 23.9636C50.8388 23.9746 50.8471 23.9859 50.855 23.9977L58.9924 36.0618C59.3695 36.6209 59.4839 37.282 59.3645 37.8963C59.3036 38.2118 59.1809 38.5122 59.0035 38.7802C58.8262 39.0482 58.5976 39.2785 58.3311 39.4579L54.4089 42.1034C54.382 42.1255 54.3532 42.1452 54.3228 42.1621C53.7924 42.5047 53.1497 42.6283 52.5301 42.5068C51.9294 42.39 51.3714 42.0501 50.9949 41.5139C50.9762 41.4906 50.9594 41.4658 50.9445 41.4399L42.8313 29.4117C42.4541 28.8526 42.3398 28.1916 42.4592 27.5772C42.5794 26.955 42.937 26.404 43.4562 26.0407C43.4672 26.0319 43.4786 26.0236 43.4904 26.0156Z" fill="#E4404D"/>
<path fill-rule="evenodd" clip-rule="evenodd" d="M43.4904 26.0153L47.4591 23.3384C48.0182 22.9612 48.6794 22.8468 49.2936 22.9662C49.9158 23.0865 50.4669 23.444 50.8301 23.9633C50.8388 23.9743 50.8471 23.9856 50.8551 23.9974L58.9924 36.0615C59.0506 36.1478 59.1026 36.2365 59.1484 36.3272C58.9672 36.6157 58.7276 36.863 58.4449 37.0532L54.5228 39.6986C54.4958 39.7207 54.467 39.7404 54.4366 39.7574C53.9062 40.1 53.2636 40.2235 52.6439 40.1021C52.0432 39.9853 51.4853 39.6453 51.1087 39.1091C51.0901 39.0857 51.0732 39.061 51.0583 39.035L42.9451 27.0067C42.8877 26.9215 42.8355 26.8327 42.7891 26.741C42.9623 26.4651 43.1892 26.2268 43.4562 26.0401C43.4673 26.0316 43.4787 26.0233 43.4904 26.0153Z" fill="#FD4755"/>
<path fill-rule="evenodd" clip-rule="evenodd" d="M15.5226 25.5727L19.8252 27.6712C19.8379 27.6775 19.8503 27.6841 19.8624 27.6912C20.4271 27.9787 20.8579 28.4746 21.0636 29.074C21.2673 29.6658 21.2461 30.3363 20.9503 30.9424L14.5901 43.9827C14.5789 44.0105 14.5656 44.0374 14.5505 44.063C14.2523 44.6463 13.7472 45.0607 13.1685 45.2599C12.5718 45.4664 11.9182 45.4335 11.3452 45.1681C11.3127 45.1555 11.2815 45.14 11.2518 45.1219L6.99964 43.0481C6.7107 42.9075 6.45236 42.7112 6.23946 42.4705C6.02656 42.2298 5.86329 41.9495 5.75902 41.6455C5.55529 41.0537 5.57654 40.3832 5.87224 39.7771L12.2514 26.6979C12.2576 26.6851 12.2643 26.6728 12.2713 26.6606C12.5588 26.0959 13.0547 25.6651 13.6541 25.4595C14.2459 25.2557 14.9164 25.277 15.5226 25.5727Z" fill="#56A5E6"/>
<path fill-rule="evenodd" clip-rule="evenodd" d="M15.5222 25.5714L19.8248 27.67C19.8375 27.6762 19.8499 27.6829 19.862 27.6899C20.0902 27.8061 20.2987 27.9575 20.4799 28.1385C20.4496 28.4192 20.3706 28.6926 20.2466 28.9463L13.8864 41.9866C13.8751 42.0144 13.8619 42.0413 13.8467 42.0669C13.5485 42.6502 13.0434 43.0646 12.4647 43.2638C11.8876 43.4625 11.2356 43.4471 10.6415 43.172C10.609 43.1594 10.5777 43.1439 10.548 43.1257L6.29588 41.052C6.05231 40.9335 5.83016 40.7752 5.63853 40.5838C5.66884 40.303 5.74779 40.0296 5.87184 39.7758L12.251 26.6966C12.2572 26.6839 12.2639 26.6715 12.2709 26.6594C12.5584 26.0947 13.0543 25.6639 13.6537 25.4582C14.2455 25.2545 14.916 25.2757 15.5222 25.5714Z" fill="#60B7FF"/>
</svg>
