<svg width="20" height="20" viewBox="0 0 20 20" fill="none" xmlns="http://www.w3.org/2000/svg">
<g clip-path="url(#clip0_18653_5885)">
<path fill-rule="evenodd" clip-rule="evenodd" d="M4.55094 19.5406V6.66695H0.272461V19.5405H4.55094V19.5406ZM2.41215 4.90992C3.90367 4.90992 4.83277 3.92055 4.83277 2.6852C4.80457 1.42238 3.90367 0.460938 2.44012 0.460938C0.976328 0.460977 0.0195312 1.42242 0.0195312 2.68523C0.0195312 3.92059 0.948125 4.90996 2.38398 4.90996L2.41215 4.90992ZM6.91891 19.5406C6.91891 19.5406 6.97504 7.87484 6.91891 6.66699H11.198V8.53395H11.1696C11.7323 7.65543 12.746 6.36469 15.054 6.36469C17.8698 6.36469 19.9804 8.20465 19.9804 12.1589V19.5406H15.702V12.6536C15.702 10.9231 15.0829 9.74223 13.5341 9.74223C12.3523 9.74223 11.648 10.5383 11.3387 11.3079C11.2256 11.5818 11.198 11.9665 11.198 12.3512V19.5406H6.91891Z" fill="white" fill-opacity="0.7"/>
</g>
<defs>
<clipPath id="clip0_18653_5885">
<rect width="20" height="20" fill="white"/>
</clipPath>
</defs>
</svg>
