<svg width="220" height="63" viewBox="0 0 220 63" fill="none" xmlns="http://www.w3.org/2000/svg">
<path d="M71.0845 24.2206C71.021 20.5971 69.7843 17.8878 67.3744 16.092C64.9641 14.2962 61.8568 13.3984 58.0511 13.3984C54.1191 13.3984 50.9636 14.3201 48.5851 16.1635C46.2069 18.0069 45.0177 20.4702 45.0177 23.5531C45.0177 24.5066 45.1365 25.3886 45.3744 26.1991C45.612 27.0096 45.8738 27.6931 46.1592 28.2491C46.4445 28.8051 46.9122 29.3378 47.5624 29.8462C48.2127 30.3549 48.7596 30.7521 49.2036 31.0381C49.6474 31.3241 50.353 31.642 51.3204 31.9916C52.2877 32.341 52.993 32.5876 53.4371 32.7306C53.8812 32.8736 54.6738 33.1042 55.8156 33.4217C55.9426 33.4535 56.0849 33.4932 56.2436 33.5408C56.402 33.5887 56.529 33.6284 56.6242 33.6599C56.7195 33.6917 56.8622 33.7235 57.0523 33.7553C60.3504 34.7088 62.5146 35.4557 63.5451 35.9959C64.5757 36.5364 65.0911 37.3945 65.0911 38.5704C65.0911 39.9687 64.5282 41.0734 63.4021 41.8839C62.2767 42.6944 60.7464 43.0995 58.812 43.0995C53.8331 43.0995 51.2804 40.9698 51.1535 36.711H43.7806C43.8121 40.5568 45.1204 43.5367 47.7048 45.6503C50.2895 47.7637 53.8805 48.8208 58.4788 48.8208C60.2863 48.8208 61.9907 48.6224 63.5923 48.2248C65.1939 47.8276 66.6685 47.2077 68.0162 46.3654C69.3641 45.5231 70.4343 44.379 71.2272 42.9328C72.0198 41.4867 72.4165 39.7942 72.4165 37.8554C72.4165 35.1854 71.5996 33.1354 69.9666 31.7053C68.3336 30.2749 65.852 29.0832 62.5224 28.1297C61.7612 27.907 60.8734 27.6689 59.8586 27.4147C58.8437 27.1605 58.0586 26.9538 57.5039 26.7951C56.9489 26.636 56.3307 26.4533 55.6487 26.2467C54.967 26.04 54.4516 25.8494 54.1027 25.6746C53.7542 25.4998 53.405 25.2774 53.0562 25.0071C52.7073 24.7369 52.4694 24.443 52.3427 24.1251C52.2158 23.8073 52.1523 23.4416 52.1523 23.0286C52.1523 21.8209 52.636 20.8753 53.603 20.1917C54.5704 19.5082 55.9102 19.1667 57.6224 19.1667C61.6179 19.1667 63.7585 20.8513 64.0439 24.2203H71.0839L71.0845 24.2206ZM192.336 26.4401H193.99V27.4008H192.336V32.4175L192.339 32.7618C192.342 32.8557 192.346 32.9291 192.351 32.9807C192.355 33.0305 192.366 33.0869 192.382 33.1477C192.398 33.2094 192.42 33.2775 192.447 33.3505C192.471 33.4148 192.505 33.4687 192.547 33.5112C192.589 33.5528 192.641 33.5855 192.702 33.6073C192.771 33.6315 192.851 33.6501 192.943 33.6621C193.038 33.6744 193.146 33.6807 193.268 33.6807C193.339 33.6807 193.427 33.6769 193.531 33.669C193.639 33.6614 193.762 33.6495 193.899 33.6344L193.989 33.624V34.631L193.918 34.6405C193.753 34.6619 193.6 34.6779 193.457 34.688C193.312 34.6984 193.176 34.7038 193.05 34.7038C192.553 34.7038 192.158 34.6235 191.868 34.4628C191.568 34.2974 191.379 34.0489 191.301 33.7181C191.237 33.4504 191.205 32.8547 191.205 31.9321V27.4002H189.785V26.4394H191.205V23.9843H192.335V26.4394L192.336 26.4401ZM200.708 31.8357H201.759L201.74 31.933C201.65 32.3945 201.506 32.8068 201.31 33.17C201.113 33.5342 200.862 33.8489 200.558 34.1135C200.254 34.3784 199.906 34.5775 199.517 34.7098C199.129 34.8417 198.698 34.9079 198.227 34.9079C197.09 34.9079 196.177 34.5176 195.49 33.7383C195.148 33.3493 194.89 32.8947 194.719 32.3766C194.549 31.8603 194.463 31.2794 194.463 30.6346C194.463 29.9901 194.55 29.4036 194.723 28.8753C194.896 28.3455 195.157 27.8739 195.505 27.4619C195.853 27.049 196.254 26.7384 196.706 26.5317C197.157 26.3248 197.66 26.2208 198.212 26.2208C198.79 26.2208 199.303 26.3238 199.75 26.5295C200.198 26.7355 200.578 27.0452 200.891 27.4575C201.51 28.2753 201.82 29.2874 201.82 30.4938V30.8567H195.626C195.633 31.2813 195.688 31.6728 195.792 32.0291C195.902 32.4065 196.068 32.747 196.289 33.0494C196.507 33.3483 196.779 33.5726 197.105 33.7216C197.433 33.8715 197.818 33.9468 198.259 33.9468C198.9 33.9468 199.417 33.7774 199.81 33.4387C200.204 33.0985 200.478 32.5854 200.63 31.8993L200.644 31.8354H200.709L200.708 31.8357ZM195.636 29.8962H200.668C200.606 29.0602 200.36 28.4044 199.93 27.9294C199.71 27.6856 199.454 27.5026 199.163 27.381C198.872 27.2594 198.544 27.198 198.18 27.198C197.786 27.198 197.439 27.2622 197.141 27.3907C196.846 27.518 196.597 27.7098 196.395 27.9647C196.189 28.2236 196.022 28.5216 195.894 28.8577C195.775 29.1705 195.688 29.517 195.636 29.8966L195.636 29.8962ZM208.475 31.6007H209.552L209.539 31.694C209.47 32.1702 209.343 32.6018 209.159 32.9864C208.974 33.372 208.731 33.7103 208.43 34.001C207.826 34.5844 207.04 34.8764 206.072 34.8764C205.5 34.8764 204.983 34.7791 204.523 34.5844C204.062 34.3894 203.658 34.0968 203.312 33.7074C202.967 33.3187 202.707 32.8658 202.535 32.3498C202.363 31.8354 202.277 31.2583 202.277 30.6195C202.277 29.9542 202.364 29.3541 202.536 28.8212C202.71 28.2857 202.971 27.8166 203.319 27.415C203.668 27.0124 204.075 26.7097 204.54 26.5081C205.005 26.3068 205.526 26.206 206.104 26.206C206.575 26.206 207.003 26.2687 207.387 26.3941C207.772 26.5194 208.114 26.7088 208.411 26.9604C208.707 27.2121 208.945 27.5126 209.123 27.861C209.3 28.2082 209.418 28.6035 209.476 29.0448L209.489 29.1371H208.33L208.317 29.0713C208.191 28.4381 207.945 27.9644 207.58 27.6516C207.216 27.3388 206.729 27.1825 206.119 27.1825C205.709 27.1825 205.343 27.2578 205.02 27.4074C204.698 27.5571 204.417 27.782 204.178 28.0822C203.938 28.3842 203.757 28.7396 203.636 29.1472C203.515 29.5576 203.454 30.0229 203.454 30.5414C203.454 31.0605 203.514 31.5257 203.631 31.9365C203.748 32.3447 203.923 32.7001 204.155 33.0015C204.387 33.3014 204.658 33.5266 204.969 33.6759C205.279 33.8252 205.632 33.9002 206.026 33.9002C206.355 33.9002 206.653 33.8517 206.919 33.7547C207.184 33.6583 207.42 33.5134 207.624 33.3203C207.83 33.1266 207.997 32.8928 208.125 32.6197C208.254 32.3447 208.344 32.0282 208.395 31.6713L208.405 31.601H208.475L208.475 31.6007ZM210.484 23.3433H211.533L211.529 26.5708L211.522 27.713C211.791 27.2679 212.123 26.923 212.517 26.6788C212.993 26.384 213.559 26.2363 214.213 26.2363C215.162 26.2363 215.882 26.4977 216.371 27.0209C216.616 27.2824 216.8 27.6002 216.922 27.9722C217.043 28.3411 217.104 28.7648 217.104 29.2426V34.6414H215.958V29.3677C215.958 28.6488 215.793 28.1118 215.465 27.7577C215.138 27.4052 214.642 27.2285 213.979 27.2285C213.559 27.2285 213.195 27.2997 212.888 27.4418C212.582 27.5829 212.331 27.7949 212.134 28.0768C211.733 28.6514 211.533 29.4001 211.533 30.3215V34.6414H210.402V23.343H210.484L210.484 23.3433ZM190.71 36.8899H191.759L191.755 40.1174L191.748 41.2596C192.016 40.8148 192.348 40.4695 192.742 40.2254C193.218 39.9306 193.785 39.7828 194.439 39.7828C195.388 39.7828 196.107 40.0446 196.597 40.5675C196.842 40.8293 197.025 41.1468 197.147 41.5188C197.268 41.888 197.329 42.3117 197.329 42.7892V48.1883H196.183V42.9143C196.183 42.1954 196.018 41.6583 195.69 41.3043C195.363 40.9518 194.868 40.7751 194.205 40.7751C193.785 40.7751 193.421 40.8466 193.113 40.9883C192.808 41.1295 192.556 41.3415 192.36 41.6234C191.959 42.1979 191.758 42.9464 191.758 43.8681V48.188H190.628V36.8896H190.71L190.71 36.8899ZM204.25 39.9863H205.299V48.1883H204.231V46.9305C203.619 47.9253 202.705 48.4227 201.488 48.4227C201.053 48.4227 200.661 48.3587 200.315 48.2318C199.968 48.1039 199.666 47.912 199.41 47.6559C199.154 47.3995 198.962 47.083 198.835 46.7075C198.708 46.3355 198.645 45.9045 198.645 45.4166V39.9863H199.791V44.9945C199.791 45.4056 199.829 45.7634 199.903 46.0677C199.977 46.3679 200.088 46.6174 200.235 46.8143C200.525 47.2039 201.027 47.3992 201.738 47.3992C202.117 47.3992 202.454 47.3306 202.749 47.1938C203.045 47.0574 203.3 46.8518 203.515 46.578C203.732 46.3024 203.896 45.9918 204.005 45.6478C204.114 45.3032 204.169 44.923 204.169 44.5094V39.9863H204.25ZM206.79 36.8899H207.823V41.235C207.915 41.0718 208.02 40.9212 208.139 40.7833C208.33 40.5593 208.556 40.3678 208.815 40.2097C209.075 40.0515 209.353 39.9328 209.65 39.8543C209.947 39.7756 210.263 39.7362 210.598 39.7362C211.155 39.7362 211.657 39.8351 212.103 40.0326C212.55 40.2305 212.94 40.5272 213.273 40.9225C213.605 41.3169 213.854 41.7774 214.02 42.3032C214.185 42.8273 214.268 43.417 214.268 44.0719C214.268 44.7365 214.184 45.3338 214.018 45.8614C213.851 46.3915 213.6 46.853 213.265 47.2446C212.594 48.0299 211.688 48.4227 210.551 48.4227C210.201 48.4227 209.874 48.3833 209.57 48.3045C209.266 48.2258 208.986 48.107 208.729 47.9489C208.317 47.695 207.994 47.3495 207.761 46.9138V48.188H206.709V36.8896H206.79V36.8899ZM211.544 40.9531C211.224 40.8034 210.861 40.7285 210.457 40.7285C210.047 40.7285 209.68 40.8038 209.358 40.9531C209.036 41.1024 208.755 41.3279 208.515 41.6281C208.275 41.9299 208.094 42.2852 207.974 42.6928C207.853 43.1033 207.792 43.5685 207.792 44.0873C207.792 44.6058 207.854 45.0714 207.976 45.4831C208.098 45.8926 208.281 46.2504 208.523 46.5541C208.765 46.8568 209.047 47.0839 209.371 47.2348C209.696 47.386 210.063 47.4616 210.473 47.4616C210.871 47.4616 211.23 47.386 211.548 47.2348C211.865 47.0839 212.144 46.8568 212.383 46.5544C212.623 46.2501 212.804 45.8926 212.924 45.4831C213.045 45.0714 213.106 44.6055 213.106 44.0867C213.106 43.5676 213.045 43.1026 212.924 42.6922C212.804 42.2846 212.623 41.9292 212.383 41.6272C212.144 41.3273 211.864 41.1021 211.544 40.9521L211.544 40.9531ZM112.007 48.0582V31.515C112.007 28.8451 111.285 26.7236 109.842 25.1501C108.399 23.577 106.33 22.7905 103.635 22.7905C100.242 22.7905 97.5622 24.1412 95.596 26.843C94.3593 24.1412 92.0442 22.7905 88.6512 22.7905C85.3848 22.7905 82.7844 24.1412 80.8503 26.843V23.458H74.4285V48.0585H81.1832V34.7094C81.1832 30.4188 82.8162 28.2734 86.0826 28.2734C87.5412 28.2734 88.5242 28.6945 89.0315 29.5368C89.5391 30.3788 89.7927 31.5629 89.7927 33.0888V48.0588H96.5473V34.2329C96.5473 30.2916 98.1169 28.3212 101.256 28.3212C102.842 28.3212 103.888 28.7585 104.396 29.6326C104.903 30.5067 105.157 31.7541 105.157 33.3751V48.0588H112.006L112.007 48.0582ZM138.135 48.0582C137.565 46.7235 137.279 44.4984 137.279 41.3837V30.7518C137.279 25.4122 133.712 22.7423 126.576 22.7423C119.378 22.7423 115.589 25.5074 115.208 31.0378H121.535C121.757 29.6395 122.232 28.6621 122.962 28.1058C123.691 27.5498 124.833 27.2717 126.386 27.2717C129.335 27.2717 130.81 28.3682 130.81 30.5612C130.81 31.515 130.406 32.1661 129.597 32.5161C128.789 32.8658 127.195 33.1997 124.817 33.5172C123.739 33.6444 122.898 33.7635 122.296 33.8747C121.693 33.9859 120.901 34.1525 119.918 34.3752C118.935 34.5976 118.165 34.884 117.61 35.2333C117.056 35.5829 116.469 36.0277 115.851 36.5683C115.232 37.1085 114.788 37.776 114.519 38.5707C114.249 39.3651 114.114 40.2868 114.114 41.3358C114.114 43.6558 114.891 45.4755 116.445 46.7944C117.999 48.1136 120.14 48.7729 122.867 48.7729C126.101 48.7729 128.749 47.7401 130.81 45.6743C130.906 46.6278 131.064 47.4225 131.286 48.0579H138.136L138.135 48.0582ZM130.762 36.0917V38.8567C130.762 40.5729 130.215 41.916 129.121 42.8853C128.027 43.8548 126.576 44.3393 124.769 44.3393C123.596 44.3393 122.684 44.0454 122.034 43.4573C121.384 42.8695 121.058 42.0666 121.058 41.0498C121.058 40.0008 121.407 39.1746 122.105 38.5707C122.708 38.0938 124.008 37.6966 126.006 37.3788C128.384 36.9973 129.97 36.5683 130.762 36.0914V36.0917ZM161.362 30.6091C161.267 27.9073 160.237 25.9209 158.271 24.6496C156.304 23.3783 153.783 22.7426 150.707 22.7426C147.282 22.7426 144.635 23.3943 142.764 24.6975C140.893 26.0006 139.957 27.8601 139.957 30.2755C139.957 30.9112 140.013 31.4993 140.124 32.0395C140.235 32.58 140.441 33.0645 140.742 33.4935C141.043 33.9226 141.321 34.2962 141.574 34.614C141.828 34.9318 142.216 35.2257 142.739 35.496C143.263 35.7663 143.683 35.9887 144 36.1635C144.317 36.3383 144.817 36.521 145.499 36.7116C146.18 36.9025 146.672 37.0376 146.973 37.117C147.275 37.1964 147.806 37.3158 148.567 37.4745C149.328 37.6336 149.819 37.7448 150.041 37.8081C150.136 37.8402 150.263 37.8717 150.422 37.9035C152.388 38.3486 153.736 38.7616 154.465 39.1431C155.195 39.5245 155.559 40.176 155.559 41.098C155.559 42.0197 155.155 42.7586 154.346 43.3146C153.538 43.8709 152.452 44.1487 151.088 44.1487C147.822 44.1487 146.077 42.7823 145.856 40.0487H139.434C139.466 43.0047 140.56 45.1977 142.717 46.6281C144.873 48.0582 147.616 48.7733 150.946 48.7733C154.434 48.7733 157.177 48.0264 159.175 46.5327C161.172 45.0386 162.171 43.0047 162.171 40.4302C162.171 39.3494 161.965 38.3959 161.553 37.5696C161.141 36.7434 160.665 36.0838 160.126 35.5911C159.587 35.0985 158.826 34.6534 157.843 34.2562C156.86 33.8589 156.027 33.5729 155.346 33.3981C154.664 33.2233 153.752 33.0248 152.611 32.8021C152.452 32.7703 152.198 32.7227 151.85 32.6591C149.883 32.2461 148.52 31.8647 147.759 31.515C146.998 31.1654 146.617 30.5455 146.617 29.6556C146.617 28.8927 146.95 28.2967 147.616 27.8676C148.282 27.4386 149.217 27.2238 150.422 27.2238C151.849 27.2238 152.936 27.478 153.681 27.9867C154.426 28.4954 154.894 29.3693 155.084 30.6091H161.363H161.362ZM170.89 14.1135H164.23V48.0582H170.89V35.5196C170.89 33.3584 171.262 31.6262 172.008 30.3231C172.753 29.0199 174.14 28.3682 176.17 28.3682C177.851 28.3682 178.992 28.813 179.594 29.7028C180.197 30.5927 180.498 31.8801 180.498 33.5644V48.0579H187.253V31.9437C187.253 25.8731 184.383 22.8377 178.643 22.8377C175.409 22.8377 172.824 24.1409 170.89 26.7472V14.1132L170.89 14.1135Z" fill="white"/>
<path fill-rule="evenodd" clip-rule="evenodd" d="M34.1767 31.1748L39.3046 22.2729C39.4171 22.0776 39.4171 21.8536 39.3046 21.658C39.1921 21.4627 38.9988 21.3505 38.7734 21.3505H25.4531C25.1152 21.3505 24.8396 21.0743 24.8396 20.7357V10.7168C24.8396 10.4909 24.7277 10.2972 24.5328 10.1844C24.3377 10.0713 24.1145 10.0713 23.9193 10.1844L2.74968 22.4348C2.45708 22.6039 2.3562 22.9813 2.52497 23.2746L7.09562 31.2088C7.20814 31.4044 7.20814 31.6277 7.09562 31.8233L1.96805 40.7252C1.85554 40.9209 1.85554 41.1445 1.96805 41.3401C2.08057 41.5354 2.27417 41.6476 2.49951 41.6476H15.8199C16.1577 41.6476 16.4334 41.9238 16.4334 42.2624V52.2813C16.4334 52.5072 16.5453 52.7009 16.7401 52.8137C16.9353 52.9265 17.1584 52.9265 17.3536 52.8137L38.5233 40.5633C38.8158 40.3942 38.9167 40.0168 38.748 39.7235L34.1773 31.7893C34.0648 31.5937 34.0648 31.3701 34.1773 31.1744L34.1767 31.1748ZM24.8396 22.4156V30.8673C24.8396 31.2059 25.1152 31.4822 25.4531 31.4822H31.7102C31.9918 31.4822 32.23 31.6652 32.3026 31.938C32.3755 32.2105 32.2605 32.4886 32.0166 32.6294L17.3527 41.1149C17.1575 41.2277 16.9343 41.228 16.7392 41.1149C16.5443 41.0021 16.4324 40.8084 16.4324 40.5826V32.1308C16.4324 31.7922 16.1568 31.5159 15.8189 31.5159H9.56151C9.27991 31.5159 9.04168 31.3326 8.96908 31.0601C8.89648 30.7876 9.0112 30.5095 9.25508 30.3687L23.919 21.8832C24.1142 21.7704 24.3377 21.7701 24.5328 21.8832C24.7277 21.996 24.8396 22.1897 24.8396 22.4156Z" fill="#F34F04"/>
<path d="M217.084 46.2344C217.654 46.2344 218.118 46.6984 218.118 47.2704C218.118 47.8428 217.654 48.3064 217.084 48.3064C216.513 48.3064 216.05 47.8428 216.05 47.2704C216.05 46.6984 216.513 46.2344 217.084 46.2344Z" fill="#F34F04"/>
</svg>
