<svg width="316" height="323" viewBox="0 0 316 323" fill="none" xmlns="http://www.w3.org/2000/svg">
<path d="M98.5931 4.8915C99.6498 4.25838 100.786 3.7695 101.973 3.43786L102.663 0.101754L108.303 0L109.117 3.3143C110.313 3.6091 111.464 4.06125 112.541 4.65891L115.39 2.79099L119.453 6.71581L117.687 9.62309C118.32 10.677 118.809 11.8113 119.14 12.9955L122.476 13.686L122.578 19.3261L119.264 20.1329C118.97 21.3288 118.518 22.4802 117.919 23.5562L119.787 26.4126L115.862 30.4683L112.955 28.7021C111.901 29.3356 110.767 29.8245 109.583 30.1557L108.856 33.4918L103.216 33.5936L102.402 30.2793C101.208 29.9845 100.06 29.5323 98.9856 28.9347L96.1292 30.8026L92.0517 26.885L93.8179 23.9778C93.1848 22.9211 92.6959 21.7844 92.3643 20.5981L89.0282 19.8712L88.9264 14.2311L92.2407 13.4171C92.5355 12.2215 92.9877 11.0704 93.5853 9.99376L91.7174 7.13737L95.6858 3.12532L98.5931 4.8915ZM101.602 12.4068C100.77 13.2678 100.212 14.3563 99.9984 15.5345C99.7849 16.7127 99.9255 17.9277 100.403 19.026C100.88 20.1243 101.671 21.0565 102.678 21.7047C103.685 22.3529 104.861 22.688 106.059 22.6677C107.256 22.6474 108.42 22.2725 109.404 21.5905C110.388 20.9085 111.148 19.9499 111.588 18.8361C112.027 17.7222 112.126 16.5031 111.873 15.3328C111.62 14.1626 111.025 13.0937 110.164 12.2614C109.591 11.7052 108.914 11.2676 108.172 10.9737C107.43 10.6799 106.637 10.5356 105.838 10.5491C105.04 10.5626 104.252 10.7336 103.52 11.0524C102.788 11.3713 102.127 11.8315 101.573 12.4068H101.602Z" fill="#E0E0E0"/>
<path d="M99.9014 192.075C100.51 191.708 101.165 191.425 101.849 191.232L102.249 189.306L105.505 189.248L105.97 191.16C106.661 191.326 107.326 191.586 107.947 191.93L109.59 190.854L111.93 193.115L110.949 194.779C111.316 195.388 111.6 196.043 111.792 196.727L113.718 197.127L113.776 200.383L111.865 200.848C111.698 201.539 111.439 202.204 111.094 202.825L112.17 204.468L109.91 206.808L108.231 205.79C107.621 206.157 106.966 206.442 106.283 206.641L105.861 208.589L102.605 208.647L102.14 206.735C101.449 206.568 100.784 206.309 100.163 205.965L98.5204 207.041L96.1801 204.78L97.1976 203.101C96.8314 202.491 96.5456 201.837 96.3473 201.153L94.4284 200.754L94.3703 197.497L96.2818 197.032C96.4488 196.342 96.7079 195.677 97.0523 195.055L95.9766 193.413L98.237 191.072L99.9159 192.09L99.9014 192.075ZM101.638 196.436C101.157 196.933 100.834 197.562 100.71 198.243C100.586 198.924 100.667 199.626 100.943 200.26C101.218 200.895 101.676 201.434 102.258 201.808C102.84 202.183 103.52 202.376 104.212 202.364C104.903 202.352 105.576 202.134 106.144 201.74C106.713 201.345 107.151 200.79 107.404 200.146C107.657 199.502 107.713 198.798 107.565 198.122C107.417 197.446 107.072 196.829 106.574 196.349C106.246 196.029 105.858 195.776 105.433 195.606C105.007 195.435 104.552 195.35 104.094 195.356C103.636 195.361 103.183 195.457 102.762 195.637C102.34 195.818 101.959 196.079 101.638 196.407V196.436Z" fill="#E0E0E0"/>
<path d="M29.0219 22.8365C29.4378 22.585 29.885 22.3895 30.352 22.255L30.6282 20.9395H32.845L33.1793 22.2041C33.6504 22.3238 34.1045 22.502 34.5312 22.7347L35.6505 22.0079L37.2495 23.5487L36.5227 24.6971C36.7742 25.113 36.9697 25.5602 37.1042 26.0272L38.4197 26.3034V28.4838L37.1114 28.8036C36.9976 29.2755 36.8217 29.7301 36.5881 30.1555L37.3149 31.2748L35.7741 32.8738L34.6257 32.147C34.2099 32.3985 33.7626 32.594 33.2956 32.7285L33.0194 34.044H30.839L30.5192 32.7357C30.0474 32.6219 29.5928 32.446 29.1673 32.2124L28.048 32.9392L26.449 31.3911L27.1758 30.25C26.9243 29.8342 26.7288 29.3869 26.5943 28.9199L25.2788 28.6437L25.2425 26.4633L26.5435 26.1435C26.6631 25.6724 26.8414 25.2183 27.074 24.7916L26.3472 23.6723L27.8881 22.0733L29.0365 22.8001L29.0219 22.8365ZM30.2066 25.7946C29.8793 26.1338 29.6598 26.5624 29.5759 27.0263C29.4921 27.4902 29.5477 27.9686 29.7357 28.4009C29.9237 28.8332 30.2356 29.2001 30.632 29.4551C31.0285 29.7102 31.4917 29.842 31.963 29.8339C32.4344 29.8257 32.8927 29.6781 33.2801 29.4095C33.6676 29.1409 33.9666 28.7635 34.1396 28.3249C34.3126 27.8864 34.3516 27.4064 34.2519 26.9457C34.1521 26.485 33.918 26.0642 33.5791 25.7365C33.3539 25.5187 33.088 25.3475 32.7966 25.2325C32.5052 25.1176 32.194 25.0612 31.8808 25.0666C31.5676 25.072 31.2585 25.1391 30.9713 25.264C30.684 25.3889 30.4242 25.5692 30.2066 25.7946Z" fill="#E0E0E0"/>
<path d="M137.522 18.1635C138.341 17.6679 139.224 17.2842 140.145 17.0224L140.683 14.4276L145.044 14.3477L145.676 16.9279C146.608 17.1557 147.506 17.5077 148.344 17.9745L150.524 16.5208L153.744 19.6171L152.378 21.8557C152.875 22.6773 153.259 23.5623 153.519 24.4868L156.121 25.0246L156.194 29.3856L153.621 30.0179C153.386 30.9547 153.03 31.8564 152.559 32.6998L154.013 34.9239L150.968 38.0783L148.7 36.7046C147.879 37.1986 146.997 37.5823 146.076 37.8457L145.531 40.4405L141.17 40.5204L140.538 37.9402C139.596 37.7177 138.689 37.3681 137.841 36.9009L135.661 38.3545L132.499 35.3091L133.873 33.0415C133.378 32.2185 132.995 31.3338 132.732 30.4104L130.137 29.8725L130.057 25.5116L132.637 24.8793C132.865 23.9496 133.217 23.0548 133.684 22.2191L132.23 19.995L135.276 16.8406L137.522 18.1635ZM139.862 23.978C139.215 24.6487 138.782 25.4961 138.617 26.413C138.452 27.3299 138.563 28.2751 138.935 29.1291C139.308 29.9831 139.925 30.7075 140.709 31.2106C141.493 31.7138 142.409 31.9732 143.34 31.9559C144.271 31.9386 145.177 31.6455 145.942 31.1135C146.707 30.5816 147.296 29.8348 147.637 28.9676C147.977 28.1004 148.053 27.1517 147.854 26.2416C147.655 25.3314 147.191 24.5007 146.52 23.8545C146.071 23.4284 145.543 23.0951 144.965 22.8736C144.387 22.652 143.772 22.5467 143.153 22.5636C142.535 22.5805 141.926 22.7192 141.361 22.9719C140.796 23.2246 140.287 23.5863 139.862 24.0362V23.978Z" fill="#EBEBEB"/>
<path d="M253.558 126.532C254.61 125.899 255.742 125.41 256.924 125.078L257.65 121.742L263.283 121.641L264.097 124.955C265.294 125.246 266.445 125.699 267.521 126.3L270.362 124.432L274.418 128.349L272.659 131.256C273.289 132.312 273.777 133.446 274.113 134.629L277.449 135.356L277.551 140.989L274.236 141.803C273.945 142.997 273.492 144.146 272.892 145.219L274.76 148.068L270.849 152.08L267.942 150.314C266.888 150.946 265.754 151.435 264.57 151.767L263.843 155.103L258.21 155.198L257.396 151.898C256.203 151.603 255.054 151.151 253.98 150.553L251.131 152.421L247.075 148.504L248.841 145.597C248.208 144.545 247.719 143.413 247.388 142.231L244.052 141.505L243.957 135.908L247.264 135.094C247.559 133.898 248.011 132.747 248.609 131.671L246.741 128.829L250.658 124.773L253.566 126.539L253.558 126.532ZM256.56 134.04C255.73 134.901 255.174 135.989 254.962 137.165C254.75 138.342 254.892 139.556 255.37 140.652C255.847 141.748 256.639 142.678 257.645 143.325C258.651 143.971 259.826 144.305 261.022 144.283C262.217 144.262 263.38 143.887 264.362 143.205C265.344 142.523 266.102 141.565 266.54 140.453C266.978 139.34 267.077 138.122 266.823 136.954C266.569 135.785 265.975 134.718 265.115 133.888C264.544 133.335 263.869 132.9 263.13 132.608C262.39 132.317 261.601 132.174 260.806 132.188C260.011 132.202 259.227 132.373 258.498 132.691C257.77 133.009 257.111 133.467 256.56 134.04Z" fill="#E0E0E0"/>
<path d="M293.381 16.8693C293.385 14.5216 292.848 12.2046 291.811 10.0985C290.774 7.99237 289.265 6.15386 287.401 4.72597C285.538 3.29807 283.37 2.31927 281.067 1.8657C278.763 1.41213 276.386 1.49601 274.12 2.11083C271.855 2.72564 269.761 3.8548 268.003 5.41051C266.245 6.96621 264.869 8.90651 263.983 11.0805C263.097 13.2545 262.725 15.6036 262.894 17.9451C263.064 20.2866 263.772 22.5574 264.962 24.5808L265.006 24.639C265.587 25.6274 266.321 26.3324 267.063 27.3645L275.937 39.1099C276.195 39.4433 276.525 39.7132 276.903 39.8989C277.281 40.0846 277.696 40.1812 278.118 40.1812C278.539 40.1812 278.954 40.0846 279.332 39.8989C279.71 39.7132 280.041 39.4433 280.298 39.1099L289.02 27.5608C289.812 26.6336 290.552 25.663 291.237 24.6535L291.273 24.6099C292.657 22.2654 293.385 19.5918 293.381 16.8693ZM278.118 23.5124C276.79 23.5109 275.492 23.1158 274.388 22.377C273.285 21.6382 272.425 20.5888 271.918 19.3616C271.411 18.1343 271.279 16.7842 271.539 15.4819C271.799 14.1797 272.439 12.9837 273.379 12.0452C274.318 11.1067 275.515 10.4678 276.817 10.2093C278.12 9.95073 279.47 10.0842 280.697 10.5927C281.923 11.1012 282.972 11.962 283.709 13.0662C284.447 14.1705 284.841 15.4686 284.841 16.7966C284.841 17.6791 284.667 18.553 284.329 19.3683C283.991 20.1836 283.496 20.9242 282.871 21.5479C282.247 22.1717 281.506 22.6662 280.69 23.0033C279.874 23.3403 279 23.5133 278.118 23.5124Z" fill="#E0E0E0"/>
<path d="M24.6537 236.535C26.2005 235.46 27.3976 233.954 28.0965 232.205C28.7955 230.455 28.9656 228.539 28.5858 226.694C27.5901 221.468 22.7713 217.972 17.9089 218.91C13.0464 219.847 9.84116 224.833 10.8369 230.067C11.1621 231.938 12.0352 233.672 13.3459 235.047C14.6565 236.422 16.3457 237.378 18.1996 237.793C4.95693 242.502 8.46747 257.213 8.46747 257.213L40.7601 251.079C40.7601 251.079 38.5796 235.947 24.6537 236.535Z" fill="#EBEBEB"/>
<path d="M63.7784 299.246L57.1644 297.603C57.1644 297.603 55.7907 303.185 49.9616 301.855C48.8346 301.62 47.8089 301.039 47.0273 300.193C46.2458 299.348 45.7471 298.28 45.6007 297.138C45.4632 296.181 45.5542 295.206 45.8662 294.291C46.1782 293.377 46.7024 292.549 47.3959 291.876C48.9804 290.291 51.8731 289.208 56.1178 291.105L59.8173 276.111L53.2395 274.49L51.0591 283.277C51.0591 283.277 41.2543 283.387 38.754 293.547C36.3555 303.272 44.5177 307.677 48.2536 308.593C51.1172 309.298 61.0093 311.006 63.7784 299.246Z" fill="#EBEBEB"/>
<path d="M53.9168 271.386L60.5858 273.029L62.1211 266.798L55.452 265.155L53.9168 271.386Z" fill="#EBEBEB"/>
<path d="M315.999 321.902C315.999 322.004 245.251 322.091 158.003 322.091C70.7559 322.091 0 321.975 0 321.902C0 321.829 70.7268 321.713 158.003 321.713C245.28 321.713 315.999 321.793 315.999 321.902Z" fill="black"/>
<path d="M17.9161 138.962H33.0994L31.762 145.772H4.4118L5.49477 140.357L21.9572 127.456C26.0274 124.2 27.2703 122.296 27.2703 119.919C27.2703 117.542 25.4605 115.943 21.9572 115.943C20.4786 115.965 19.0233 116.315 17.6961 116.968C16.3689 117.62 15.2029 118.558 14.282 119.715L8.65643 115.638C11.5637 111.662 16.964 109.031 23.1928 109.031C30.8317 109.031 35.8322 113.109 35.8322 118.734C35.8322 123.015 33.8771 126.628 27.5247 131.534L17.9161 138.962Z" fill="#263238"/>
<path d="M69.2732 138.191H63.3424L61.8451 145.771H53.6902L55.2383 138.191H35.7813L36.8643 132.565L58.1311 109.648H67.2599L47.4468 131.373H56.9391L58.2837 124.614H66.0752L64.7306 131.373H70.6687L69.2732 138.191Z" fill="#263238"/>
<path d="M93.1129 102.32H100.65L74.1284 150.93H66.6131L93.1129 102.32Z" fill="#263238"/>
<path d="M127.535 109.648L126.452 115.071L107.155 145.771H97.8663L116.386 116.459H104.677L103.485 122.346H96.0565L98.5931 109.648H127.535Z" fill="#263238"/>
<path d="M1.03207 174.27L3.14712 170.258C5.03217 171.462 7.21903 172.11 9.45592 172.126C11.5201 172.126 12.7121 171.479 12.7121 170.447C12.7121 167.896 3.49599 169.306 3.49599 163.346C3.49599 159.254 6.992 156.572 12.603 156.572C14.9828 156.493 17.34 157.055 19.4279 158.2L17.48 162.183C15.9159 161.22 14.1126 160.716 12.276 160.729C10.0519 160.729 8.85992 161.543 8.85992 162.575C8.85992 165.177 18.076 163.687 18.076 169.538C18.076 173.601 14.5 176.283 8.94714 176.283C5.69099 176.298 2.7401 175.433 1.03207 174.27Z" fill="#263238"/>
<path d="M27.6337 161.098L27.0159 164.296H35.4397L34.633 168.301H26.2019L25.5186 171.775H35.4688L34.5966 175.918H19.3698L23.1928 156.984H38.0418L37.1986 161.135L27.6337 161.098Z" fill="#263238"/>
<path d="M51.8804 170.227L55.1075 175.918H49.4964L46.6764 170.881H43.9726L42.9696 175.918H37.6057L41.3924 156.984H49.4964C54.3443 156.984 57.1353 159.238 57.1353 163.032C57.1734 164.642 56.679 166.22 55.7289 167.521C54.7789 168.822 53.4261 169.773 51.8804 170.227ZM48.7405 161.178H45.9205L44.8084 166.731H48.0064C50.3686 166.731 51.7496 165.597 51.7496 163.511C51.7205 161.912 50.5794 161.178 48.7405 161.178Z" fill="#263238"/>
<path d="M80.6479 156.984L68.7935 175.918H63.5095L59.1631 156.984H64.6652L67.3762 169.34L75.1241 156.984H80.6479Z" fill="#263238"/>
<path d="M81.7818 156.984H87.153L83.3299 175.918H77.966L81.7818 156.984Z" fill="#263238"/>
<path d="M87.9888 167.952C87.9888 161.367 92.8367 156.57 99.8796 156.57C103.376 156.57 106.225 157.85 107.577 160.146L103.681 163.235C103.246 162.53 102.628 161.956 101.894 161.572C101.16 161.188 100.336 161.01 99.5089 161.055C95.8239 161.055 93.3818 163.897 93.3818 167.633C93.3818 170.184 95.1189 171.892 98.0189 171.892C98.9043 171.896 99.7794 171.702 100.58 171.325C101.381 170.948 102.088 170.396 102.649 169.711L105.818 172.822C103.681 175.402 100.89 176.347 97.5029 176.347C91.7028 176.296 87.9888 172.909 87.9888 167.952Z" fill="#263238"/>
<path d="M115.404 161.098L114.779 164.296H123.203L122.418 168.301H113.965L113.289 171.775H123.232L122.367 175.918H107.17L110.949 156.984H125.798L124.962 161.135L115.404 161.098Z" fill="#263238"/>
<path d="M21.6592 98.9574H11.0695C11.0695 84.2175 17.0366 69.1579 27.4374 57.6014C38.3833 45.4563 52.5927 38.7695 67.4125 38.7695C97.6991 38.7695 118.857 60.8794 118.857 92.5542H108.289C108.289 66.7303 91.87 49.3811 67.4343 49.3811C43.4784 49.3593 21.6592 72.9955 21.6592 98.9574Z" fill="#280D01"/>
<path d="M27.4665 96.0123C29.16 96.0123 30.5337 96.1794 30.5264 96.3321C30.5191 96.4847 29.1527 96.601 27.4665 96.601C25.7803 96.601 24.3993 96.4629 24.3993 96.2812C24.3993 96.0995 25.7803 95.9832 27.4665 96.0123Z" fill="#263238"/>
<path d="M34.7783 72.799C36.232 73.7294 37.2132 74.6815 37.0533 74.9359C36.8934 75.1903 35.5996 74.6742 34.146 73.7948C32.6923 72.9153 31.7257 71.9487 31.8783 71.6579C32.0309 71.3672 33.361 71.876 34.7783 72.799Z" fill="#263238"/>
<path d="M53.0942 56.7996C53.7847 58.3478 54.1263 59.7069 53.821 59.8232C53.5158 59.9395 52.7381 58.8129 51.9967 57.2939C51.2554 55.7748 50.9137 54.3866 51.2699 54.2703C51.626 54.154 52.411 55.2297 53.0942 56.7996Z" fill="#263238"/>
<path d="M77.2246 54.8965C76.803 56.5391 76.2288 57.8037 75.9454 57.7456C75.6619 57.6874 75.7201 56.2919 76.0835 54.6275C76.4469 52.9631 77.0138 51.7203 77.3627 51.7857C77.7116 51.8511 77.6462 53.2611 77.2246 54.8965Z" fill="#263238"/>
<path d="M96.936 68.7495C95.526 69.6798 94.254 70.2467 94.0869 70.0142C93.9197 69.7816 94.9009 68.7786 96.2673 67.7828C97.6337 66.7871 98.9129 66.2274 99.1164 66.5182C99.32 66.8089 98.346 67.8119 96.936 68.7495Z" fill="#263238"/>
<path d="M103.426 91.5717C101.74 91.5717 100.367 91.4409 100.367 91.2955C100.367 91.1501 101.733 91.0048 103.426 90.983C105.12 90.9612 106.486 91.0847 106.494 91.2592C106.501 91.4336 105.134 91.5717 103.426 91.5717Z" fill="#263238"/>
<path d="M64.5416 94.7245C64.014 94.7281 63.501 94.5512 63.0879 94.223L45.2881 80.4134C44.7946 80.0279 44.4745 79.4621 44.3982 78.8406C44.3219 78.219 44.4956 77.5926 44.8811 77.0991C45.2666 76.6056 45.8324 76.2855 46.454 76.2092C47.0755 76.1329 47.7019 76.3066 48.1954 76.6921L64.4326 89.2806L86.855 68.6898C87.3128 68.2648 87.9207 68.039 88.5449 68.0622C89.1692 68.0853 89.7587 68.3556 90.1838 68.8134C90.6088 69.2712 90.8346 69.8791 90.8114 70.5034C90.7883 71.1277 90.518 71.7172 90.0602 72.1422L66.1697 94.0922C65.7273 94.5026 65.145 94.7287 64.5416 94.7245Z" fill="#280D01"/>
<path d="M76.6141 23.1992H56.205C55.8879 23.1992 55.6308 23.4563 55.6308 23.7734V31.1652C55.6308 31.4823 55.8879 31.7393 56.205 31.7393H76.6141C76.9312 31.7393 77.1883 31.4823 77.1883 31.1652V23.7734C77.1883 23.4563 76.9312 23.1992 76.6141 23.1992Z" fill="#280D01"/>
<path d="M71.977 27.4727H60.8348V37.5754H71.977V27.4727Z" fill="#280D01"/>
<path d="M20.4166 49.3369L12.0469 59.7022C11.7216 60.105 11.7845 60.6954 12.1874 61.0207L17.91 65.6416C18.3129 65.9669 18.9032 65.904 19.2286 65.5012L27.5983 55.1359C27.9236 54.733 27.8607 54.1427 27.4578 53.8173L21.7351 49.1964C21.3323 48.8711 20.742 48.934 20.4166 49.3369Z" fill="#280D01"/>
<path d="M76.6141 31.7415C76.6141 31.865 72.0424 31.9595 66.4386 31.9595C60.8348 31.9595 56.2631 31.865 56.2631 31.7415C56.2631 31.6179 60.8276 31.5234 66.4386 31.5234C72.0497 31.5234 76.6141 31.6252 76.6141 31.7415Z" fill="#263238"/>
<path d="M20.2274 63.7196C20.1111 63.8504 18.5702 62.673 16.666 61.2412C14.7617 59.8093 13.2136 58.6464 13.3081 58.501C13.4025 58.3557 15.1106 59.3005 17.0366 60.7469C18.9627 62.1933 20.3364 63.596 20.2274 63.7196Z" fill="#263238"/>
<path d="M22.0008 61.1102C21.8846 61.2411 20.3437 60.0636 18.4394 58.6318C16.5352 57.1999 14.9798 56.037 15.0742 55.8917C15.1687 55.7463 16.884 56.6912 18.8101 58.1448C20.7362 59.5984 22.1099 60.9867 22.0008 61.1102Z" fill="#263238"/>
<path d="M24.174 58.9227C24.065 59.0536 22.5241 57.8761 20.6199 56.4443C18.7156 55.0124 17.1893 53.8495 17.2547 53.7042C17.3201 53.5588 19.0645 54.5037 20.9833 55.9573C22.9021 57.4109 24.2903 58.7992 24.174 58.9227Z" fill="#263238"/>
<path d="M26.2818 56.3134C26.1728 56.4442 24.6246 55.2667 22.7204 53.8349C20.8161 52.4031 19.268 51.2402 19.3697 51.0948C19.4715 50.9494 21.1795 51.8943 23.0983 53.3479C25.0171 54.8016 26.3908 56.1898 26.2818 56.3134Z" fill="#263238"/>
<path d="M117.641 52.6127L108.632 42.7981C108.282 42.4167 107.688 42.3913 107.307 42.7415L101.888 47.7154C101.507 48.0656 101.481 48.6587 101.832 49.0402L110.841 58.8548C111.191 59.2362 111.784 59.2616 112.166 58.9115L117.584 53.9375C117.966 53.5873 117.991 52.9942 117.641 52.6127Z" fill="#280D01"/>
<path d="M103.441 50.3021C103.332 50.1712 104.72 48.8484 106.421 47.1477C108.122 45.4469 109.495 44.1168 109.626 44.2404C109.757 44.3639 108.572 45.9121 106.85 47.5983C105.127 49.2845 103.543 50.4256 103.441 50.3021Z" fill="#263238"/>
<path d="M105.76 52.4407C105.643 52.3099 107.039 50.9871 108.732 49.2863C110.426 47.5856 111.814 46.2555 111.945 46.3791C112.076 46.5026 110.884 48.0507 109.168 49.737C107.453 51.4232 105.861 52.5643 105.76 52.4407Z" fill="#263238"/>
<path d="M107.598 54.9192C107.482 54.7884 108.878 53.4656 110.571 51.7648C112.265 50.0641 113.653 48.734 113.784 48.8576C113.914 48.9811 112.722 50.522 111 52.2082C109.277 53.8944 107.7 55.0428 107.598 54.9192Z" fill="#263238"/>
<path d="M109.866 57.4114C109.75 57.2806 111.145 55.9578 112.839 54.257C114.532 52.5563 115.921 51.2262 116.051 51.3498C116.182 51.4733 114.99 53.0214 113.268 54.7077C111.545 56.3939 109.968 57.5132 109.866 57.4114Z" fill="#263238"/>
<path d="M58.4945 31.7324C58.3273 31.7324 58.1892 29.8427 58.1892 27.5241C58.1892 25.2056 58.3273 23.3086 58.4945 23.3086C58.6617 23.3086 58.807 25.1983 58.807 27.5241C58.807 29.85 58.6689 31.7324 58.4945 31.7324Z" fill="#263238"/>
<path d="M62.492 31.7324C62.3248 31.7324 62.1867 29.8427 62.1867 27.5241C62.1867 25.2056 62.3248 23.3086 62.492 23.3086C62.6591 23.3086 62.7972 25.1983 62.7972 27.5241C62.7972 29.85 62.6591 31.7324 62.492 31.7324Z" fill="#263238"/>
<path d="M66.4822 31.7324C66.315 31.7324 66.1769 29.8427 66.1769 27.5241C66.1769 25.2056 66.315 23.3086 66.4822 23.3086C66.6494 23.3086 66.7875 25.1983 66.7875 27.5241C66.7875 29.85 66.6566 31.7324 66.4822 31.7324Z" fill="#263238"/>
<path d="M70.4797 31.7324C70.3053 31.7324 70.1744 29.8427 70.1744 27.5241C70.1744 25.2056 70.3053 23.3086 70.4797 23.3086C70.6541 23.3086 70.785 25.1983 70.785 27.5241C70.785 29.85 70.6469 31.7324 70.4797 31.7324Z" fill="#263238"/>
<path d="M74.47 31.7324C74.3028 31.7324 74.1647 29.8427 74.1647 27.5241C74.1647 25.2056 74.3028 23.3086 74.47 23.3086C74.6371 23.3086 74.7752 25.1983 74.7752 27.5241C74.7752 29.85 74.6081 31.7324 74.47 31.7324Z" fill="#263238"/>
<path d="M68.8617 95.3348C70.9451 93.2514 70.9451 89.8736 68.8617 87.7902C66.7784 85.7068 63.4005 85.7068 61.3171 87.7902C59.2337 89.8736 59.2337 93.2514 61.3171 95.3348C63.4005 97.4182 66.7784 97.4182 68.8617 95.3348Z" fill="#280D01"/>
<path d="M70.4216 91.5713C70.3707 91.5713 70.378 91.0989 70.1526 90.2921C69.8294 89.1663 69.1418 88.1796 68.1975 87.4866C67.4406 86.9245 66.5424 86.5838 65.6031 86.5025C64.6638 86.4212 63.7204 86.6025 62.8782 87.0262C62.0359 87.4498 61.3279 88.0991 60.8333 88.9017C60.3386 89.7043 60.0766 90.6285 60.0766 91.5713C60.0766 92.5141 60.3386 93.4384 60.8333 94.2409C61.3279 95.0435 62.0359 95.6928 62.8782 96.1165C63.7204 96.5401 64.6638 96.7214 65.6031 96.6401C66.5424 96.5588 67.4406 96.2181 68.1975 95.656C69.1402 94.9615 69.8274 93.9754 70.1526 92.8505C70.378 92.0437 70.3707 91.5713 70.4216 91.5713C70.4725 91.5713 70.4216 91.6876 70.4216 91.9129C70.4331 92.2455 70.3988 92.5781 70.3198 92.9014C70.0589 94.1148 69.3797 95.198 68.401 95.9613C67.6697 96.5354 66.8051 96.9152 65.8875 97.0651C64.97 97.2151 64.0294 97.1304 63.1534 96.819C62.0689 96.4346 61.1301 95.7237 60.4661 94.784C59.8022 93.8443 59.4457 92.7219 59.4457 91.5713C59.4457 90.4207 59.8022 89.2984 60.4661 88.3587C61.1301 87.419 62.0689 86.708 63.1534 86.3237C64.0291 86.0133 64.9689 85.9285 65.8861 86.0771C66.8032 86.2257 67.6681 86.603 68.401 87.1741C69.3793 87.9409 70.0582 89.0261 70.3198 90.2412C70.3988 90.5645 70.4331 90.8971 70.4216 91.2297C70.4579 91.4405 70.4434 91.5713 70.4216 91.5713Z" fill="#263238"/>
<path d="M252.875 109.842L261.99 108.389C267.963 113.209 275.524 115.62 283.185 115.148C290.847 114.676 298.054 111.355 303.392 105.838C308.729 100.322 311.809 93.008 312.027 85.3353C312.245 77.6625 309.586 70.1857 304.571 64.3746C299.556 58.5635 292.548 54.8386 284.926 53.932C277.304 53.0255 269.619 55.003 263.38 59.4757C257.142 63.9484 252.803 70.5927 251.215 78.1026C249.628 85.6125 250.907 93.4446 254.801 100.059L252.875 109.842Z" fill="white"/>
<path d="M252.875 109.844C252.875 109.844 252.875 109.64 252.977 109.226L253.326 107.365C253.638 105.693 254.103 103.244 254.707 100.046C254.708 100.036 254.712 100.026 254.718 100.017C254.724 100.008 254.732 100.001 254.741 99.9951C254.75 99.9896 254.76 99.9861 254.77 99.9848C254.781 99.9836 254.791 99.9847 254.801 99.988C254.808 99.9841 254.815 99.9821 254.823 99.9821C254.831 99.9821 254.838 99.9841 254.845 99.988L254.714 100.09C252.113 95.6992 250.642 90.732 250.433 85.6333C250.369 84.0465 250.429 82.4571 250.615 80.8799C250.831 79.1916 251.176 77.5223 251.647 75.8866C253.364 69.9569 256.821 64.6792 261.572 60.7371C266.323 56.7951 272.147 54.3703 278.292 53.7768C283.113 53.3218 287.974 54.0108 292.479 55.7877C296.983 57.5646 301.005 60.3793 304.218 64.0031L305.453 65.4568C305.839 65.9655 306.18 66.4961 306.558 67.0049C307.276 68.0392 307.929 69.117 308.513 70.232C308.833 70.7698 309.037 71.3658 309.305 71.9255C309.574 72.4851 309.851 73.0448 310.032 73.6408C310.463 74.7943 310.82 75.9742 311.101 77.1731C312.219 81.832 312.256 86.685 311.21 91.3606C309.808 97.4405 306.595 102.952 301.994 107.167C297.394 111.382 291.623 114.102 285.444 114.968C283.746 115.198 282.033 115.298 280.32 115.266C278.729 115.19 277.144 115.02 275.574 114.757C270.573 113.826 265.885 111.657 261.939 108.448H262.004L255.186 109.473L253.449 109.727L252.875 109.807L253.478 109.698L255.23 109.408L261.975 108.288H262.04C265.983 111.444 270.649 113.57 275.617 114.473C277.176 114.733 278.749 114.896 280.327 114.96C282.029 114.988 283.73 114.883 285.415 114.648C291.52 113.765 297.215 111.057 301.754 106.881C306.294 102.705 309.466 97.2544 310.854 91.2443C311.88 86.6224 311.838 81.8271 310.73 77.224C310.445 76.042 310.093 74.8772 309.676 73.7353C309.494 73.1465 309.189 72.6087 308.949 72.0418C308.709 71.4748 308.477 70.9007 308.164 70.3701C307.589 69.2686 306.943 68.2053 306.231 67.1866C305.868 66.6778 305.504 66.1545 305.141 65.653L303.92 64.1994C300.746 60.6197 296.775 57.8377 292.326 56.0787C287.877 54.3197 283.077 53.6332 278.314 54.0748C274.097 54.4914 270.012 55.7781 266.318 57.8536C262.624 59.929 259.4 62.7481 256.851 66.1327C254.629 69.0936 252.969 72.4364 251.952 75.9957C251.482 77.6148 251.135 79.2669 250.913 80.938C250.72 82.5025 250.652 84.0798 250.709 85.6551C250.887 90.7183 252.313 95.6592 254.859 100.039C254.873 100.054 254.881 100.073 254.881 100.093C254.881 100.114 254.873 100.133 254.859 100.148C254.845 100.16 254.827 100.166 254.809 100.166C254.79 100.166 254.772 100.16 254.758 100.148L254.888 100.104C254.249 103.266 253.755 105.693 253.435 107.372C253.268 108.194 253.137 108.826 253.05 109.248C252.962 109.669 252.875 109.844 252.875 109.844Z" fill="#263238"/>
<path d="M290.59 85.3792C290.588 84.7619 290.77 84.1581 291.112 83.6442C291.454 83.1303 291.941 82.7295 292.511 82.4926C293.081 82.2557 293.709 82.1934 294.314 82.3135C294.92 82.4335 295.476 82.7307 295.913 83.1672C296.349 83.6037 296.646 84.1599 296.766 84.7654C296.886 85.371 296.824 85.9985 296.587 86.5685C296.35 87.1386 295.95 87.6255 295.436 87.9675C294.922 88.3096 294.318 88.4914 293.701 88.49C292.876 88.4881 292.086 88.1597 291.503 87.5768C290.92 86.9938 290.592 86.2037 290.59 85.3792Z" fill="#263238"/>
<path d="M278.118 85.3792C278.116 84.7622 278.298 84.1587 278.64 83.645C278.981 83.1312 279.468 82.7305 280.037 82.4933C280.607 82.2562 281.234 82.1934 281.84 82.3129C282.445 82.4324 283.001 82.7288 283.438 83.1646C283.875 83.6004 284.172 84.1559 284.293 84.761C284.414 85.366 284.353 85.9933 284.117 86.5635C283.881 87.1337 283.482 87.6211 282.969 87.964C282.456 88.307 281.853 88.49 281.236 88.49C280.41 88.49 279.618 88.1625 279.033 87.5793C278.449 86.9962 278.12 86.2049 278.118 85.3792Z" fill="#263238"/>
<path d="M265.682 86.9332C265.373 86.3991 265.23 85.7856 265.271 85.1702C265.311 84.5548 265.533 83.9652 265.908 83.4759C266.284 82.9866 266.796 82.6196 267.38 82.4214C267.964 82.2231 268.593 82.2025 269.189 82.3621C269.785 82.5217 270.32 82.8543 270.726 83.318C271.133 83.7817 271.393 84.3555 271.473 84.9669C271.554 85.5783 271.451 86.1999 271.178 86.753C270.906 87.3061 270.475 87.7659 269.941 88.0743C269.224 88.4857 268.374 88.5967 267.576 88.3829C266.778 88.169 266.097 87.6478 265.682 86.9332Z" fill="#263238"/>
<path d="M47.9265 196.959C46.015 196.05 42.7952 194.153 40.8037 193.412C38.8351 192.57 36.6389 192.421 34.5748 192.991C33.4046 193.383 32.2345 194.321 32.2272 195.556L40.0405 201.32L47.9265 199.241V196.959Z" fill="#FF9A6C"/>
<path d="M39.3791 196.879C39.3791 196.879 25.3442 193.834 23.0039 192.635C20.6635 191.435 8.46747 185.33 6.42511 185.33C4.38274 185.33 2.63838 185.882 2.2677 187.918L4.93513 189.989L5.27673 191.05L9.84116 193.427L10.6479 194.924L22.2771 201.131C22.2771 201.131 34.4731 207.324 36.5082 207.672C38.5433 208.021 48.7042 208.872 53.0506 212.571L70.4943 205.405C70.4943 205.405 65.4574 198.253 61.5762 196.487C58.1165 194.917 52.3092 194.917 48.2463 196.581L39.3791 196.879Z" fill="#FFBF9D"/>
<path d="M51.0518 208.589C51.0518 208.589 73.2562 257.01 76.8321 266.735C76.8321 266.735 101.653 262.65 102.503 248.877L70.5233 205.268L51.0518 208.589Z" fill="#FFBF9D"/>
<path d="M30.4319 197.977C30.4319 197.977 30.3447 197.977 30.1921 197.977C29.965 197.954 29.7409 197.908 29.5234 197.839C28.7274 197.596 27.9541 197.285 27.2121 196.908C26.2673 196.45 25.1698 195.847 23.9632 195.171C23.36 194.837 22.7277 194.481 22.0662 194.139C21.4048 193.798 20.6853 193.5 19.9512 193.18C18.592 192.564 17.1875 192.054 15.7502 191.653C14.4346 191.326 13.17 191.079 12.2178 191.399C11.8485 191.547 11.5135 191.769 11.2334 192.052C10.9534 192.334 10.7343 192.671 10.5898 193.042C10.4824 193.325 10.3586 193.602 10.2191 193.87C10.2191 193.87 10.2191 193.783 10.2554 193.638C10.304 193.415 10.3696 193.196 10.4517 192.984C10.5801 192.644 10.7537 192.324 10.9677 192.031C11.2506 191.631 11.6449 191.323 12.1015 191.145C12.665 190.956 13.2636 190.896 13.8532 190.97C14.5125 191.035 15.166 191.15 15.8083 191.312C17.2763 191.699 18.7105 192.204 20.0966 192.824C20.8234 193.143 21.5502 193.441 22.2261 193.798C22.9021 194.154 23.5272 194.524 24.1304 194.866C25.3297 195.556 26.4054 196.182 27.3284 196.661C28.0437 197.052 28.7843 197.394 29.5452 197.686C30.1121 197.897 30.4319 197.94 30.4319 197.977Z" fill="#FF9A6C"/>
<path d="M17.0439 191.016C16.3597 190.878 15.6971 190.648 15.0743 190.333C13.5752 189.625 12.0338 189.011 10.4589 188.494C9.59721 188.25 8.69662 188.173 7.80605 188.268C7.4507 188.279 7.10125 188.362 6.7789 188.512C6.45655 188.662 6.16803 188.876 5.93086 189.141C5.6466 189.535 5.45979 189.99 5.38574 190.471C5.37915 190.657 5.34233 190.841 5.27672 191.016C5.24272 190.831 5.24272 190.641 5.27672 190.456C5.3039 189.937 5.46954 189.435 5.75642 189.002C5.9789 188.7 6.26716 188.451 6.59953 188.276C6.97968 188.095 7.38756 187.979 7.80605 187.934C8.74351 187.816 9.6951 187.888 10.6043 188.145C12.2016 188.657 13.7488 189.314 15.2269 190.107C15.8484 190.377 16.455 190.681 17.0439 191.016Z" fill="#FF9A6C"/>
<path d="M52.0766 195.507C52.0766 195.507 51.8804 195.623 51.5097 195.754C50.9782 195.946 50.4372 196.111 49.8889 196.248C48.0846 196.718 46.2352 196.993 44.3724 197.069C42.51 197.15 40.6443 197.038 38.8049 196.735C38.0781 196.611 37.5403 196.488 37.155 196.379C36.949 196.348 36.7498 196.281 36.5663 196.183C36.5663 196.124 37.4385 196.292 38.8485 196.466C40.6757 196.692 42.5183 196.767 44.3578 196.691C46.1987 196.596 48.0289 196.353 49.8308 195.965C51.1754 195.703 52.0258 195.456 52.0766 195.507Z" fill="#FF9A6C"/>
<path d="M258.813 166.763L226.513 160.076L218.518 154.08L175.854 162.308C175.171 163.558 168.259 173.21 168.259 173.21L151.455 178.916C144.313 180.792 137.938 184.859 133.226 190.545C128.746 196.078 125.075 202.221 122.324 208.788C114.765 226.529 103.855 247.026 103.855 247.026L97.0159 236.007L68.1902 249.584C68.1902 249.584 85.0743 283.621 90.6635 288.484C96.8778 293.884 111.167 294.509 121.045 284.435C126.997 278.359 144.201 254.345 147.784 248.334L153.105 273.467L157.996 302.155L150.088 321.903H265.507L260.732 303.238C260.732 303.238 265.435 254.592 266.736 245.536C269.796 224.175 258.813 166.763 258.813 166.763Z" fill="#280D01"/>
<path d="M258.813 166.762C258.813 166.762 281.926 173.245 287.014 196.22C290.096 210.138 300.562 249.815 304.247 282.479C306.427 301.899 306.369 319.844 306.427 321.901H270.958L255.928 173.245L258.813 166.762Z" fill="#280D01"/>
<path d="M199.534 186.485C199.534 186.485 199.534 186.573 199.439 186.725L199.112 187.394C198.822 187.983 198.385 188.848 197.913 189.945C196.888 192.126 195.682 195.36 193.734 198.972L193.639 199.154L193.479 199.016C191.081 196.973 188.479 194.517 185.79 191.864C181.029 187.14 176.857 182.742 173.775 179.624L170.105 175.939L169.095 174.943C168.972 174.833 168.86 174.712 168.76 174.58C168.901 174.669 169.03 174.773 169.146 174.893L170.192 175.837C171.093 176.666 172.373 177.894 173.95 179.435C177.082 182.51 181.291 186.878 186.037 191.595C188.726 194.248 191.314 196.683 193.683 198.761L193.421 198.805C195.384 195.244 196.634 192.024 197.71 189.858C198.24 188.76 198.683 187.917 199.003 187.343C199.149 187.089 199.272 186.871 199.374 186.703C199.419 186.625 199.473 186.552 199.534 186.485Z" fill="black"/>
<path d="M226.964 160.895C226.962 161.066 226.94 161.237 226.899 161.403C226.826 161.767 226.739 162.246 226.63 162.857C226.368 164.107 225.903 165.91 225.307 168.105C224.049 172.465 222.014 178.491 219.492 184.996C218.162 188.441 216.854 191.697 215.633 194.583L215.538 194.808L215.357 194.648C212.064 191.741 209.113 189.451 207.115 187.75C206.112 186.9 205.327 186.217 204.796 185.737L204.207 185.185C204.069 185.054 204.004 184.989 204.011 184.981C204.095 185.025 204.173 185.079 204.244 185.141L204.869 185.657L207.245 187.591C209.288 189.248 212.26 191.494 215.589 194.386L215.313 194.452C216.512 191.544 217.813 188.303 219.136 184.865C221.629 178.324 223.701 172.4 225.016 168.032C225.67 165.851 226.15 164.063 226.47 162.821C226.608 162.232 226.724 161.759 226.811 161.367C226.85 161.206 226.901 161.048 226.964 160.895Z" fill="black"/>
<path d="M152.196 270.244C152.166 270.195 152.144 270.141 152.131 270.085L151.978 269.59C151.847 269.106 151.665 268.466 151.433 267.672C151.186 266.843 150.946 265.818 150.655 264.626C150.364 263.434 150.052 262.068 149.739 260.556C148.131 252.67 147 244.695 146.352 236.673C145.531 227.275 145.349 218.735 145.393 212.564C145.393 209.475 145.473 206.975 145.56 205.252C145.604 204.409 145.633 203.748 145.655 203.261C145.655 203.057 145.655 202.883 145.691 202.745C145.683 202.687 145.683 202.628 145.691 202.57C145.697 202.631 145.697 202.692 145.691 202.752V203.268C145.691 203.755 145.691 204.416 145.691 205.252C145.691 206.982 145.633 209.475 145.647 212.564C145.647 218.728 145.895 227.26 146.716 236.636C147.37 244.646 148.461 252.614 149.987 260.505C150.285 262.017 150.561 263.412 150.844 264.575C151.128 265.738 151.338 266.807 151.571 267.635L152.051 269.569L152.16 270.07C152.196 270.186 152.203 270.244 152.196 270.244Z" fill="black"/>
<path d="M260.732 192.244C260.775 192.307 260.81 192.375 260.834 192.448C260.899 192.6 260.986 192.797 261.088 193.044C261.321 193.596 261.633 194.374 262.04 195.355C262.244 195.864 262.484 196.416 262.716 197.034L263.407 199.069C263.654 199.796 263.916 200.588 264.199 201.417C264.482 202.245 264.671 203.154 264.926 204.091C267.106 211.57 268.197 222.393 267.571 234.232C266.946 246.072 265.551 256.764 264.664 264.439C264.221 268.277 263.857 271.395 263.603 273.575C263.479 274.629 263.378 275.465 263.305 276.054L263.218 276.701C263.213 276.775 263.198 276.848 263.174 276.919C263.165 276.846 263.165 276.773 263.174 276.701L263.225 276.046C263.283 275.45 263.363 274.593 263.458 273.561C263.661 271.38 263.981 268.269 264.395 264.41C265.187 256.691 266.525 246.036 267.164 234.218C267.804 222.4 266.728 211.636 264.642 204.157L263.916 201.482L263.189 199.142C262.956 198.415 262.738 197.724 262.535 197.099C262.331 196.474 262.084 195.915 261.888 195.406C261.51 194.41 261.219 193.632 261.001 193.073C260.914 192.818 260.841 192.622 260.783 192.462C260.755 192.393 260.738 192.319 260.732 192.244Z" fill="black"/>
<path d="M104.044 271.772C103.943 271.772 103.819 266.234 103.775 259.416C103.732 252.599 103.775 247.061 103.884 247.061C103.993 247.061 104.11 252.599 104.153 259.416C104.197 266.234 104.153 271.772 104.044 271.772Z" fill="black"/>
<path d="M208.924 305.315V305.009C208.924 304.791 208.983 304.501 209.026 304.123C209.128 303.323 209.266 302.182 209.448 300.714C209.542 299.987 209.644 299.151 209.76 298.257C209.877 297.363 209.964 296.375 210.073 295.35C210.284 293.242 210.574 290.851 210.8 288.191C210.909 286.868 211.018 285.473 211.141 284.026C211.265 282.58 211.323 281.068 211.417 279.505C211.635 276.38 211.73 273.029 211.853 269.512C212.013 262.469 211.992 254.721 211.628 246.602C211.265 238.484 210.523 230.765 209.702 223.766C209.244 220.27 208.844 216.948 208.328 213.859C208.089 212.311 207.878 210.814 207.602 209.382C207.325 207.95 207.1 206.576 206.875 205.261C206.431 202.637 205.923 200.282 205.508 198.203C205.298 197.164 205.109 196.197 204.927 195.296C204.745 194.395 204.549 193.603 204.382 192.876L203.655 189.525C203.582 189.154 203.517 188.864 203.473 188.653C203.43 188.442 203.422 188.348 203.422 188.348C203.459 188.442 203.488 188.539 203.51 188.638L203.735 189.503L204.542 192.847L205.116 195.26C205.305 196.146 205.508 197.106 205.734 198.167C206.162 200.238 206.693 202.593 207.151 205.217C207.393 206.53 207.635 207.904 207.878 209.338C208.139 210.792 208.35 212.245 208.605 213.815C209.128 216.912 209.542 220.233 210.015 223.729C210.85 230.736 211.563 238.462 211.97 246.588C212.377 254.714 212.348 262.476 212.166 269.526C212.028 273.051 211.926 276.402 211.694 279.527C211.592 281.09 211.519 282.602 211.396 284.055C211.272 285.509 211.141 286.897 211.025 288.227C210.821 290.887 210.509 293.315 210.298 295.379C210.174 296.433 210.058 297.414 209.956 298.286C209.855 299.159 209.717 300.002 209.608 300.743C209.397 302.197 209.23 303.345 209.121 304.137L208.983 305.024C208.971 305.122 208.952 305.22 208.924 305.315Z" fill="black"/>
<path d="M224.289 226.861H224.435L224.893 226.81L226.673 226.607L233.484 225.88L257.723 223.365H257.905V223.547C258.086 230.881 258.305 239.181 258.53 247.983V248.063L258.479 248.113L255.572 251.261L244.975 262.584L244.88 262.686L244.757 262.621L226.899 253.754L226.819 253.717V253.652C226.041 245.548 225.365 238.846 224.951 234.144C224.733 231.833 224.566 230.016 224.449 228.758C224.398 228.155 224.355 227.69 224.326 227.348C224.297 227.007 224.326 226.883 224.326 226.883C224.326 226.883 224.326 227.057 224.391 227.377C224.457 227.697 224.486 228.199 224.558 228.831C224.689 230.103 224.885 231.927 225.14 234.253C225.627 238.919 226.317 245.584 227.16 253.645L227.073 253.521L244.953 262.337L244.742 262.374L255.317 251.006L258.225 247.866L258.174 247.997C257.963 239.195 257.759 230.902 257.585 223.561L257.774 223.721L233.607 226.033L226.753 226.672L224.929 226.832L224.457 226.876L224.289 226.861Z" fill="black"/>
<path d="M257.948 231.979C257.537 232.093 257.116 232.174 256.691 232.219C255.877 232.35 254.699 232.517 253.239 232.706C250.331 233.076 246.268 233.505 241.798 233.934L230.344 235.053L226.877 235.417C226.456 235.484 226.031 235.516 225.605 235.511C226.017 235.397 226.437 235.317 226.862 235.271C227.676 235.141 228.854 234.973 230.315 234.785C233.222 234.414 237.285 233.985 241.762 233.556L253.21 232.437L256.676 232.073C257.097 232.006 257.522 231.974 257.948 231.979Z" fill="black"/>
<g opacity="0.3">
<path d="M264.969 260.565L266.191 275.414C268.887 262.694 273.124 249.023 272.463 236.042C271.802 223.061 270.581 210.639 263.269 198.887C266.447 207.735 267.905 217.11 267.564 226.506C266.896 241.696 264.969 260.565 264.969 260.565Z" fill="black"/>
</g>
<path d="M99.2327 232.922C98.8401 232.028 98.1454 231.3 97.2703 230.865C96.2527 230.517 95.148 231.011 94.1813 231.491L67.8123 244.617C66.0752 245.482 64.1782 246.507 63.5386 248.324C62.7027 250.649 64.2654 253.106 65.719 255.105C68.1466 258.441 71.0539 262.075 75.1677 262.548L97.8517 246.994C100.621 246.587 102.343 243.498 102.213 240.699C102.082 237.901 100.643 235.35 99.2327 232.922Z" fill="#280D01"/>
<path d="M102.096 242.43C102.029 242.523 101.951 242.609 101.864 242.684L101.137 243.36C100.512 243.941 99.5889 244.763 98.4332 245.751C96.1147 247.735 92.8222 250.374 88.9846 253.063C85.1469 255.752 81.6364 257.969 78.969 259.466C77.6462 260.229 76.5632 260.825 75.8073 261.218L74.9351 261.661C74.7316 261.763 74.6226 261.807 74.6153 261.792C74.6993 261.713 74.7949 261.646 74.8988 261.596L75.7346 261.087L78.8309 259.234C81.4402 257.664 84.9943 255.411 88.7883 252.729C92.5823 250.047 95.8966 247.452 98.237 245.526L101.021 243.222L101.748 242.604C101.995 242.488 102.089 242.415 102.096 242.43Z" fill="black"/>
<g opacity="0.3">
<path d="M226.622 162.559C223.519 172.865 219.173 184.523 215.502 194.539C212.377 191.886 208.001 188.375 204.869 185.715C207.565 191.064 210.801 196.122 214.528 200.811C214.964 201.356 215.546 201.952 216.222 201.821C216.898 201.691 217.203 200.993 217.435 200.368L223.156 185.228C225.83 178.149 228.41 169.892 226.622 162.559Z" fill="black"/>
</g>
<path d="M177.562 50.4324C187.011 47.7141 195.849 50.4324 204.563 54.9532C213.278 59.474 220.306 66.9385 224.856 75.624C229.653 84.7746 231.776 95.4371 230.039 105.62C228.301 115.803 222.545 125.397 213.925 131.058C202.143 138.821 185.906 138.414 173.775 131.226C161.645 124.037 153.657 110.787 151.542 96.8398C150.088 87.2313 151.266 77.0994 155.75 68.4939C160.235 59.8883 168.164 52.9109 177.555 50.4251" fill="#263238"/>
<path d="M208.583 80.0085C206.758 76.498 206.838 72.3333 205.843 68.4957C203.662 60.0573 195.958 53.9593 187.585 51.5245C179.801 49.2495 170.795 50.9576 162.146 54.8679C156.23 57.5498 150.844 61.6636 147.312 67.1148C145.002 70.7686 143.598 74.9217 143.219 79.228C142.84 83.5343 143.495 87.8688 145.131 91.8702L188.297 80.5173C192.789 83.4246 197.39 86.4263 202.587 87.7855C204.098 88.2533 205.705 88.3259 207.253 87.9963C208.021 87.8146 208.72 87.4159 209.268 86.8475C209.816 86.2792 210.189 85.5653 210.342 84.791C210.523 83.0612 209.375 81.5421 208.583 80.0085Z" fill="#263238"/>
<path d="M218.882 156.549L207.74 78.1831C207.245 74.4763 205.559 70.6968 201.831 70.8713L162.582 67.0918C150.285 67.6587 144.514 83.8086 145.604 96.041C146.818 109.662 148.831 126.24 151.963 136.067C158.265 155.815 174.175 156.018 174.175 156.018C174.175 156.018 175.142 159.943 176.356 167.284L201.794 184.204L218.882 156.549Z" fill="#FFBF9D"/>
<path d="M155.089 110.947C155.186 111.625 155.545 112.238 156.088 112.655C156.631 113.071 157.316 113.259 157.996 113.179C158.33 113.155 158.657 113.064 158.955 112.913C159.254 112.761 159.519 112.551 159.736 112.294C159.952 112.038 160.114 111.741 160.214 111.421C160.313 111.101 160.348 110.765 160.315 110.431C160.215 109.754 159.856 109.141 159.314 108.724C158.771 108.306 158.088 108.116 157.407 108.193C157.073 108.218 156.747 108.31 156.449 108.463C156.151 108.616 155.886 108.827 155.67 109.083C155.454 109.34 155.291 109.637 155.192 109.957C155.092 110.277 155.057 110.613 155.089 110.947Z" fill="#263238"/>
<path d="M150.51 104.08C150.881 104.37 152.625 102.626 155.423 102.197C158.221 101.768 160.475 102.866 160.729 102.473C160.853 102.299 160.431 101.747 159.442 101.223C158.105 100.574 156.601 100.351 155.132 100.584C153.678 100.8 152.331 101.474 151.288 102.51C150.524 103.295 150.328 103.927 150.51 104.08Z" fill="#263238"/>
<path d="M180.913 106.748C181.009 107.427 181.367 108.042 181.91 108.46C182.453 108.879 183.139 109.068 183.82 108.987C184.154 108.963 184.48 108.873 184.779 108.721C185.078 108.569 185.343 108.359 185.559 108.103C185.776 107.847 185.938 107.55 186.038 107.23C186.137 106.91 186.171 106.573 186.139 106.239C186.043 105.56 185.685 104.946 185.141 104.527C184.598 104.109 183.912 103.92 183.231 104.001C182.897 104.025 182.572 104.116 182.273 104.269C181.975 104.421 181.71 104.631 181.494 104.887C181.278 105.143 181.116 105.439 181.016 105.759C180.916 106.078 180.881 106.415 180.913 106.748Z" fill="#263238"/>
<path d="M177.09 100.381C177.46 100.672 179.212 98.9277 182.003 98.4988C184.794 98.07 187.054 99.1675 187.309 98.775C187.432 98.6006 187.011 98.0482 186.022 97.5249C184.683 96.8745 183.176 96.6512 181.705 96.8853C180.232 97.1023 178.869 97.7879 177.816 98.8405C177.09 99.5673 176.893 100.294 177.09 100.381Z" fill="#263238"/>
<path d="M171.072 122.672C171.072 122.512 169.276 122.475 166.413 122.548C165.686 122.548 164.959 122.548 164.792 122.076C164.625 121.603 164.726 120.775 164.944 119.895C165.352 118.069 165.78 116.152 166.231 114.146C167.975 105.962 169.138 99.2827 168.797 99.2173C168.455 99.1519 166.783 105.759 165.032 113.899C164.617 115.912 164.218 117.838 163.847 119.677C163.702 120.528 163.375 121.516 163.905 122.526C164.044 122.764 164.237 122.966 164.468 123.116C164.699 123.266 164.962 123.36 165.235 123.391C165.645 123.447 166.061 123.447 166.471 123.391C169.327 123.086 171.086 122.824 171.072 122.672Z" fill="#263238"/>
<path d="M174.182 156.018C183.739 154.705 192.742 150.762 200.188 144.629C200.188 144.629 193.843 160.51 175.476 162.109L174.182 156.018Z" fill="#FF9A6C"/>
<path d="M173.281 129.228C173.71 128.478 174.323 127.85 175.061 127.402C175.8 126.955 176.641 126.703 177.504 126.67C178.131 126.634 178.759 126.725 179.35 126.939C179.941 127.152 180.483 127.484 180.942 127.913C181.386 128.322 181.694 128.858 181.824 129.448C181.954 130.038 181.9 130.654 181.669 131.212C181.08 132.383 179.539 132.87 178.151 132.666C176.76 132.401 175.436 131.863 174.255 131.082C173.903 130.901 173.59 130.654 173.332 130.355C173.205 130.217 173.123 130.044 173.094 129.859C173.066 129.674 173.093 129.485 173.172 129.315" fill="#FF9A6C"/>
<path d="M179.59 123.348C179.125 123.391 179.59 126.429 177.315 128.973C175.04 131.517 171.777 131.684 171.813 132.106C171.813 132.309 172.627 132.586 173.993 132.418C175.775 132.171 177.411 131.304 178.616 129.969C179.772 128.69 180.384 127.011 180.324 125.288C180.244 124.002 179.793 123.304 179.59 123.348Z" fill="#263238"/>
<path d="M176.29 92.0363C176.683 92.7631 179.415 91.9708 182.752 91.8618C186.088 91.7528 188.879 92.247 189.206 91.4984C189.351 91.1423 188.784 90.5027 187.599 89.9285C186.036 89.2456 184.337 88.9274 182.632 88.9979C180.927 89.0684 179.26 89.5258 177.758 90.3355C176.632 91.0042 176.116 91.6947 176.29 92.0363Z" fill="#263238"/>
<path d="M149.471 91.7482C150.059 92.3079 151.884 91.3557 154.195 90.9705C156.506 90.5853 158.556 90.7452 158.876 90.0111C159.028 89.655 158.621 89.0735 157.676 88.6011C156.416 88.0585 155.024 87.9015 153.674 88.1499C152.325 88.3982 151.08 89.0409 150.096 89.9966C149.361 90.7743 149.194 91.472 149.471 91.7482Z" fill="#263238"/>
<path d="M214.935 73.3007C209.644 62.0786 190.5 48.1455 178.347 50.6384L160.329 65.0004C161.411 68.2593 163.353 71.1656 165.95 73.4121C168.547 75.6586 171.703 77.1619 175.084 77.7633C178.681 78.3593 182.897 78.0904 185.354 80.7942C187.81 83.4979 187.222 88.1496 189.598 91.0205C192.891 95.0035 200.275 93.8115 202.935 98.2451C204.106 100.178 203.967 102.693 205.159 104.612C206.758 107.163 214.092 109.7 216.789 108.406C219.485 107.112 218.875 102.286 219.463 99.6188C220.474 95.0762 219.514 92.9175 218.671 90.5626C216.701 84.9807 217.465 78.6501 214.935 73.3007Z" fill="#263238"/>
<path d="M208.743 111.923C208.517 110.411 209.717 106.595 211.17 106.108C215.051 104.887 222.269 104.109 223.875 114.198C226.056 128.007 211.781 127.346 211.686 126.953C211.592 126.561 209.528 117.112 208.743 111.923Z" fill="#FFBF9D"/>
<path d="M215.066 121.066C215.124 121.007 215.335 121.196 215.793 121.313C216.403 121.47 217.05 121.382 217.595 121.066C218.962 120.302 219.819 117.795 219.492 115.295C219.338 114.108 218.921 112.971 218.271 111.966C218.074 111.555 217.78 111.199 217.414 110.928C217.048 110.657 216.621 110.479 216.171 110.41C215.883 110.381 215.594 110.453 215.355 110.615C215.116 110.778 214.941 111.019 214.863 111.297C214.739 111.711 214.863 111.973 214.797 112.024C214.732 112.075 214.47 111.842 214.485 111.254C214.509 110.901 214.652 110.568 214.892 110.309C215.224 109.959 215.681 109.755 216.164 109.742C217.239 109.647 218.344 110.469 219.013 111.479C219.791 112.581 220.29 113.855 220.466 115.193C220.822 117.984 219.812 120.811 217.908 121.734C217.556 121.902 217.171 121.988 216.781 121.988C216.392 121.988 216.007 121.902 215.655 121.734C215.146 121.371 215.022 121.095 215.066 121.066Z" fill="#FF9A6C"/>
<path d="M163.876 60.3554C163.244 66.17 155.489 74.3467 152.247 79.1655C146.018 88.3597 144.913 91.3034 147.108 110.026C142.98 103.943 139.666 97.8956 139.113 90.562C138.561 83.2284 140.407 75.6186 144.884 69.7895C149.361 63.9604 156.564 60.1228 163.912 60.3409" fill="#263238"/>
<path d="M196.808 40.635C199.716 37.4297 203.917 35.3438 208.278 34.2535C214.492 32.6981 221.317 33.1197 226.971 35.8235C232.626 38.5272 237.001 43.6004 238.143 49.415C238.704 52.4019 238.44 55.4852 237.379 58.3333C236.319 61.1814 234.502 63.6866 232.124 65.5794C235.358 68.7142 239.3 71.0229 243.615 72.3098C242.438 74.076 240.265 75.108 238.07 75.4787C235.863 75.7546 233.63 75.74 231.427 75.4351C232.931 77.6821 235.181 79.3247 237.779 80.0722C234.202 80.898 230.472 80.7752 226.957 79.7161C223.519 78.6741 220.229 77.1963 217.167 75.3188C206.533 69.1481 200.668 63.7406 193.487 54.2411C192.549 50.1418 193.879 43.8475 196.808 40.635Z" fill="#263238"/>
<path d="M219.732 69.766C211.926 58.3622 201.991 52.2642 193 50.3672L219.732 69.766Z" fill="#263238"/>
<path d="M193 50.3672C193.412 50.5321 193.837 50.661 194.272 50.7524C195.093 50.985 196.278 51.3411 197.702 51.8862C201.411 53.3271 204.898 55.2846 208.059 57.7008C211.221 60.1112 214.103 62.8685 216.65 65.9211C217.61 67.1058 218.388 68.1016 218.889 68.7557C219.139 69.1265 219.421 69.4743 219.732 69.7951C219.522 69.3975 219.279 69.0183 219.005 68.6612C218.54 67.9344 217.799 66.9532 216.861 65.754C214.378 62.6097 211.517 59.7829 208.343 57.3374C205.144 54.8969 201.589 52.9605 197.804 51.5955C196.662 51.1893 195.497 50.8519 194.315 50.5852C193.883 50.4775 193.443 50.4046 193 50.3672Z" fill="#455A64"/>
<path d="M229.035 79.4854L228.861 79.5435L228.352 79.747C227.916 79.936 227.262 80.1831 226.404 80.4738C223.98 81.2854 221.466 81.798 218.918 82.0002C215.14 82.2814 211.341 82.0368 207.631 81.2733C203.086 80.3185 198.642 78.9337 194.359 77.1377C189.78 75.2698 185.463 73.351 181.618 71.4686C178.203 69.8162 174.916 67.9115 171.784 65.7703C169.678 64.3202 167.691 62.7065 165.838 60.9442C165.17 60.3264 164.69 59.8104 164.385 59.4906L164 59.1054C163.912 59.0254 163.869 58.9818 163.862 58.9891C163.854 58.9963 163.862 59.0399 163.971 59.1344L164.327 59.5487C164.639 59.9121 165.104 60.4427 165.78 61.0823C167.602 62.896 169.574 64.5518 171.675 66.0319C174.796 68.2243 178.084 70.1685 181.509 71.8465C185.361 73.758 189.671 75.6914 194.257 77.5666C198.567 79.3676 203.041 80.7477 207.616 81.6876C211.364 82.4357 215.199 82.6461 219.005 82.3127C221.55 82.0801 224.056 81.5282 226.463 80.6701C227.313 80.343 227.96 80.0741 228.389 79.8561L228.876 79.6162C228.985 79.5217 229.043 79.4926 229.035 79.4854Z" fill="#455A64"/>
<path d="M187.854 147.93L186.538 145.357C186.633 145.306 195.762 140.625 199.272 137.674C207.543 130.726 215.146 119.627 215.226 119.504L217.624 121.139C217.305 121.612 209.724 132.681 201.14 139.891C197.361 143.046 188.239 147.734 187.854 147.93Z" fill="#455A64"/>
<path d="M194.65 139.898C194.65 139.898 182.177 145.466 182.177 146.701C182.177 147.937 184.154 150.408 185.637 150.285C187.12 150.161 191.408 147.748 192.178 146.76C192.949 145.771 194.315 143.227 195.813 141.992L194.65 139.898Z" fill="#263238"/>
<path d="M217.523 102.474L214.615 102.335C214.721 93.9518 213.277 85.6208 210.356 77.7617C204.047 61.51 191.917 52.7882 174.313 51.8288C172.712 51.7586 171.108 51.8683 169.531 52.1558L170.803 50.9493C171.419 50.3675 172.136 49.9021 172.918 49.5756C173.99 49.1275 175.155 48.9479 176.312 49.0523C198.538 50.9784 208.583 65.1078 213.096 76.795C216.171 85.0006 217.673 93.712 217.523 102.474Z" fill="#455A64"/>
<path d="M216.069 128.907C221.155 128.907 225.278 122.978 225.278 115.665C225.278 108.351 221.155 102.422 216.069 102.422C210.983 102.422 206.86 108.351 206.86 115.665C206.86 122.978 210.983 128.907 216.069 128.907Z" fill="#455A64"/>
<path d="M225.278 115.663C225.269 115.603 225.269 115.542 225.278 115.481C225.278 115.336 225.278 115.162 225.234 114.944C225.202 114.257 225.131 113.573 225.023 112.894C224.648 110.39 223.673 108.014 222.182 105.967C221.679 105.306 221.098 104.708 220.452 104.187C219.747 103.632 218.953 103.202 218.104 102.915C217.195 102.62 216.232 102.528 215.284 102.646C214.281 102.796 213.32 103.155 212.464 103.7C210.65 104.962 209.249 106.732 208.437 108.787C207.53 110.976 207.062 113.323 207.062 115.692C207.062 118.062 207.53 120.408 208.437 122.597C209.248 124.653 210.649 126.423 212.464 127.685C213.32 128.229 214.281 128.588 215.284 128.739C216.232 128.852 217.194 128.761 218.104 128.47C218.953 128.183 219.747 127.752 220.452 127.198C221.097 126.675 221.677 126.077 222.182 125.417C223.673 123.371 224.648 120.994 225.023 118.49C225.131 117.812 225.201 117.127 225.234 116.441C225.234 116.223 225.234 116.048 225.278 115.903C225.268 115.843 225.268 115.781 225.278 115.721C225.289 115.781 225.289 115.843 225.278 115.903V116.441C225.27 117.134 225.222 117.825 225.132 118.512C224.807 121.061 223.853 123.489 222.356 125.577C221.847 126.262 221.256 126.882 220.597 127.423C219.87 128.01 219.046 128.465 218.162 128.768C217.21 129.08 216.2 129.182 215.204 129.066C214.152 128.915 213.144 128.543 212.246 127.975C210.365 126.696 208.91 124.884 208.067 122.771C207.131 120.539 206.649 118.142 206.649 115.721C206.649 113.3 207.131 110.904 208.067 108.671C208.91 106.559 210.365 104.746 212.246 103.467C213.144 102.899 214.152 102.528 215.204 102.377C216.2 102.26 217.21 102.362 218.162 102.675C219.046 102.977 219.87 103.432 220.597 104.019C221.258 104.559 221.849 105.179 222.356 105.866C223.855 107.953 224.81 110.381 225.132 112.93C225.221 113.615 225.27 114.304 225.278 114.994V115.54C225.283 115.581 225.283 115.622 225.278 115.663Z" fill="#263238"/>
<path d="M217.486 123.354C220.726 123.354 223.352 119.58 223.352 114.923C223.352 110.267 220.726 106.492 217.486 106.492C214.247 106.492 211.621 110.267 211.621 114.923C211.621 119.58 214.247 123.354 217.486 123.354Z" fill="#455A64"/>
<path d="M223.352 114.924C223.308 114.924 223.352 114.284 223.141 113.158C222.898 111.578 222.274 110.082 221.324 108.797C220.678 107.916 219.781 107.249 218.751 106.885C218.179 106.701 217.574 106.644 216.978 106.718C216.349 106.812 215.747 107.037 215.211 107.38C214.071 108.174 213.189 109.286 212.675 110.578C212.1 111.959 211.806 113.442 211.81 114.938C211.803 116.435 212.097 117.918 212.675 119.299C213.189 120.591 214.071 121.703 215.211 122.497C215.747 122.84 216.349 123.065 216.978 123.159C217.574 123.233 218.179 123.176 218.751 122.992C219.781 122.627 220.678 121.961 221.324 121.08C222.274 119.795 222.898 118.299 223.141 116.719C223.323 115.593 223.308 114.953 223.352 114.96C223.361 115.113 223.361 115.266 223.352 115.418C223.351 115.861 223.322 116.302 223.265 116.741C223.072 118.372 222.469 119.927 221.513 121.262C220.847 122.204 219.908 122.919 218.824 123.311C218.212 123.52 217.561 123.589 216.919 123.515C216.238 123.409 215.587 123.162 215.008 122.788C213.8 121.968 212.863 120.807 212.319 119.452C211.719 118.021 211.41 116.486 211.41 114.935C211.41 113.384 211.719 111.848 212.319 110.418C212.863 109.063 213.8 107.901 215.008 107.082C215.585 106.709 216.234 106.462 216.912 106.355C217.557 106.281 218.209 106.35 218.824 106.558C219.908 106.951 220.847 107.666 221.513 108.608C222.469 109.943 223.072 111.498 223.265 113.129C223.322 113.567 223.351 114.009 223.352 114.451C223.361 114.609 223.361 114.767 223.352 114.924Z" fill="#263238"/>
<path d="M217.893 120.989C220.222 120.989 222.109 118.275 222.109 114.927C222.109 111.579 220.222 108.865 217.893 108.865C215.565 108.865 213.678 111.579 213.678 114.927C213.678 118.275 215.565 120.989 217.893 120.989Z" fill="#455A64"/>
<path d="M222.109 114.923C222.073 114.923 222.073 114.465 221.942 113.658C221.755 112.524 221.301 111.451 220.619 110.526C220.159 109.899 219.521 109.425 218.787 109.167C218.37 109.033 217.927 108.996 217.493 109.057C217.058 109.119 216.644 109.278 216.28 109.523C214.703 110.562 213.867 112.743 213.859 114.916C213.852 117.089 214.703 119.277 216.28 120.316C216.644 120.561 217.058 120.72 217.493 120.782C217.927 120.843 218.37 120.806 218.787 120.672C219.521 120.414 220.159 119.94 220.619 119.313C221.301 118.388 221.755 117.315 221.942 116.18C222.073 115.374 222.073 114.916 222.109 114.923C222.126 115.031 222.126 115.142 222.109 115.25C222.113 115.568 222.096 115.886 222.058 116.202C221.927 117.384 221.497 118.512 220.808 119.48C220.317 120.15 219.636 120.657 218.853 120.934C218.406 121.084 217.933 121.136 217.464 121.086C216.968 121.018 216.493 120.844 216.069 120.578C215.189 119.982 214.508 119.137 214.114 118.15C213.676 117.115 213.451 116.003 213.451 114.879C213.451 113.756 213.676 112.644 214.114 111.609C214.508 110.622 215.189 109.777 216.069 109.181C216.493 108.914 216.968 108.741 217.464 108.672C217.933 108.623 218.406 108.675 218.853 108.825C219.636 109.102 220.317 109.608 220.808 110.279C221.497 111.247 221.927 112.375 222.058 113.557C222.096 113.873 222.113 114.191 222.109 114.509C222.135 114.646 222.135 114.786 222.109 114.923Z" fill="#263238"/>
</svg>
