<?xml version="1.0" encoding="UTF-8"?>
<svg version="1.1" xmlns="http://www.w3.org/2000/svg" width="267" height="244">
<path d="M0 0 C88.11 0 176.22 0 267 0 C267 80.52 267 161.04 267 244 C178.89 244 90.78 244 0 244 C0 163.48 0 82.96 0 0 Z " fill="#121212" transform="translate(0,0)"/>
<path d="M0 0 C2.62822222 1.34039582 5.0592468 2.79218069 7.52075195 4.41894531 C8.4964917 5.06041504 9.47223145 5.70188477 10.47753906 6.36279297 C11.54109619 7.06839355 12.60465332 7.77399414 13.70043945 8.50097656 C14.8454131 9.2558112 15.99068544 10.01019294 17.13623047 10.76416016 C19.62573276 12.40355288 22.11357879 14.0454201 24.6003418 15.68896484 C28.67710928 18.38228419 32.76040039 21.06560367 36.8449707 23.74707031 C38.27718353 24.68741475 39.70939379 25.6277631 41.14160156 26.56811523 C41.86072723 27.04026459 42.57985291 27.51241394 43.32077026 27.99887085 C47.00798927 30.42028138 50.69414193 32.84331314 54.38012695 35.26660156 C55.12352829 35.75533249 55.86692963 36.24406342 56.63285828 36.74760437 C61.43142237 39.9027211 66.22874319 43.0597217 71.0254364 46.21768188 C74.27879976 48.35937548 77.53269426 50.50026127 80.78665161 52.64105225 C82.34736799 53.66818743 83.90781563 54.6957311 85.46798706 55.72369385 C87.62946424 57.14782932 89.79180849 58.57063895 91.9543457 59.99316406 C92.59844391 60.41805115 93.24254211 60.84293823 93.90615845 61.28070068 C97.16268151 63.42994244 97.16268151 63.42994244 100.57543945 65.31347656 C100.57543945 65.97347656 100.57543945 66.63347656 100.57543945 67.31347656 C96.68994417 69.18989519 92.79061823 71.03559789 88.88793945 72.87597656 C87.78514648 73.40900391 86.68235352 73.94203125 85.54614258 74.49121094 C84.47944336 74.99072266 83.41274414 75.49023438 82.3137207 76.00488281 C80.8447937 76.7039978 80.8447937 76.7039978 79.34619141 77.41723633 C76.17439419 78.44320052 74.71081153 78.36326774 71.57543945 77.31347656 C69.48706055 76.19140625 69.48706055 76.19140625 67.34887695 74.73535156 C66.50236572 74.16518311 65.65585449 73.59501465 64.78369141 73.00756836 C63.84871826 72.36601807 62.91374512 71.72446777 61.95043945 71.06347656 C60.39928904 70.01471797 58.84812787 68.96597525 57.29676819 67.91752625 C55.48425037 66.69050613 53.67445239 65.45954873 51.86499023 64.22802734 C43.86729445 58.78860293 35.84196346 53.38989047 27.82305908 47.98181152 C24.91092682 46.01649013 22.000556 44.0485848 19.09057617 42.08007812 C17.26913208 40.84927241 15.44768058 39.61847766 13.6262207 38.38769531 C12.78751938 37.81953598 11.94881805 37.25137665 11.08470154 36.66600037 C5.46190556 32.77089928 5.46190556 32.77089928 -0.42456055 29.31347656 C-4.93447125 30.33232682 -8.92154887 33.35051846 -12.79956055 35.81347656 C-13.41444336 36.19761719 -14.02932617 36.58175781 -14.6628418 36.97753906 C-19.96496956 40.31630466 -25.17034025 43.79910582 -30.37866211 47.28143311 C-37.82190983 52.25513 -45.31071651 57.15882357 -52.79956055 62.06347656 C-54.88416079 63.42911531 -56.96864181 64.79493459 -59.05279541 66.16125488 C-60.38113932 67.03188822 -61.70986392 67.90194105 -63.03900146 68.7713623 C-67.33191861 71.58290804 -71.58971287 74.44120021 -75.80981445 77.36132812 C-77.42456055 78.31347656 -77.42456055 78.31347656 -79.42456055 78.31347656 C-79.42456055 94.81347656 -79.42456055 111.31347656 -79.42456055 128.31347656 C-71.17456055 128.31347656 -62.92456055 128.31347656 -54.42456055 128.31347656 C-54.63338867 125.64898437 -54.8422168 122.98449219 -55.05737305 120.23925781 C-56.69851647 93.82489564 -56.69851647 93.82489564 -52.96411133 86.41601562 C-49.11476276 82.12562712 -44.23593327 79.86722114 -39.02514648 77.57568359 C-34.50435727 75.38149656 -30.69606286 72.25242478 -26.73706055 69.18847656 C-25.16708984 68.02303918 -23.59420475 66.86151668 -22.01831055 65.70410156 C-21.25647461 65.14142578 -20.49463867 64.57875 -19.7097168 63.99902344 C-16.05739234 61.30504395 -12.39766709 58.6211864 -8.73706055 55.93847656 C-8.09486572 55.46780762 -7.4526709 54.99713867 -6.79101562 54.51220703 C-5.33566787 53.44577619 -3.88013766 52.37959433 -2.42456055 51.31347656 C0.23692854 52.58590308 2.64777772 53.96948319 5.05200195 55.67675781 C5.71377441 56.14500977 6.37554687 56.61326172 7.05737305 57.09570312 C8.11819092 57.85318848 8.11819092 57.85318848 9.20043945 58.62597656 C9.94245605 59.15288086 10.68447266 59.67978516 11.44897461 60.22265625 C23.55297862 68.83321789 35.57266787 77.56255719 47.57543945 86.31347656 C44.02819896 90.41733192 39.80105977 92.63479641 35.07543945 95.12597656 C34.31618164 95.54556641 33.55692383 95.96515625 32.7746582 96.39746094 C32.03860352 96.78869141 31.30254883 97.17992188 30.54418945 97.58300781 C29.87838867 97.93983643 29.21258789 98.29666504 28.52661133 98.66430664 C26.08790902 99.4756817 24.95627429 99.22922817 22.57543945 98.31347656 C20.27341759 96.65647951 18.0816847 94.97748157 15.88793945 93.18847656 C14.95800171 92.44839355 14.95800171 92.44839355 14.00927734 91.69335938 C11.2510328 89.49593758 8.52556213 87.27127267 5.83325195 84.99316406 C5.06754883 84.35636719 4.3018457 83.71957031 3.51293945 83.06347656 C2.53647461 82.22042969 2.53647461 82.22042969 1.5402832 81.36035156 C-0.38569365 80.12060887 -0.38569365 80.12060887 -2.6784668 80.41113281 C-6.39237534 81.63149252 -9.80958295 83.24946444 -13.29956055 85.00097656 C-13.98147461 85.32775391 -14.66338867 85.65453125 -15.3659668 85.99121094 C-17.43826053 87.02341058 -19.42857086 88.1410618 -21.42456055 89.31347656 C-22.09592041 89.67151367 -22.76728027 90.02955078 -23.45898438 90.3984375 C-25.71627394 91.8777781 -26.97776045 93.01918182 -28.42456055 95.31347656 C-29.41462029 100.26188585 -29.40613654 105.16260574 -29.36206055 110.18847656 C-29.3751821 111.55830208 -29.39142828 112.92810143 -29.41088867 114.29785156 C-29.44616581 117.63742084 -29.44965339 120.97390482 -29.42456055 124.31347656 C-40.31299975 129.41755749 -51.23485461 134.4453377 -62.17456055 139.43847656 C-64.45045593 140.47817893 -66.72628185 141.51802732 -69.00158691 142.559021 C-70.47041884 143.22881966 -71.94086205 143.89509711 -73.41296387 144.55767822 C-76.4775966 145.94028501 -79.48427394 147.34506352 -82.45776367 148.91796875 C-87.76719094 151.67755037 -91.7248364 152.55244487 -97.75561523 152.43896484 C-99.00719421 152.42084747 -100.25877319 152.4027301 -101.54827881 152.38406372 C-102.49745178 152.36076996 -103.44662476 152.3374762 -104.42456055 152.31347656 C-104.7730312 141.27420024 -105.03907662 130.23624303 -105.20174313 119.19257545 C-105.27984536 114.06341167 -105.38562822 108.93802458 -105.55615234 103.81103516 C-105.71988286 98.85695142 -105.80896186 93.9064829 -105.84771919 88.94990158 C-105.87531059 87.06523057 -105.9292044 85.18074499 -106.0105114 83.2976265 C-106.60391331 68.97650129 -106.60391331 68.97650129 -103.00953865 64.58441353 C-99.45089654 61.45409025 -95.45909758 59.26655993 -91.21475029 57.20127869 C-89.01543299 56.11057946 -87.02871824 54.80276223 -85.01660156 53.40014648 C-83.82089216 52.61423538 -82.62485348 51.82882501 -81.4284668 51.04394531 C-80.42523376 50.3848542 -80.42523376 50.3848542 -79.4017334 49.71244812 C-77.26384432 48.30811306 -75.1254728 46.90451482 -72.98706055 45.50097656 C-71.46351871 44.50052325 -69.9400003 43.50003424 -68.41650391 42.49951172 C-65.29309045 40.44842097 -62.1694555 38.39766813 -59.0456543 36.34716797 C-56.03489337 34.37080359 -53.0244535 32.39395209 -50.0144043 30.41650391 C-49.30382874 29.94970215 -48.59325317 29.48290039 -47.86114502 29.00195312 C-46.45267281 28.07659729 -45.04426552 27.15114263 -43.63592529 26.22558594 C-40.25718833 24.00561656 -36.87669013 21.78843413 -33.49194336 19.57763672 C-27.68066152 15.77994576 -21.88824245 11.96502074 -16.15893555 8.04394531 C-15.22944092 7.41568848 -14.29994629 6.78743164 -13.34228516 6.14013672 C-11.66614473 5.00511744 -9.99936944 3.8560771 -8.34472656 2.68994141 C-7.62470459 2.20605957 -6.90468262 1.72217773 -6.1628418 1.22363281 C-5.25078979 0.59146851 -5.25078979 0.59146851 -4.3203125 -0.0534668 C-2.42456055 -0.68652344 -2.42456055 -0.68652344 0 0 Z " fill="#FCFCFC" transform="translate(128.424560546875,9.6865234375)"/>
<path d="M0 0 C1.0233829 42.34791099 1 84.62406506 1 127 C-51.47 127 -103.94 127 -158 127 C-158 113.47 -158 99.94 -158 86 C-168.89 86 -179.78 86 -191 86 C-188.21668789 83.91251592 -185.97466143 82.35589807 -182.95678711 80.81103516 C-182.17174301 80.40696442 -181.38669891 80.00289368 -180.5778656 79.58657837 C-179.73619339 79.15839813 -178.89452118 78.7302179 -178.02734375 78.2890625 C-177.14905411 77.83904877 -176.27076447 77.38903503 -175.36585999 76.92538452 C-173.50663148 75.97383804 -171.64645411 75.0241436 -169.78540039 74.07617188 C-166.96973383 72.64142502 -164.1575047 71.20011641 -161.34570312 69.7578125 C-152.64989824 65.30855325 -143.9734196 60.86954945 -135 57 C-135 59.31 -135 61.62 -135 64 C-115.2 64 -95.4 64 -75 64 C-75 53.77 -75 43.54 -75 33 C-72.669375 31.906875 -70.33875 30.81375 -67.9375 29.6875 C-67.21812256 29.34936279 -66.49874512 29.01122559 -65.75756836 28.6628418 C-63.84215254 27.76682473 -61.92237355 26.88098872 -60 26 C-59.35562988 25.70303223 -58.71125977 25.40606445 -58.04736328 25.10009766 C-55.1801999 23.81700244 -53.17890809 23 -50 23 C-50 43.79 -50 64.58 -50 86 C-75.74 86 -101.48 86 -128 86 C-128 92.27 -128 98.54 -128 105 C-94.01 105 -60.02 105 -25 105 C-25 73.98 -25 42.96 -25 11 C-11.20689655 4.10344828 -11.20689655 4.10344828 -6.875 2.125 C-5.98554688 1.71507813 -5.09609375 1.30515625 -4.1796875 0.8828125 C-2 0 -2 0 0 0 Z " fill="#B80000" transform="translate(235,94)"/>
</svg>
