<svg width="40" height="40" viewBox="0 0 40 40" fill="none" xmlns="http://www.w3.org/2000/svg">
<path fill-rule="evenodd" clip-rule="evenodd" d="M37.5189 19.8584L10.9685 35.4851C10.6057 35.6988 10.1392 35.5714 9.9296 35.2015L5.82205 27.9488C5.75231 27.8256 5.7203 27.7036 5.7203 27.561V19.1867C5.7203 18.7597 6.06215 18.4112 6.48098 18.4112H37.139C37.4881 18.4112 37.7834 18.6424 37.8737 18.9862C37.9641 19.33 37.8215 19.6805 37.5193 19.8584H37.5189ZM5.71992 27.9767V39.2245C5.71992 39.6515 6.06177 40 6.4806 40H39.2167C39.6356 40 39.9774 39.6515 39.9774 39.2245V20.3235C39.9774 18.2375 40.2027 18.809 39.2301 17.0922L29.7692 0.387383C29.5596 0.0175201 29.0931 -0.109914 28.7303 0.103379L0.379882 16.7896C0.0170705 17.0032 -0.107934 17.4788 0.101674 17.8486L5.61817 27.589C5.68791 27.7122 5.71992 27.8342 5.71992 27.9767Z" fill="#F46B09"/>
</svg>
