<?xml version="1.0" encoding="UTF-8"?>
<svg version="1.1" xmlns="http://www.w3.org/2000/svg" width="276" height="268">
<path d="M0 0 C91.08 0 182.16 0 276 0 C276 88.44 276 176.88 276 268 C184.92 268 93.84 268 0 268 C0 179.56 0 91.12 0 0 Z " fill="#010003" transform="translate(0,0)"/>
<path d="M0 0 C1.49116333 0.85609863 1.49116333 0.85609863 3.01245117 1.72949219 C4.13611084 2.37289551 5.25977051 3.01629883 6.41748047 3.67919922 C7.6301812 4.3781611 8.84282629 5.07721953 10.05541992 5.77636719 C11.31677695 6.50036765 12.5782532 7.22416045 13.83984375 7.94775391 C22.70515686 13.03847459 31.53251825 18.1931776 40.35131836 23.36401367 C47.61979951 27.61284175 54.94952017 31.74354563 62.30541992 35.83886719 C72.40525196 41.46210905 82.33890142 47.29251213 92.19213867 53.33496094 C93.07514648 53.8725 93.9581543 54.41003906 94.86791992 54.96386719 C95.97006836 55.64255859 95.97006836 55.64255859 97.09448242 56.33496094 C99.41361065 57.62102296 101.77563665 58.56109671 104.24291992 59.52636719 C104.64082969 75.78131645 104.94018594 92.03467687 105.12372684 108.29332542 C105.21123347 115.84353194 105.33040632 123.39070596 105.52539062 130.93896484 C105.69535401 137.52177401 105.80462149 144.10238762 105.84242433 150.68732989 C105.86451588 154.17244713 105.91599649 157.6512871 106.04033089 161.13438034 C106.76632309 182.27815041 106.76632309 182.27815041 102.59687233 187.6452198 C98.617259 191.05342765 94.24078546 193.0310654 89.32916641 194.74760246 C86.24129827 195.90025762 83.61305839 197.53029622 80.80932617 199.25683594 C78.80845371 200.4099255 76.80714598 201.56226008 74.80541992 202.71386719 C72.55671042 204.00941999 70.30801284 205.3049935 68.05932617 206.60058594 C66.36573975 207.57584229 66.36573975 207.57584229 64.63793945 208.57080078 C58.09613554 212.33894758 51.5577986 216.11310678 45.01928711 219.88696289 C39.46719053 223.0910307 33.91328072 226.2918859 28.35620117 229.48730469 C13.26823151 238.15348512 13.26823151 238.15348512 -1.66015625 247.09033203 C-5.65743043 249.52636719 -5.65743043 249.52636719 -6.75708008 249.52636719 C-6.75708008 207.94636719 -6.75708008 166.36636719 -6.75708008 123.52636719 C2.48291992 118.24636719 11.72291992 112.96636719 21.24291992 107.52636719 C32.26017446 101.0589257 32.26017446 101.0589257 43.25708008 94.55761719 C45.24291992 93.52636719 45.24291992 93.52636719 47.24291992 93.52636719 C47.24291992 92.86636719 47.24291992 92.20636719 47.24291992 91.52636719 C46.54416748 91.26678223 45.84541504 91.00719727 45.12548828 90.73974609 C41.96555568 89.40961439 39.0932419 87.82286605 36.12182617 86.11230469 C35.54061508 85.77897125 34.95940399 85.44563782 34.36058044 85.10220337 C32.50709091 84.03830214 30.6562086 82.96995859 28.80541992 81.90136719 C27.59791167 81.207054 26.39023063 80.51304124 25.18237305 79.81933594 C23.36843046 78.77735473 21.55487235 77.73473688 19.74258423 76.68988037 C16.64178846 74.90223521 13.53664637 73.12300499 10.42211914 71.359375 C9.79909409 71.00589996 9.17606903 70.65242493 8.53416443 70.28823853 C6.81681364 69.31474547 5.09814801 68.34357299 3.37939453 67.37255859 C0.24291992 65.52636719 0.24291992 65.52636719 -3.01196289 63.26318359 C-5.5695016 61.20166835 -5.5695016 61.20166835 -8.14379883 62.01074219 C-9.00618164 62.51089844 -9.86856445 63.01105469 -10.75708008 63.52636719 C-11.95091156 64.15691441 -13.14494113 64.78708667 -14.33911133 65.41699219 C-15.75139568 66.19962254 -17.16140888 66.98636008 -18.56958008 67.77636719 C-19.33568604 68.20385254 -20.10179199 68.63133789 -20.89111328 69.07177734 C-29.81157235 74.07613105 -38.63320256 79.25140526 -47.45629883 84.42480469 C-48.37072754 84.95944336 -49.28515625 85.49408203 -50.22729492 86.04492188 C-51.80335344 86.96786369 -53.37703817 87.89488631 -54.94702148 88.828125 C-59.53687595 91.52636719 -59.53687595 91.52636719 -61.75708008 91.52636719 C-61.75708008 122.54636719 -61.75708008 153.56636719 -61.75708008 185.52636719 C-79.90708008 185.52636719 -98.05708008 185.52636719 -116.75708008 185.52636719 C-117.43986244 154.43968785 -117.43986244 154.43968785 -117.61139584 139.05119514 C-117.70550758 130.73703529 -117.82483739 122.42578347 -118.03955078 114.11376953 C-118.20951417 107.53096037 -118.31878165 100.95034675 -118.35658449 94.36540449 C-118.37867604 90.88028725 -118.43015664 87.40144727 -118.55449104 83.91835403 C-119.2797695 62.79156073 -119.2797695 62.79156073 -115.12418747 57.41286469 C-111.16584235 54.00910212 -106.80698008 52.0441812 -101.91399193 50.33458328 C-98.55043235 49.07422441 -95.5982609 47.28540097 -92.50708008 45.46386719 C-91.80131836 45.07005859 -91.09555664 44.67625 -90.3684082 44.27050781 C-83.52307275 40.43507439 -76.76952139 36.44280796 -70.00708008 32.46386719 C-58.92821301 25.94613299 -47.81191187 19.49947721 -36.62695312 13.1652832 C-31.36122786 10.17852195 -26.12323844 7.16587911 -20.95629883 4.01074219 C-19.64169678 3.21676025 -19.64169678 3.21676025 -18.30053711 2.40673828 C-16.69968065 1.43538609 -15.10740453 0.4496808 -13.52612305 -0.55322266 C-12.83019043 -0.97297363 -12.13425781 -1.39272461 -11.41723633 -1.82519531 C-10.82563721 -2.19467285 -10.23403809 -2.56415039 -9.62451172 -2.94482422 C-6.02860748 -3.96309178 -3.123859 -1.66967262 0 0 Z " fill="#FD7C01" transform="translate(145.757080078125,13.4736328125)"/>
<path d="M0 0 C0.66 0.33 1.32 0.66 2 1 C1.51322375 1.39046666 1.02644751 1.78093332 0.52492046 2.18323231 C-1.48969728 4.5834181 -1.38300294 5.95798103 -1.39872742 9.06828308 C-1.41126556 10.11576218 -1.42380371 11.16324127 -1.4367218 12.24246216 C-1.43528671 13.39116791 -1.43385162 14.53987366 -1.43237305 15.72338867 C-1.4425647 16.9332695 -1.45275635 18.14315033 -1.46325684 19.38969421 C-1.48829592 22.70772143 -1.50011682 26.02530575 -1.50611091 29.34338927 C-1.51548377 32.81080801 -1.5416862 36.27809817 -1.56611633 39.74543762 C-1.60981515 46.3114326 -1.63834124 52.87740268 -1.66143972 59.44349891 C-1.68847334 66.91871166 -1.73238591 74.39379529 -1.77772844 81.86891592 C-1.8706231 97.24587761 -1.94228165 112.62286361 -2 128 C-2.33 128 -2.66 128 -3 128 C-3.07001265 111.60620311 -3.12295006 95.21245455 -3.15543652 78.81854439 C-3.17091999 71.20694106 -3.1920376 63.59543051 -3.22631836 55.98388672 C-3.25617562 49.35136698 -3.27556423 42.71891441 -3.28226548 36.08632934 C-3.28618403 32.57285047 -3.29542343 29.05956379 -3.31719017 25.54614639 C-3.34126515 21.62854602 -3.34197236 17.71113543 -3.34057617 13.79345703 C-3.351362 12.62245453 -3.36214783 11.45145203 -3.3732605 10.2449646 C-3.36913651 9.18203186 -3.36501251 8.11909912 -3.36076355 7.0239563 C-3.36352893 6.09663256 -3.36629431 5.16930882 -3.36914349 4.21388435 C-3.24732614 3.48330252 -3.12550879 2.75272068 -3 2 C-2.01 1.34 -1.02 0.68 0 0 Z " fill="#C05E01" transform="translate(32,71)"/>
</svg>
