<?xml version="1.0" encoding="UTF-8"?>
<svg version="1.1" xmlns="http://www.w3.org/2000/svg" width="205" height="178">
<path d="M0 0 C67.65 0 135.3 0 205 0 C205 58.74 205 117.48 205 178 C137.35 178 69.7 178 0 178 C0 119.26 0 60.52 0 0 Z " fill="#FC6400" transform="translate(0,0)"/>
<path d="M0 0 C67.65 0 135.3 0 205 0 C205 58.74 205 117.48 205 178 C137.35 178 69.7 178 0 178 C0 119.26 0 60.52 0 0 Z M44.1015625 35.5546875 C42.2710175 38.31249547 40.6100297 41.10812411 39 44 C38.45214844 44.97582031 37.90429688 45.95164063 37.33984375 46.95703125 C33.27244067 54.90195864 31.73620102 62.57988485 30.54296875 71.32421875 C30 75 30 75 29 77 C18.605 77.495 18.605 77.495 8 78 C8 103.85451225 18.01737824 126.40616211 36 145 C36.56589844 145.66257813 37.13179687 146.32515625 37.71484375 147.0078125 C42.01812403 151.82826706 47.06444801 155.21530587 52.5 158.625 C53.19279053 159.06835693 53.88558105 159.51171387 54.59936523 159.96850586 C69.09722074 168.74313945 82.00552516 170.98554992 98.78100586 170.78222656 C101.9306397 170.75007004 105.07513111 170.78206271 108.22460938 170.8203125 C124.14112728 170.85446393 138.00810586 168.23535654 151.4375 159.1875 C152.09161865 158.76299561 152.7457373 158.33849121 153.41967773 157.90112305 C159.10872988 154.11988629 164.1354284 149.79196606 169 145 C169.6084375 144.46375 170.216875 143.9275 170.84375 143.375 C176.85679693 137.9085937 180.8208659 130.88374353 185 124 C185.49757812 123.21496094 185.99515625 122.42992188 186.5078125 121.62109375 C192.93401801 110.97137581 196.11550367 98.5564692 196.1875 86.1875 C196.20167969 85.06730469 196.21585938 83.94710937 196.23046875 82.79296875 C196.2915059 79.86046551 196.2915059 79.86046551 194 78 C192.06742145 77.63168919 192.06742145 77.63168919 189.8671875 77.5859375 C189.06152344 77.54726562 188.25585938 77.50859375 187.42578125 77.46875 C186.58402344 77.4378125 185.74226562 77.406875 184.875 77.375 C184.02550781 77.33632812 183.17601562 77.29765625 182.30078125 77.2578125 C180.20088316 77.16343506 178.10047109 77.08062414 176 77 C175.7525 75.845 175.505 74.69 175.25 73.5 C174.83420699 71.66646833 174.41738414 69.83317012 174 68 C173.5978125 66.14955078 173.5978125 66.14955078 173.1875 64.26171875 C170.1803475 50.92720091 165.18629249 40.30189537 156 30 C155.05833984 28.93458984 155.05833984 28.93458984 154.09765625 27.84765625 C149.02953939 22.44788348 143.40829121 18.6550131 137 15 C135.94482178 14.39406006 134.88964355 13.78812012 133.80249023 13.16381836 C124.2846671 8.19507707 116.25163954 6.89258932 105.56689453 7.08740234 C103.13132119 7.12490267 100.70482983 7.08760363 98.26953125 7.04296875 C76.3966897 6.97535948 57.1522589 17.99263926 44.1015625 35.5546875 Z " fill="#131211" transform="translate(0,0)"/>
<path d="M0 0 C1.15252762 -0.00845947 2.30505524 -0.01691895 3.49250793 -0.02563477 C5.39083626 -0.01652573 5.39083626 -0.01652573 7.32751465 -0.00723267 C8.67283047 -0.01129744 10.01814295 -0.01663879 11.3634491 -0.02316284 C15.01839806 -0.03685364 18.67309333 -0.03153066 22.3280468 -0.02202559 C26.15034552 -0.01443806 29.97262231 -0.02147207 33.79492188 -0.02618408 C40.21419175 -0.03164429 46.63335813 -0.02444311 53.0526123 -0.01016235 C60.47751424 0.00616473 67.90216905 0.00087641 75.32706499 -0.01564157 C81.69826643 -0.02924892 88.06939341 -0.0311798 94.44060469 -0.02332556 C98.24745708 -0.01864489 102.05419325 -0.01803494 105.86103821 -0.02793503 C109.43978779 -0.03659158 113.01821831 -0.0306072 116.59693336 -0.01325226 C118.53936447 -0.00738334 120.48182251 -0.01631417 122.42424011 -0.02563477 C123.57676773 -0.01717529 124.72929535 -0.00871582 125.91674805 0 C127.42218296 0.00169662 127.42218296 0.00169662 128.9580307 0.00342751 C131.45837402 0.38095093 131.45837402 0.38095093 133.27762604 1.77829552 C135.77589649 5.16925338 134.92140793 9.39460156 134.45837402 13.38095093 C130.72688423 31.52209312 120.08963293 48.47556904 105.08337402 59.31845093 C86.98630761 70.93553125 68.30135881 74.81616545 47.02087402 71.38095093 C28.36206516 67.15447752 12.63754795 55.71390836 2.35681152 39.66220093 C-3.90733729 28.83527706 -9.73529059 16.23997424 -8.54162598 3.38095093 C-6.14618169 0.00253363 -3.98819606 0.00449467 0 0 Z " fill="#171311" transform="translate(39.5416259765625,77.61904907226563)"/>
<path d="M0 0 C15.90509779 -1.37640269 15.90509779 -1.37640269 20.8359375 1.86328125 C22.78914596 4.14950801 24.38291155 6.46963362 26 9 C30.55826227 14.04240636 35.37393213 16.50594825 42.125 17.42578125 C49.79793001 17.74247058 55.77187665 16.61813228 62 12 C65.42764137 8.7085563 68.85835314 5.28329371 71 1 C74.69945999 -0.23315333 78.14767558 -0.18407267 82 -0.1875 C82.72445312 -0.19974609 83.44890625 -0.21199219 84.1953125 -0.22460938 C88.00700298 -0.23515833 89.7536304 -0.1642464 93 2 C92.79513761 11.01394519 87.21917936 18.98779482 81.1875 25.375 C69.242603 36.42574924 55.69816222 39.94364616 39.7890625 39.37890625 C26.78179961 38.56690686 16.46422998 32.19738324 7.59765625 22.890625 C3.54267134 18.09206094 0.02842716 12.9780089 -2 7 C-1.68863844 4.32229059 -1.20221634 2.40443268 0 0 Z " fill="#FA6400" transform="translate(57,89)"/>
</svg>
