<svg width="154" height="177" viewBox="0 0 154 177" fill="none" xmlns="http://www.w3.org/2000/svg">
<path fill-rule="evenodd" clip-rule="evenodd" d="M145.087 110.738C143.845 104.306 142.316 97.9619 141.037 91.5437C140.773 90.2241 140.835 85.8043 140.093 85.0584C139.052 84.0134 135.468 86.7283 134.619 87.3337C130.269 90.4405 126.217 93.9515 122.129 97.4831C121.654 97.8932 118.569 100.067 118.613 100.665C118.784 102.94 122.819 103.954 124.158 104.595C130.003 107.394 137.941 111.415 144.333 112.426" fill="#393838"/>
<path d="M145.087 110.738C143.845 104.306 142.316 97.9619 141.037 91.5437C140.773 90.2241 140.835 85.8043 140.093 85.0584C139.052 84.0134 135.468 86.7283 134.619 87.3337C130.269 90.4405 126.217 93.9515 122.129 97.4831C121.654 97.8932 118.569 100.067 118.613 100.665C118.784 102.94 122.819 103.954 124.158 104.595C130.003 107.394 137.941 111.415 144.333 112.426" stroke="#393838" stroke-width="2.93433" stroke-miterlimit="1.5" stroke-linecap="round" stroke-linejoin="round"/>
<path d="M130.927 92.3894C122.778 73.9822 104.828 52.1318 86.1293 47.5447C77.6461 45.4634 55.4058 49.7356 57.9733 64.8193C60.7868 81.3459 81.7957 67.4368 75.9742 53.6265C70.8266 41.4153 57.9744 38.8394 46.9719 41.0722C27.5274 45.0188 12.9103 57.9404 3.73984 77.7216" stroke="#393838" stroke-width="2.93433" stroke-miterlimit="1.5" stroke-linecap="round" stroke-linejoin="round"/>
</svg>
