<svg width="20" height="20" viewBox="0 0 20 20" fill="none" xmlns="http://www.w3.org/2000/svg">
<path fill-rule="evenodd" clip-rule="evenodd" d="M6.29 17.9998C13.837 17.9998 17.965 11.8434 17.965 6.50517C17.965 6.32992 17.965 6.15599 17.953 5.98271C18.756 5.41167 19.449 4.70266 20 3.8914C19.252 4.21827 18.457 4.43263 17.644 4.52714C18.5 4.02207 19.141 3.22858 19.448 2.29228C18.642 2.76289 17.761 3.09502 16.842 3.27323C15.288 1.64676 12.689 1.56796 11.036 3.09794C9.971 4.08445 9.518 5.55532 9.849 6.95829C6.55 6.79486 3.476 5.26097 1.392 2.73759C0.303 4.5836 0.86 6.94429 2.663 8.12968C2.01 8.11097 1.371 7.93788 0.8 7.6248V7.67606C0.801 9.59889 2.178 11.2545 4.092 11.6355C3.488 11.798 2.854 11.8215 2.24 11.7044C2.777 13.3505 4.318 14.478 6.073 14.5105C4.62 15.6349 2.825 16.2454 0.977 16.2434C0.651 16.2425 0.325 16.2237 0 16.1853C1.877 17.3707 4.06 17.9998 6.29 17.9969" fill="white" fill-opacity="0.7"/>
</svg>
